<svg width="65" height="64" viewBox="0 0 65 64" fill="none" xmlns="http://www.w3.org/2000/svg">
<g clip-path="url(#clip0_52_438)">
<path d="M57.4855 0H6.85046C3.15982 0 0.167969 2.99185 0.167969 6.68249V57.3175C0.167969 61.0081 3.15982 64 6.85046 64H57.4855C61.1761 64 64.168 61.0081 64.168 57.3175V6.68249C64.168 2.99185 61.1761 0 57.4855 0Z" fill="#312F2F"/>
<path d="M20.7524 48.1746C21.0184 47.9827 21.2338 47.7291 21.3801 47.4355C21.5413 47.1776 21.6256 46.879 21.6231 46.5749C21.6335 46.1032 21.4674 45.6446 21.1574 45.289C20.8308 44.9301 20.4098 44.6704 19.9424 44.5398L19.5779 44.4689H19.0615C18.8625 44.4583 18.6631 44.4583 18.4641 44.4689H16.5303V52.8625H19.3146C19.8623 52.8882 20.4089 52.7913 20.9144 52.579C21.2927 52.3621 21.6124 52.0563 21.8459 51.688C22.0299 51.398 22.1481 51.0712 22.1921 50.7305C22.2361 50.3899 22.2049 50.0437 22.1006 49.7165C21.9964 49.3892 21.8216 49.0888 21.5887 48.8364C21.3557 48.584 21.0703 48.3858 20.7524 48.2556V48.1746ZM18.13 45.9168H18.9704C19.2597 45.8934 19.5476 45.9762 19.7804 46.1496C19.8738 46.2217 19.9476 46.3159 19.9954 46.4238C20.0431 46.5316 20.0632 46.6497 20.0538 46.7673C20.0593 46.8918 20.0377 47.0161 19.9905 47.1314C19.9433 47.2468 19.8716 47.3506 19.7804 47.4355C19.5257 47.6295 19.2086 47.7232 18.8894 47.6988H18.13V45.9168ZM20.2866 50.9793C19.8609 51.1688 19.3945 51.2489 18.9299 51.2121H18.13V49.1061H18.8894C19.366 49.0742 19.8414 49.1833 20.2563 49.42C20.3829 49.5242 20.4843 49.6558 20.5527 49.8049C20.6211 49.954 20.6548 50.1167 20.6511 50.2806C20.6553 50.4242 20.6242 50.5666 20.5607 50.6955C20.4971 50.8243 20.4031 50.9356 20.2866 51.0198V50.9793Z" fill="white"/>
<path d="M24.569 46.5342H23.0098V52.7813H24.569V46.5342Z" fill="white"/>
<path d="M27.2624 44.3877V51.2524H30.3505V52.7813H25.7031V44.3877H27.2624Z" fill="white"/>
<path d="M32.8112 44.3877V51.2524H35.9094V52.7813H31.252V44.3877H32.8112Z" fill="white"/>
<path d="M41.8427 44.3877V45.9469H38.3698V47.8201H41.8427V49.3388H38.3698V51.2119H41.8427V52.7813H36.8105V44.3877H41.8427Z" fill="white"/>
<path d="M50.5394 52.7816H48.7675L46.8539 49.8453L44.8795 52.7816H43.0469L45.8717 48.4582L43.2089 44.4082H45.0111L47.7246 48.4582C48.241 49.2682 48.6662 49.9061 48.9801 50.3921C49.294 50.8781 49.5167 51.2223 49.6382 51.4046L50.5394 52.7816Z" fill="white"/>
<path d="M48.383 47.4454L47.4414 46.0684L48.5754 44.3877H50.3878L48.383 47.4454Z" fill="#E47825"/>
<path d="M24.569 44.3369H23.0098V45.8658H24.569V44.3369Z" fill="#E47825"/>
<path d="M13.4521 14.7012C18.0084 14.7012 22.9696 14.8834 27.5258 14.8834C26.8677 16.0377 26.2501 17.1413 25.592 18.3057C21.0661 18.3057 15.9024 18.3057 11.417 18.2449C11.9941 17.121 12.8345 15.825 13.4521 14.7012Z" stroke="white" stroke-width="1.00237" stroke-linecap="round" stroke-linejoin="round"/>
<path d="M27.5054 14.8838C28.8622 17.253 30.2594 19.4907 31.6263 21.8599C30.9479 22.9939 30.2797 23.6925 29.6013 24.8265L40.2022 25.029C41.4678 22.7408 42.865 20.9082 44.1306 18.63L52.9495 34.1921L50.9245 37.8776L36.6382 37.8169L32.6894 30.7294C29.2672 30.6484 25.8551 30.6788 22.4429 30.5876C21.6937 31.752 21.1874 32.8556 20.4179 34.02C17.5222 28.8056 14.343 23.5001 11.3662 18.225" stroke="white" stroke-width="1.00237" stroke-linecap="round" stroke-linejoin="round"/>
<path d="M25.5918 18.3057C26.9789 20.5534 28.2344 22.5683 29.6418 24.8262" stroke="white" stroke-width="1.00237" stroke-linecap="round" stroke-linejoin="round"/>
<path d="M29.834 18.498L44.1507 18.6297" stroke="white" stroke-width="1.00237" stroke-linecap="round" stroke-linejoin="round"/>
<path d="M31.6465 21.8594L42.217 22.1327" stroke="white" stroke-width="1.00237" stroke-linecap="round" stroke-linejoin="round"/>
<path d="M27.7176 21.9809L17.4307 21.8594L22.4425 30.6985L24.3258 27.337C27.6974 27.337 31.2816 27.5699 34.5621 27.6407C35.9493 29.929 37.2453 31.8932 38.6121 34.1916H52.3922" stroke="white" stroke-width="1.00237" stroke-linecap="round" stroke-linejoin="round"/>
<path d="M21.4307 21.9912L24.3973 27.3372" stroke="white" stroke-width="1.00237" stroke-linecap="round" stroke-linejoin="round"/>
<path d="M20.4785 34.0605C25.2474 34.0605 29.7935 34.0605 34.5624 34.0605" stroke="white" stroke-width="1.00237" stroke-linecap="round" stroke-linejoin="round"/>
<path d="M32.5684 30.77C33.1657 29.6562 34.0061 28.745 34.5934 27.6211" stroke="white" stroke-width="1.00237" stroke-linecap="round" stroke-linejoin="round"/>
<path d="M38.643 34.1719C37.995 35.3869 37.3368 36.6019 36.6787 37.8169" stroke="white" stroke-width="1.00237" stroke-linecap="round" stroke-linejoin="round"/>
<path d="M36.8105 30.7694H47.1279L42.2173 22.1328" stroke="white" stroke-width="1.00237" stroke-linecap="round" stroke-linejoin="round"/>
<path d="M40.2227 25.4746L43.1791 30.5371" stroke="white" stroke-width="1.00237" stroke-linecap="round" stroke-linejoin="round"/>
</g>
<defs>
<clipPath id="clip0_52_438">
<rect width="64" height="64" fill="white" transform="translate(0.167969)"/>
</clipPath>
</defs>
</svg>
