<svg width="75" height="75" viewBox="0 0 75 75" fill="none" xmlns="http://www.w3.org/2000/svg">
<rect width="75" height="75" rx="37.5" fill="white"/>
<path d="M30.3075 43.8473C30.2993 43.9638 30.3141 44.0809 30.3511 44.1917C30.3881 44.3025 30.4466 44.405 30.5232 44.4932C30.5998 44.5815 30.6931 44.6538 30.7976 44.706C30.9022 44.7581 31.016 44.7892 31.1326 44.7974L31.1325 44.7977H31.1396H31.1951H31.1952C31.4203 44.7975 31.6369 44.712 31.8016 44.5586C31.9662 44.4051 32.0667 44.1951 32.0827 43.9706L32.0827 43.9704L32.637 36.0706C32.637 36.0706 32.637 36.0706 32.637 36.0706C32.6453 35.954 32.6304 35.837 32.5934 35.7261C32.5564 35.6153 32.4979 35.5128 32.4213 35.4246C32.3447 35.3364 32.2514 35.2641 32.1469 35.2119C32.0423 35.1597 31.9285 35.1286 31.812 35.1204C31.6954 35.1122 31.5784 35.127 31.4675 35.164C31.3567 35.201 31.2542 35.2595 31.166 35.3361C31.0778 35.4127 31.0055 35.506 30.9533 35.6105C30.9018 35.7137 30.8708 35.8258 30.8621 35.9407L30.8618 35.9407L30.3075 43.8473ZM30.3075 43.8473L30.4072 43.8543L30.3075 43.8473L30.3075 43.8473ZM37.4053 28.4676C38.8885 28.4676 40.3025 27.7198 41.389 26.377C42.3806 25.1515 42.9506 23.6046 42.9506 22.1287C42.9506 19.1442 40.5594 16.9002 37.4053 16.9002C34.2512 16.9002 31.86 19.1413 31.86 22.1287C31.86 23.6046 32.43 25.1515 33.4217 26.377C34.5082 27.7208 35.9222 28.4676 37.4053 28.4676ZM37.4053 18.6798C39.5984 18.6798 41.171 20.1354 41.171 22.1287C41.171 23.3936 40.6534 24.5355 39.92 25.3612C39.1848 26.189 38.2435 26.688 37.4053 26.688C36.3758 26.688 35.4356 26.0745 34.7484 25.1883C34.0615 24.3025 33.6396 23.1588 33.6396 22.1287C33.6396 20.1392 35.2122 18.6798 37.4053 18.6798Z" fill="#2D060F" stroke="#2D060F" stroke-width="0.2"/>
<path d="M48.1179 44.7968L48.1178 44.7967C47.8948 44.8035 47.6769 44.7287 47.5051 44.5862C47.3333 44.4437 47.2195 44.2434 47.185 44.0229L47.1848 44.0213L47.2838 44.0074L47.1848 44.0212L47.1847 44.021L47.1846 44.0202L47.1842 44.0169L47.1823 44.0038L47.1752 43.9527L47.1481 43.757C47.1246 43.5874 47.091 43.3428 47.0503 43.043C46.9688 42.4434 46.859 41.6227 46.7453 40.7385C46.5182 38.9715 46.2752 36.9457 46.2142 35.9249L46.2142 35.9247C46.1316 34.4817 45.7553 33.1539 44.8985 32.1699C44.0898 31.2482 42.9813 30.6421 41.769 30.4586L41.7688 30.4586C40.6511 30.2872 38.5328 30.1516 37.4663 30.1515C35.9747 30.1778 34.4855 30.281 33.0046 30.4609C30.4045 30.8149 28.7263 33.0764 28.5712 35.9196C28.5712 35.9196 28.5712 35.9196 28.5712 35.9196L28.4713 35.9142C28.3712 37.7613 27.7228 42.9383 27.6065 43.8582L48.1179 44.7968ZM48.1179 44.7968L48.1236 44.7963C48.3642 44.775 48.5866 44.6592 48.742 44.4742C48.8974 44.2891 48.9731 44.0501 48.9525 43.8094L48.9487 43.7648L48.9462 43.7629L48.9425 43.7364L48.9158 43.5431C48.8928 43.3756 48.8597 43.134 48.8196 42.8378C48.7395 42.2453 48.6313 41.4345 48.5193 40.561C48.2952 38.8125 48.0564 36.8174 47.9954 35.8171L47.9953 35.817C47.7661 32.174 45.5369 29.2337 42.0394 28.6986M48.1179 44.7968L42.0394 28.6986M26.0186 43.8265L25.9194 43.8139L25.9194 43.8143C25.905 43.9312 25.9139 44.0499 25.9457 44.1634C25.9775 44.2769 26.0315 44.3829 26.1047 44.4754C26.1778 44.5678 26.2686 44.6448 26.3717 44.7019C26.4748 44.7589 26.5883 44.7949 26.7054 44.8078C26.8226 44.8207 26.9411 44.8101 27.0542 44.7768C27.1672 44.7434 27.2725 44.688 27.364 44.6136C27.4554 44.5392 27.5311 44.4474 27.5868 44.3435C27.6422 44.2401 27.6766 44.1267 27.6881 44.01L26.0186 43.8265ZM26.0186 43.8265L25.9195 43.8138L25.9195 43.8136L25.9196 43.8128L25.92 43.8096L25.9216 43.7967L25.928 43.7462L25.9524 43.5528C25.9734 43.3852 26.0036 43.1434 26.0401 42.8471C26.1132 42.2543 26.2119 41.4431 26.3142 40.5691C26.5189 38.8197 26.7375 36.823 26.7948 35.8214M26.0186 43.8265L28.5422 30.9846M42.0394 28.6986C40.8234 28.5119 38.6202 28.3719 37.4674 28.3709L37.4656 28.371C35.894 28.3982 34.3248 28.5068 32.7644 28.6962L32.7644 28.6962L32.7629 28.6964C31.1246 28.9207 29.6241 29.7341 28.5422 30.9846M42.0394 28.6986L28.5422 30.9846M28.5422 30.9846C27.4032 32.2997 26.898 33.9768 26.7948 35.8214M26.7948 35.8214C26.7948 35.8214 26.7948 35.8214 26.7948 35.8214L26.8946 35.8271L26.7948 35.8215C26.7948 35.8214 26.7948 35.8214 26.7948 35.8214Z" fill="#2D060F" stroke="#2D060F" stroke-width="0.2"/>
<mask id="path-4-outside-1_236_102" maskUnits="userSpaceOnUse" x="14.1279" y="34.2131" width="46" height="24" fill="black">
<rect fill="white" x="14.1279" y="34.2131" width="46" height="24"/>
<path d="M42.9814 35.2149C42.8774 35.222 42.7759 35.2497 42.6826 35.2963C42.5894 35.3428 42.5063 35.4074 42.4381 35.4863C42.37 35.5651 42.3181 35.6567 42.2855 35.7557C42.2528 35.8547 42.2402 35.9591 42.2481 36.0631L42.8034 43.9687C42.8172 44.1681 42.906 44.3548 43.0521 44.4912C43.1981 44.6277 43.3904 44.7037 43.5903 44.7039H43.6468C43.8556 44.689 44.05 44.5918 44.1873 44.4336C44.3246 44.2755 44.3936 44.0694 44.3791 43.8605L43.8239 35.9539C43.8172 35.8501 43.7901 35.7485 43.7441 35.6551C43.6981 35.5617 43.6342 35.4783 43.5559 35.4097C43.4777 35.341 43.3866 35.2885 43.2881 35.2551C43.1895 35.2216 43.0853 35.208 42.9814 35.2149ZM42.4434 51.8475L46.2421 48.1446C46.3476 48.0417 46.4222 47.9114 46.4574 47.7684C46.4927 47.6253 46.4873 47.4753 46.4418 47.3352C46.3963 47.195 46.3125 47.0704 46.1999 46.9754C46.0873 46.8804 45.9504 46.8188 45.8046 46.7976L40.5555 46.0317L38.2082 41.2786C38.143 41.1463 38.0421 41.035 37.9169 40.9571C37.7917 40.8792 37.6472 40.838 37.4998 40.838C37.3523 40.838 37.2078 40.8792 37.0826 40.9571C36.9574 41.035 36.8565 41.1463 36.7913 41.2786L34.444 46.0346L29.1949 46.8005C29.0491 46.8217 28.9122 46.8833 28.7996 46.9783C28.687 47.0733 28.6032 47.1979 28.5577 47.338C28.5122 47.4781 28.5068 47.6282 28.5421 47.7712C28.5774 47.9143 28.6519 48.0446 28.7574 48.1474L32.5561 51.8504L31.66 57.0745C31.6347 57.2202 31.6507 57.37 31.7063 57.507C31.7619 57.644 31.8548 57.7627 31.9745 57.8494C32.0942 57.9362 32.2359 57.9877 32.3834 57.9979C32.5309 58.0082 32.6783 57.9768 32.8088 57.9074L37.4998 55.4394L42.1907 57.9074C42.3041 57.9668 42.4302 57.998 42.5583 57.9983C42.6733 57.9982 42.7869 57.9729 42.8911 57.9243C42.9954 57.8758 43.0878 57.805 43.1619 57.7171C43.236 57.6291 43.29 57.5261 43.3202 57.4151C43.3503 57.3041 43.3559 57.1879 43.3366 57.0745L42.4434 51.8475ZM37.1321 53.8483C36.215 54.3155 33.4866 55.763 33.4866 55.763L34.1826 51.703C34.2042 51.5768 34.1949 51.4473 34.1554 51.3255C34.1159 51.2038 34.0473 51.0935 33.9557 51.0041L31.0062 48.1321L35.0825 47.5395C35.2091 47.521 35.3294 47.4721 35.4329 47.3969C35.5365 47.3217 35.6202 47.2225 35.677 47.1078L37.4959 43.4134L39.3148 47.1078C39.3716 47.2225 39.4554 47.3217 39.5589 47.3969C39.6625 47.4721 39.7827 47.521 39.9093 47.5395L43.9857 48.1321L41.0361 51.0041C40.9445 51.0935 40.876 51.2038 40.8365 51.3255C40.7969 51.4473 40.7876 51.5768 40.8092 51.703L41.5052 55.763C41.5052 55.763 38.7768 54.3136 37.8597 53.8483C37.7479 53.788 37.6229 53.7564 37.4959 53.7564C37.3689 53.7564 37.2439 53.788 37.1321 53.8483ZM59.1957 49.1986L55.3578 48.6405L53.6413 45.1634C53.5763 45.0311 53.4755 44.9197 53.3503 44.8418C53.2252 44.7639 53.0807 44.7226 52.9333 44.7226C52.7859 44.7226 52.6415 44.7639 52.5163 44.8418C52.3912 44.9197 52.2904 45.0311 52.2254 45.1634L50.5089 48.6405L46.671 49.1986C46.5252 49.2198 46.3882 49.2814 46.2756 49.3764C46.163 49.4714 46.0792 49.596 46.0337 49.7361C45.9882 49.8762 45.9828 50.0263 46.0181 50.1693C46.0534 50.3124 46.128 50.4427 46.2335 50.5455L49.0097 53.2529L48.3539 57.0745C48.3286 57.2202 48.3446 57.37 48.4002 57.507C48.4558 57.644 48.5488 57.7627 48.6685 57.8494C48.7882 57.9362 48.9298 57.9877 49.0773 57.9979C49.2248 58.0082 49.3722 57.9768 49.5027 57.9074L52.9348 56.1028L56.3678 57.9074C56.4812 57.9668 56.6073 57.998 56.7354 57.9983C56.8504 57.9982 56.964 57.9729 57.0682 57.9243C57.1724 57.8758 57.2648 57.805 57.3389 57.7171C57.413 57.6291 57.4671 57.5261 57.4972 57.4151C57.5274 57.3041 57.533 57.1879 57.5137 57.0745L56.8579 53.2529L59.6342 50.5455C59.7396 50.4427 59.8142 50.3124 59.8495 50.1693C59.8848 50.0263 59.8794 49.8762 59.8339 49.7361C59.7884 49.596 59.7046 49.4714 59.592 49.3764C59.4794 49.2814 59.3424 49.2198 59.1967 49.1986H59.1957ZM52.5662 54.5118C51.964 54.8143 50.1815 55.7649 50.1815 55.7649L50.6372 53.1102C50.6588 52.9841 50.6495 52.8546 50.61 52.7328C50.5704 52.6111 50.5019 52.5008 50.4103 52.4114L48.4813 50.5312L51.1465 50.1482C51.2733 50.1299 51.3937 50.0809 51.4973 50.0055C51.6009 49.9301 51.6845 49.8306 51.741 49.7155L52.9329 47.3012L54.1247 49.7155C54.1815 49.8305 54.2654 49.9299 54.3691 50.0053C54.4728 50.0807 54.5933 50.1297 54.7202 50.1482L57.3844 50.5312L55.4564 52.4114C55.3646 52.5007 55.296 52.611 55.2565 52.7327C55.2169 52.8545 55.2077 52.9841 55.2295 53.1102L55.689 55.7649C55.689 55.7649 53.9074 54.8143 53.3053 54.5118C53.1917 54.4506 53.0647 54.4186 52.9357 54.4186C52.8067 54.4186 52.6798 54.4506 52.5662 54.5118ZM28.3285 49.1986L24.4906 48.6405L22.7741 45.1634C22.7091 45.0311 22.6083 44.9197 22.4832 44.8418C22.358 44.7639 22.2136 44.7226 22.0662 44.7226C21.9188 44.7226 21.7743 44.7639 21.6492 44.8418C21.524 44.9197 21.4232 45.0311 21.3582 45.1634L19.6417 48.6405L15.8038 49.1986C15.658 49.2198 15.5211 49.2814 15.4085 49.3764C15.2959 49.4714 15.2121 49.596 15.1666 49.7361C15.121 49.8762 15.1156 50.0263 15.1509 50.1693C15.1862 50.3124 15.2608 50.4427 15.3663 50.5455L18.1426 53.2529L17.4916 57.0745C17.4662 57.2202 17.4822 57.37 17.5378 57.507C17.5934 57.644 17.6864 57.7627 17.8061 57.8494C17.9258 57.9362 18.0674 57.9877 18.2149 57.9979C18.3624 58.0082 18.5098 57.9768 18.6404 57.9074L22.0733 56.1028L25.5054 57.9074C25.6188 57.9668 25.7449 57.998 25.873 57.9983C25.988 57.9982 26.1016 57.9729 26.2058 57.9243C26.3101 57.8758 26.4025 57.805 26.4766 57.7171C26.5507 57.6291 26.6047 57.5261 26.6349 57.4151C26.665 57.3041 26.6706 57.1879 26.6513 57.0745L25.9955 53.2529L28.7718 50.5455C28.8773 50.4427 28.9519 50.3124 28.9871 50.1693C29.0224 50.0263 29.017 49.8762 28.9715 49.7361C28.926 49.596 28.8422 49.4714 28.7296 49.3764C28.617 49.2814 28.4801 49.2198 28.3343 49.1986H28.3285ZM21.7038 54.5118L19.3153 55.7649L19.77 53.1102C19.7918 52.9841 19.7826 52.8545 19.743 52.7327C19.7035 52.611 19.6349 52.5007 19.5431 52.4114L17.6151 50.5312L20.2793 50.1482C20.4062 50.1297 20.5267 50.0807 20.6304 50.0053C20.7341 49.9299 20.818 49.8305 20.8748 49.7155L22.0666 47.3012L23.2585 49.7155C23.315 49.8306 23.3986 49.9301 23.5022 50.0055C23.6058 50.0809 23.7262 50.1299 23.853 50.1482L26.5182 50.5312L24.5892 52.4114C24.4976 52.5008 24.4291 52.6111 24.3895 52.7328C24.35 52.8546 24.3407 52.9841 24.3623 53.1102L24.818 55.7649L22.4333 54.5118C22.3235 54.4446 22.1973 54.409 22.0686 54.409C21.9398 54.409 21.8136 54.4446 21.7038 54.5118Z"/>
</mask>
<path d="M42.9814 35.2149C42.8774 35.222 42.7759 35.2497 42.6826 35.2963C42.5894 35.3428 42.5063 35.4074 42.4381 35.4863C42.37 35.5651 42.3181 35.6567 42.2855 35.7557C42.2528 35.8547 42.2402 35.9591 42.2481 36.0631L42.8034 43.9687C42.8172 44.1681 42.906 44.3548 43.0521 44.4912C43.1981 44.6277 43.3904 44.7037 43.5903 44.7039H43.6468C43.8556 44.689 44.05 44.5918 44.1873 44.4336C44.3246 44.2755 44.3936 44.0694 44.3791 43.8605L43.8239 35.9539C43.8172 35.8501 43.7901 35.7485 43.7441 35.6551C43.6981 35.5617 43.6342 35.4783 43.5559 35.4097C43.4777 35.341 43.3866 35.2885 43.2881 35.2551C43.1895 35.2216 43.0853 35.208 42.9814 35.2149ZM42.4434 51.8475L46.2421 48.1446C46.3476 48.0417 46.4222 47.9114 46.4574 47.7684C46.4927 47.6253 46.4873 47.4753 46.4418 47.3352C46.3963 47.195 46.3125 47.0704 46.1999 46.9754C46.0873 46.8804 45.9504 46.8188 45.8046 46.7976L40.5555 46.0317L38.2082 41.2786C38.143 41.1463 38.0421 41.035 37.9169 40.9571C37.7917 40.8792 37.6472 40.838 37.4998 40.838C37.3523 40.838 37.2078 40.8792 37.0826 40.9571C36.9574 41.035 36.8565 41.1463 36.7913 41.2786L34.444 46.0346L29.1949 46.8005C29.0491 46.8217 28.9122 46.8833 28.7996 46.9783C28.687 47.0733 28.6032 47.1979 28.5577 47.338C28.5122 47.4781 28.5068 47.6282 28.5421 47.7712C28.5774 47.9143 28.6519 48.0446 28.7574 48.1474L32.5561 51.8504L31.66 57.0745C31.6347 57.2202 31.6507 57.37 31.7063 57.507C31.7619 57.644 31.8548 57.7627 31.9745 57.8494C32.0942 57.9362 32.2359 57.9877 32.3834 57.9979C32.5309 58.0082 32.6783 57.9768 32.8088 57.9074L37.4998 55.4394L42.1907 57.9074C42.3041 57.9668 42.4302 57.998 42.5583 57.9983C42.6733 57.9982 42.7869 57.9729 42.8911 57.9243C42.9954 57.8758 43.0878 57.805 43.1619 57.7171C43.236 57.6291 43.29 57.5261 43.3202 57.4151C43.3503 57.3041 43.3559 57.1879 43.3366 57.0745L42.4434 51.8475ZM37.1321 53.8483C36.215 54.3155 33.4866 55.763 33.4866 55.763L34.1826 51.703C34.2042 51.5768 34.1949 51.4473 34.1554 51.3255C34.1159 51.2038 34.0473 51.0935 33.9557 51.0041L31.0062 48.1321L35.0825 47.5395C35.2091 47.521 35.3294 47.4721 35.4329 47.3969C35.5365 47.3217 35.6202 47.2225 35.677 47.1078L37.4959 43.4134L39.3148 47.1078C39.3716 47.2225 39.4554 47.3217 39.5589 47.3969C39.6625 47.4721 39.7827 47.521 39.9093 47.5395L43.9857 48.1321L41.0361 51.0041C40.9445 51.0935 40.876 51.2038 40.8365 51.3255C40.7969 51.4473 40.7876 51.5768 40.8092 51.703L41.5052 55.763C41.5052 55.763 38.7768 54.3136 37.8597 53.8483C37.7479 53.788 37.6229 53.7564 37.4959 53.7564C37.3689 53.7564 37.2439 53.788 37.1321 53.8483ZM59.1957 49.1986L55.3578 48.6405L53.6413 45.1634C53.5763 45.0311 53.4755 44.9197 53.3503 44.8418C53.2252 44.7639 53.0807 44.7226 52.9333 44.7226C52.7859 44.7226 52.6415 44.7639 52.5163 44.8418C52.3912 44.9197 52.2904 45.0311 52.2254 45.1634L50.5089 48.6405L46.671 49.1986C46.5252 49.2198 46.3882 49.2814 46.2756 49.3764C46.163 49.4714 46.0792 49.596 46.0337 49.7361C45.9882 49.8762 45.9828 50.0263 46.0181 50.1693C46.0534 50.3124 46.128 50.4427 46.2335 50.5455L49.0097 53.2529L48.3539 57.0745C48.3286 57.2202 48.3446 57.37 48.4002 57.507C48.4558 57.644 48.5488 57.7627 48.6685 57.8494C48.7882 57.9362 48.9298 57.9877 49.0773 57.9979C49.2248 58.0082 49.3722 57.9768 49.5027 57.9074L52.9348 56.1028L56.3678 57.9074C56.4812 57.9668 56.6073 57.998 56.7354 57.9983C56.8504 57.9982 56.964 57.9729 57.0682 57.9243C57.1724 57.8758 57.2648 57.805 57.3389 57.7171C57.413 57.6291 57.4671 57.5261 57.4972 57.4151C57.5274 57.3041 57.533 57.1879 57.5137 57.0745L56.8579 53.2529L59.6342 50.5455C59.7396 50.4427 59.8142 50.3124 59.8495 50.1693C59.8848 50.0263 59.8794 49.8762 59.8339 49.7361C59.7884 49.596 59.7046 49.4714 59.592 49.3764C59.4794 49.2814 59.3424 49.2198 59.1967 49.1986H59.1957ZM52.5662 54.5118C51.964 54.8143 50.1815 55.7649 50.1815 55.7649L50.6372 53.1102C50.6588 52.9841 50.6495 52.8546 50.61 52.7328C50.5704 52.6111 50.5019 52.5008 50.4103 52.4114L48.4813 50.5312L51.1465 50.1482C51.2733 50.1299 51.3937 50.0809 51.4973 50.0055C51.6009 49.9301 51.6845 49.8306 51.741 49.7155L52.9329 47.3012L54.1247 49.7155C54.1815 49.8305 54.2654 49.9299 54.3691 50.0053C54.4728 50.0807 54.5933 50.1297 54.7202 50.1482L57.3844 50.5312L55.4564 52.4114C55.3646 52.5007 55.296 52.611 55.2565 52.7327C55.2169 52.8545 55.2077 52.9841 55.2295 53.1102L55.689 55.7649C55.689 55.7649 53.9074 54.8143 53.3053 54.5118C53.1917 54.4506 53.0647 54.4186 52.9357 54.4186C52.8067 54.4186 52.6798 54.4506 52.5662 54.5118ZM28.3285 49.1986L24.4906 48.6405L22.7741 45.1634C22.7091 45.0311 22.6083 44.9197 22.4832 44.8418C22.358 44.7639 22.2136 44.7226 22.0662 44.7226C21.9188 44.7226 21.7743 44.7639 21.6492 44.8418C21.524 44.9197 21.4232 45.0311 21.3582 45.1634L19.6417 48.6405L15.8038 49.1986C15.658 49.2198 15.5211 49.2814 15.4085 49.3764C15.2959 49.4714 15.2121 49.596 15.1666 49.7361C15.121 49.8762 15.1156 50.0263 15.1509 50.1693C15.1862 50.3124 15.2608 50.4427 15.3663 50.5455L18.1426 53.2529L17.4916 57.0745C17.4662 57.2202 17.4822 57.37 17.5378 57.507C17.5934 57.644 17.6864 57.7627 17.8061 57.8494C17.9258 57.9362 18.0674 57.9877 18.2149 57.9979C18.3624 58.0082 18.5098 57.9768 18.6404 57.9074L22.0733 56.1028L25.5054 57.9074C25.6188 57.9668 25.7449 57.998 25.873 57.9983C25.988 57.9982 26.1016 57.9729 26.2058 57.9243C26.3101 57.8758 26.4025 57.805 26.4766 57.7171C26.5507 57.6291 26.6047 57.5261 26.6349 57.4151C26.665 57.3041 26.6706 57.1879 26.6513 57.0745L25.9955 53.2529L28.7718 50.5455C28.8773 50.4427 28.9519 50.3124 28.9871 50.1693C29.0224 50.0263 29.017 49.8762 28.9715 49.7361C28.926 49.596 28.8422 49.4714 28.7296 49.3764C28.617 49.2814 28.4801 49.2198 28.3343 49.1986H28.3285ZM21.7038 54.5118L19.3153 55.7649L19.77 53.1102C19.7918 52.9841 19.7826 52.8545 19.743 52.7327C19.7035 52.611 19.6349 52.5007 19.5431 52.4114L17.6151 50.5312L20.2793 50.1482C20.4062 50.1297 20.5267 50.0807 20.6304 50.0053C20.7341 49.9299 20.818 49.8305 20.8748 49.7155L22.0666 47.3012L23.2585 49.7155C23.315 49.8306 23.3986 49.9301 23.5022 50.0055C23.6058 50.0809 23.7262 50.1299 23.853 50.1482L26.5182 50.5312L24.5892 52.4114C24.4976 52.5008 24.4291 52.6111 24.3895 52.7328C24.35 52.8546 24.3407 52.9841 24.3623 53.1102L24.818 55.7649L22.4333 54.5118C22.3235 54.4446 22.1973 54.409 22.0686 54.409C21.9398 54.409 21.8136 54.4446 21.7038 54.5118Z" fill="#2D060F"/>
<path d="M42.9814 35.2149C42.8774 35.222 42.7759 35.2497 42.6826 35.2963C42.5894 35.3428 42.5063 35.4074 42.4381 35.4863C42.37 35.5651 42.3181 35.6567 42.2855 35.7557C42.2528 35.8547 42.2402 35.9591 42.2481 36.0631L42.8034 43.9687C42.8172 44.1681 42.906 44.3548 43.0521 44.4912C43.1981 44.6277 43.3904 44.7037 43.5903 44.7039H43.6468C43.8556 44.689 44.05 44.5918 44.1873 44.4336C44.3246 44.2755 44.3936 44.0694 44.3791 43.8605L43.8239 35.9539C43.8172 35.8501 43.7901 35.7485 43.7441 35.6551C43.6981 35.5617 43.6342 35.4783 43.5559 35.4097C43.4777 35.341 43.3866 35.2885 43.2881 35.2551C43.1895 35.2216 43.0853 35.208 42.9814 35.2149ZM42.4434 51.8475L46.2421 48.1446C46.3476 48.0417 46.4222 47.9114 46.4574 47.7684C46.4927 47.6253 46.4873 47.4753 46.4418 47.3352C46.3963 47.195 46.3125 47.0704 46.1999 46.9754C46.0873 46.8804 45.9504 46.8188 45.8046 46.7976L40.5555 46.0317L38.2082 41.2786C38.143 41.1463 38.0421 41.035 37.9169 40.9571C37.7917 40.8792 37.6472 40.838 37.4998 40.838C37.3523 40.838 37.2078 40.8792 37.0826 40.9571C36.9574 41.035 36.8565 41.1463 36.7913 41.2786L34.444 46.0346L29.1949 46.8005C29.0491 46.8217 28.9122 46.8833 28.7996 46.9783C28.687 47.0733 28.6032 47.1979 28.5577 47.338C28.5122 47.4781 28.5068 47.6282 28.5421 47.7712C28.5774 47.9143 28.6519 48.0446 28.7574 48.1474L32.5561 51.8504L31.66 57.0745C31.6347 57.2202 31.6507 57.37 31.7063 57.507C31.7619 57.644 31.8548 57.7627 31.9745 57.8494C32.0942 57.9362 32.2359 57.9877 32.3834 57.9979C32.5309 58.0082 32.6783 57.9768 32.8088 57.9074L37.4998 55.4394L42.1907 57.9074C42.3041 57.9668 42.4302 57.998 42.5583 57.9983C42.6733 57.9982 42.7869 57.9729 42.8911 57.9243C42.9954 57.8758 43.0878 57.805 43.1619 57.7171C43.236 57.6291 43.29 57.5261 43.3202 57.4151C43.3503 57.3041 43.3559 57.1879 43.3366 57.0745L42.4434 51.8475ZM37.1321 53.8483C36.215 54.3155 33.4866 55.763 33.4866 55.763L34.1826 51.703C34.2042 51.5768 34.1949 51.4473 34.1554 51.3255C34.1159 51.2038 34.0473 51.0935 33.9557 51.0041L31.0062 48.1321L35.0825 47.5395C35.2091 47.521 35.3294 47.4721 35.4329 47.3969C35.5365 47.3217 35.6202 47.2225 35.677 47.1078L37.4959 43.4134L39.3148 47.1078C39.3716 47.2225 39.4554 47.3217 39.5589 47.3969C39.6625 47.4721 39.7827 47.521 39.9093 47.5395L43.9857 48.1321L41.0361 51.0041C40.9445 51.0935 40.876 51.2038 40.8365 51.3255C40.7969 51.4473 40.7876 51.5768 40.8092 51.703L41.5052 55.763C41.5052 55.763 38.7768 54.3136 37.8597 53.8483C37.7479 53.788 37.6229 53.7564 37.4959 53.7564C37.3689 53.7564 37.2439 53.788 37.1321 53.8483ZM59.1957 49.1986L55.3578 48.6405L53.6413 45.1634C53.5763 45.0311 53.4755 44.9197 53.3503 44.8418C53.2252 44.7639 53.0807 44.7226 52.9333 44.7226C52.7859 44.7226 52.6415 44.7639 52.5163 44.8418C52.3912 44.9197 52.2904 45.0311 52.2254 45.1634L50.5089 48.6405L46.671 49.1986C46.5252 49.2198 46.3882 49.2814 46.2756 49.3764C46.163 49.4714 46.0792 49.596 46.0337 49.7361C45.9882 49.8762 45.9828 50.0263 46.0181 50.1693C46.0534 50.3124 46.128 50.4427 46.2335 50.5455L49.0097 53.2529L48.3539 57.0745C48.3286 57.2202 48.3446 57.37 48.4002 57.507C48.4558 57.644 48.5488 57.7627 48.6685 57.8494C48.7882 57.9362 48.9298 57.9877 49.0773 57.9979C49.2248 58.0082 49.3722 57.9768 49.5027 57.9074L52.9348 56.1028L56.3678 57.9074C56.4812 57.9668 56.6073 57.998 56.7354 57.9983C56.8504 57.9982 56.964 57.9729 57.0682 57.9243C57.1724 57.8758 57.2648 57.805 57.3389 57.7171C57.413 57.6291 57.4671 57.5261 57.4972 57.4151C57.5274 57.3041 57.533 57.1879 57.5137 57.0745L56.8579 53.2529L59.6342 50.5455C59.7396 50.4427 59.8142 50.3124 59.8495 50.1693C59.8848 50.0263 59.8794 49.8762 59.8339 49.7361C59.7884 49.596 59.7046 49.4714 59.592 49.3764C59.4794 49.2814 59.3424 49.2198 59.1967 49.1986H59.1957ZM52.5662 54.5118C51.964 54.8143 50.1815 55.7649 50.1815 55.7649L50.6372 53.1102C50.6588 52.9841 50.6495 52.8546 50.61 52.7328C50.5704 52.6111 50.5019 52.5008 50.4103 52.4114L48.4813 50.5312L51.1465 50.1482C51.2733 50.1299 51.3937 50.0809 51.4973 50.0055C51.6009 49.9301 51.6845 49.8306 51.741 49.7155L52.9329 47.3012L54.1247 49.7155C54.1815 49.8305 54.2654 49.9299 54.3691 50.0053C54.4728 50.0807 54.5933 50.1297 54.7202 50.1482L57.3844 50.5312L55.4564 52.4114C55.3646 52.5007 55.296 52.611 55.2565 52.7327C55.2169 52.8545 55.2077 52.9841 55.2295 53.1102L55.689 55.7649C55.689 55.7649 53.9074 54.8143 53.3053 54.5118C53.1917 54.4506 53.0647 54.4186 52.9357 54.4186C52.8067 54.4186 52.6798 54.4506 52.5662 54.5118ZM28.3285 49.1986L24.4906 48.6405L22.7741 45.1634C22.7091 45.0311 22.6083 44.9197 22.4832 44.8418C22.358 44.7639 22.2136 44.7226 22.0662 44.7226C21.9188 44.7226 21.7743 44.7639 21.6492 44.8418C21.524 44.9197 21.4232 45.0311 21.3582 45.1634L19.6417 48.6405L15.8038 49.1986C15.658 49.2198 15.5211 49.2814 15.4085 49.3764C15.2959 49.4714 15.2121 49.596 15.1666 49.7361C15.121 49.8762 15.1156 50.0263 15.1509 50.1693C15.1862 50.3124 15.2608 50.4427 15.3663 50.5455L18.1426 53.2529L17.4916 57.0745C17.4662 57.2202 17.4822 57.37 17.5378 57.507C17.5934 57.644 17.6864 57.7627 17.8061 57.8494C17.9258 57.9362 18.0674 57.9877 18.2149 57.9979C18.3624 58.0082 18.5098 57.9768 18.6404 57.9074L22.0733 56.1028L25.5054 57.9074C25.6188 57.9668 25.7449 57.998 25.873 57.9983C25.988 57.9982 26.1016 57.9729 26.2058 57.9243C26.3101 57.8758 26.4025 57.805 26.4766 57.7171C26.5507 57.6291 26.6047 57.5261 26.6349 57.4151C26.665 57.3041 26.6706 57.1879 26.6513 57.0745L25.9955 53.2529L28.7718 50.5455C28.8773 50.4427 28.9519 50.3124 28.9871 50.1693C29.0224 50.0263 29.017 49.8762 28.9715 49.7361C28.926 49.596 28.8422 49.4714 28.7296 49.3764C28.617 49.2814 28.4801 49.2198 28.3343 49.1986H28.3285ZM21.7038 54.5118L19.3153 55.7649L19.77 53.1102C19.7918 52.9841 19.7826 52.8545 19.743 52.7327C19.7035 52.611 19.6349 52.5007 19.5431 52.4114L17.6151 50.5312L20.2793 50.1482C20.4062 50.1297 20.5267 50.0807 20.6304 50.0053C20.7341 49.9299 20.818 49.8305 20.8748 49.7155L22.0666 47.3012L23.2585 49.7155C23.315 49.8306 23.3986 49.9301 23.5022 50.0055C23.6058 50.0809 23.7262 50.1299 23.853 50.1482L26.5182 50.5312L24.5892 52.4114C24.4976 52.5008 24.4291 52.6111 24.3895 52.7328C24.35 52.8546 24.3407 52.9841 24.3623 53.1102L24.818 55.7649L22.4333 54.5118C22.3235 54.4446 22.1973 54.409 22.0686 54.409C21.9398 54.409 21.8136 54.4446 21.7038 54.5118Z" stroke="#2D060F" stroke-width="0.4" mask="url(#path-4-outside-1_236_102)"/>
</svg>
