<svg width="95" height="70" viewBox="0 0 95 70" fill="none" xmlns="http://www.w3.org/2000/svg">
<path d="M89.5701 33.9346H56.5578C56.2732 33.9347 55.9952 33.848 55.7601 33.6857C55.5251 33.5235 55.3439 33.2933 55.2402 33.0252C55.1375 32.7569 55.1171 32.4634 55.1819 32.1831C55.2467 31.9029 55.3936 31.649 55.6034 31.4545L63.2503 24.3708V14.7895C63.2503 11.7602 65.6851 9.29758 68.6838 9.29758H89.5701C92.5652 9.29758 95 11.7602 95 14.7895V28.4426C95 31.472 92.5652 33.9346 89.5701 33.9346ZM60.1928 31.0766H89.5698C91.0051 31.0766 92.174 29.8943 92.174 28.439V14.7895C92.174 13.3343 91.0051 12.1519 89.5698 12.1519H68.6835C67.2447 12.1519 66.0757 13.3343 66.0757 14.7895V25.0006C66.0759 25.1985 66.0354 25.3944 65.9569 25.5756C65.8783 25.7569 65.7633 25.9197 65.6192 26.0536L60.1928 31.0766ZM46.8532 8.25504H43.6195C42.8378 8.25504 42.2083 7.61503 42.2083 6.82772C42.2083 6.0404 42.8411 5.40039 43.6195 5.40039H46.8532C47.6349 5.40039 48.2645 6.0404 48.2645 6.82772C48.2645 7.61503 47.6314 8.25504 46.8532 8.25504ZM84.3961 69.9996H6.07667C2.72521 69.9996 0 67.2432 0 63.8535V60.936C-0.000116945 60.7485 0.0363049 60.5628 0.107183 60.3896C0.178061 60.2164 0.282005 60.059 0.413071 59.9264C0.544136 59.7939 0.699753 59.6887 0.871021 59.6171C1.04229 59.5454 1.22585 59.5085 1.4112 59.5086H42.0493C42.2346 59.5085 42.4182 59.5454 42.5895 59.6171C42.7607 59.6887 42.9163 59.7939 43.0474 59.9264C43.1785 60.059 43.2824 60.2164 43.3533 60.3896C43.4242 60.5628 43.4606 60.7485 43.4605 60.936C43.4606 61.1234 43.4242 61.3091 43.3533 61.4823C43.2824 61.6555 43.1785 61.8129 43.0474 61.9455C42.9163 62.0781 42.7607 62.1832 42.5895 62.2549C42.4182 62.3266 42.2346 62.3634 42.0493 62.3633H2.82211V63.8498C2.82211 65.6653 4.28176 67.1416 6.07667 67.1416H84.3958C86.1907 67.1416 87.6503 65.6653 87.6503 63.8498V62.3633H48.4267C48.2414 62.3634 48.0578 62.3266 47.8866 62.2549C47.7153 62.1832 47.5597 62.0781 47.4286 61.9455C47.2975 61.8129 47.1936 61.6555 47.1227 61.4823C47.0518 61.3091 47.0154 61.1234 47.0155 60.936C47.0154 60.7485 47.0518 60.5628 47.1227 60.3896C47.1936 60.2164 47.2975 60.059 47.4286 59.9264C47.5597 59.7939 47.7153 59.6887 47.8866 59.6171C48.0578 59.5454 48.2414 59.5085 48.4267 59.5086H89.0651C89.2505 59.5085 89.434 59.5454 89.6053 59.6171C89.7766 59.6887 89.9322 59.7939 90.0632 59.9264C90.1943 60.059 90.2982 60.2164 90.3691 60.3896C90.44 60.5628 90.4764 60.7485 90.4763 60.936V63.8535C90.476 67.2432 87.7472 69.9996 84.3961 69.9996Z" fill="#FFF8FA"/>
<path d="M89.5701 33.9346H56.5578C56.2732 33.9347 55.9952 33.848 55.7601 33.6857C55.5251 33.5235 55.3439 33.2933 55.2402 33.0252C55.1375 32.7569 55.1171 32.4634 55.1819 32.1831C55.2467 31.9029 55.3936 31.649 55.6034 31.4545L63.2503 24.3708V14.7895C63.2503 11.7602 65.6851 9.29758 68.6838 9.29758H89.5701C92.5652 9.29758 95 11.7602 95 14.7895V28.4426C95 31.472 92.5652 33.9346 89.5701 33.9346ZM60.1928 31.0766H89.5698C91.0051 31.0766 92.174 29.8943 92.174 28.439V14.7895C92.174 13.3343 91.0051 12.1519 89.5698 12.1519H68.6835C67.2447 12.1519 66.0757 13.3343 66.0757 14.7895V25.0006C66.0759 25.1985 66.0354 25.3944 65.9569 25.5756C65.8783 25.7569 65.7633 25.9197 65.6192 26.0536L60.1928 31.0766ZM46.8532 8.25504H43.6195C42.8378 8.25504 42.2083 7.61503 42.2083 6.82772C42.2083 6.0404 42.8411 5.40039 43.6195 5.40039H46.8532C47.6349 5.40039 48.2645 6.0404 48.2645 6.82772C48.2645 7.61503 47.6314 8.25504 46.8532 8.25504ZM84.3961 69.9996H6.07667C2.72521 69.9996 0 67.2432 0 63.8535V60.936C-0.000116945 60.7485 0.0363049 60.5628 0.107183 60.3896C0.178061 60.2164 0.282005 60.059 0.413071 59.9264C0.544136 59.7939 0.699753 59.6887 0.871021 59.6171C1.04229 59.5454 1.22585 59.5085 1.4112 59.5086H42.0493C42.2346 59.5085 42.4182 59.5454 42.5895 59.6171C42.7607 59.6887 42.9163 59.7939 43.0474 59.9264C43.1785 60.059 43.2824 60.2164 43.3533 60.3896C43.4242 60.5628 43.4606 60.7485 43.4605 60.936C43.4606 61.1234 43.4242 61.3091 43.3533 61.4823C43.2824 61.6555 43.1785 61.8129 43.0474 61.9455C42.9163 62.0781 42.7607 62.1832 42.5895 62.2549C42.4182 62.3266 42.2346 62.3634 42.0493 62.3633H2.82211V63.8498C2.82211 65.6653 4.28176 67.1416 6.07667 67.1416H84.3958C86.1907 67.1416 87.6503 65.6653 87.6503 63.8498V62.3633H48.4267C48.2414 62.3634 48.0578 62.3266 47.8866 62.2549C47.7153 62.1832 47.5597 62.0781 47.4286 61.9455C47.2975 61.8129 47.1936 61.6555 47.1227 61.4823C47.0518 61.3091 47.0154 61.1234 47.0155 60.936C47.0154 60.7485 47.0518 60.5628 47.1227 60.3896C47.1936 60.2164 47.2975 60.059 47.4286 59.9264C47.5597 59.7939 47.7153 59.6887 47.8866 59.6171C48.0578 59.5454 48.2414 59.5085 48.4267 59.5086H89.0651C89.2505 59.5085 89.434 59.5454 89.6053 59.6171C89.7766 59.6887 89.9322 59.7939 90.0632 59.9264C90.1943 60.059 90.2982 60.2164 90.3691 60.3896C90.44 60.5628 90.4764 60.7485 90.4763 60.936V63.8535C90.476 67.2432 87.7472 69.9996 84.3961 69.9996Z" stroke="#FFF8FA"/>
<path d="M42.046 62.3638H6.14265C5.95729 62.3639 5.77373 62.3271 5.60247 62.2554C5.4312 62.1837 5.27558 62.0786 5.14452 61.946C5.01345 61.8134 4.90951 61.656 4.83863 61.4828C4.76775 61.3096 4.73133 61.1239 4.73145 60.9365V6.14971C4.73145 2.75996 7.45666 0 10.8081 0H79.6646C83.0161 0 85.7413 2.75635 85.7413 6.14971V10.7251C85.7414 10.9126 85.705 11.0982 85.6341 11.2714C85.5632 11.4447 85.4593 11.6021 85.3282 11.7346C85.1971 11.8672 85.0415 11.9723 84.8703 12.044C84.699 12.1157 84.5154 12.1525 84.3301 12.1524C83.9559 12.152 83.5972 12.0015 83.3326 11.7339C83.0681 11.4663 82.9193 11.1035 82.9189 10.7251V6.14971C82.9189 4.33429 81.4592 2.85796 79.6643 2.85796H10.8084C9.0135 2.85796 7.55385 4.33429 7.55385 6.14971V59.5094H42.046C42.2314 59.5093 42.4149 59.5462 42.5862 59.6178C42.7575 59.6895 42.9131 59.7947 43.0441 59.9272C43.1752 60.0598 43.2791 60.2172 43.35 60.3904C43.4209 60.5636 43.4573 60.7493 43.4572 60.9368C43.4573 61.1242 43.4208 61.3098 43.3499 61.483C43.279 61.6562 43.1751 61.8136 43.044 61.9461C42.913 62.0786 42.7574 62.1837 42.5861 62.2554C42.4149 62.3271 42.2313 62.3639 42.046 62.3638ZM84.3304 62.3638H48.427C47.6453 62.3638 47.0158 61.7238 47.0158 60.9365C47.0158 60.1491 47.6486 59.5091 48.427 59.5091H82.9192V32.5075C82.9191 32.32 82.9555 32.1343 83.0264 31.9611C83.0972 31.7879 83.2012 31.6305 83.3323 31.4979C83.4633 31.3654 83.6189 31.2602 83.7902 31.1885C83.9615 31.1168 84.145 31.08 84.3304 31.0801C84.7045 31.0805 85.0632 31.231 85.3278 31.4986C85.5924 31.7662 85.7412 32.129 85.7416 32.5075V60.9365C85.7413 61.3149 85.5925 61.6778 85.3279 61.9454C85.0633 62.213 84.7046 62.3635 84.3304 62.3638Z" fill="#FFF8FA"/>
<path d="M42.046 62.3638H6.14265C5.95729 62.3639 5.77373 62.3271 5.60247 62.2554C5.4312 62.1837 5.27558 62.0786 5.14452 61.946C5.01345 61.8134 4.90951 61.656 4.83863 61.4828C4.76775 61.3096 4.73133 61.1239 4.73145 60.9365V6.14971C4.73145 2.75996 7.45666 0 10.8081 0H79.6646C83.0161 0 85.7413 2.75635 85.7413 6.14971V10.7251C85.7414 10.9126 85.705 11.0982 85.6341 11.2714C85.5632 11.4447 85.4593 11.6021 85.3282 11.7346C85.1971 11.8672 85.0415 11.9723 84.8703 12.044C84.699 12.1157 84.5154 12.1525 84.3301 12.1524C83.9559 12.152 83.5972 12.0015 83.3326 11.7339C83.0681 11.4663 82.9193 11.1035 82.9189 10.7251V6.14971C82.9189 4.33429 81.4592 2.85796 79.6643 2.85796H10.8084C9.0135 2.85796 7.55385 4.33429 7.55385 6.14971V59.5094H42.046C42.2314 59.5093 42.4149 59.5462 42.5862 59.6178C42.7575 59.6895 42.9131 59.7947 43.0441 59.9272C43.1752 60.0598 43.2791 60.2172 43.35 60.3904C43.4209 60.5636 43.4573 60.7493 43.4572 60.9368C43.4573 61.1242 43.4208 61.3098 43.3499 61.483C43.279 61.6562 43.1751 61.8136 43.044 61.9461C42.913 62.0786 42.7574 62.1837 42.5861 62.2554C42.4149 62.3271 42.2313 62.3639 42.046 62.3638ZM84.3304 62.3638H48.427C47.6453 62.3638 47.0158 61.7238 47.0158 60.9365C47.0158 60.1491 47.6486 59.5091 48.427 59.5091H82.9192V32.5075C82.9191 32.32 82.9555 32.1343 83.0264 31.9611C83.0972 31.7879 83.2012 31.6305 83.3323 31.4979C83.4633 31.3654 83.6189 31.2602 83.7902 31.1885C83.9615 31.1168 84.145 31.08 84.3304 31.0801C84.7045 31.0805 85.0632 31.231 85.3278 31.4986C85.5924 31.7662 85.7412 32.129 85.7416 32.5075V60.9365C85.7413 61.3149 85.5925 61.6778 85.3279 61.9454C85.0633 62.213 84.7046 62.3635 84.3304 62.3638Z" stroke="#FFF8FA"/>
<path d="M45.2348 65.589C42.6963 65.589 40.6351 63.5006 40.6351 60.933C40.6351 60.1424 41.2678 59.5057 42.0463 59.5057C42.8247 59.5057 43.4575 60.1457 43.4575 60.933C43.4575 61.923 44.2564 62.731 45.2351 62.731C46.2139 62.731 47.0128 61.9266 47.0128 60.933C47.0127 60.7456 47.0491 60.5599 47.12 60.3867C47.1909 60.2135 47.2948 60.0561 47.4259 59.9235C47.557 59.7909 47.7126 59.6858 47.8838 59.6141C48.0551 59.5424 48.2387 59.5056 48.424 59.5057C48.7982 59.5061 49.1569 59.6566 49.4215 59.9242C49.686 60.1918 49.8348 60.5546 49.8352 60.933C49.8382 63.5006 47.7734 65.589 45.2348 65.589ZM58.827 52.0549C58.6417 52.055 58.4581 52.0182 58.2868 51.9465C58.1156 51.8748 57.96 51.7697 57.8289 51.6371C57.6978 51.5046 57.5939 51.3472 57.523 51.174C57.4521 51.0007 57.4157 50.8151 57.4158 50.6276V44.2855C57.4163 44.1834 57.4012 44.0819 57.371 43.9846C57.3578 43.9407 57.3463 43.8964 57.3365 43.8517C56.9456 41.9698 55.2024 37.5902 47.5279 37.5902H45.5564C45.4459 37.5902 45.3386 37.576 45.2348 37.5517C45.1311 37.576 45.0238 37.5902 44.9132 37.5902H42.9418C35.2673 37.5902 33.5241 41.9698 33.1332 43.8517L33.1327 43.8539C33.1225 43.8986 33.1122 43.9435 33.0987 43.9846C33.0681 44.0818 33.053 44.1834 33.0539 44.2855V50.6276C33.0539 51.4182 32.4211 52.0549 31.6426 52.0549C30.8642 52.0549 30.2314 51.4149 30.2314 50.6276V44.2855C30.2314 43.9181 30.2835 43.5508 30.3872 43.2012C30.778 41.3891 32.5073 36.2714 39.5662 35.0157C38.5616 33.7716 38.0129 32.2144 38.0133 30.608V25.3854C38.0133 21.5339 41.1088 18.4033 44.9165 18.4033H45.5564C49.3644 18.4033 52.4597 21.5342 52.4597 25.3854V30.608C52.4617 32.2147 51.9129 33.7724 50.9067 35.0157C57.9621 36.2714 59.6914 41.3891 60.0858 43.2012C60.188 43.5533 60.2393 43.9185 60.2379 44.2855V50.6276C60.2415 51.4182 59.6087 52.0549 58.827 52.0549ZM44.9165 21.2577C42.6683 21.2577 40.8354 23.1083 40.8354 25.3818V30.6044C40.8354 32.8783 42.6651 34.7286 44.9165 34.7286C45.0271 34.7286 45.1344 34.7427 45.2381 34.7671C45.3418 34.7427 45.4491 34.7286 45.5597 34.7286C47.8079 34.7286 49.6408 32.878 49.6408 30.6044V25.3821C49.6408 23.1083 47.8111 21.258 45.5597 21.258L44.9165 21.2577Z" fill="#FFF8FA"/>
<path d="M45.2348 65.589C42.6963 65.589 40.6351 63.5006 40.6351 60.933C40.6351 60.1424 41.2678 59.5057 42.0463 59.5057C42.8247 59.5057 43.4575 60.1457 43.4575 60.933C43.4575 61.923 44.2564 62.731 45.2351 62.731C46.2139 62.731 47.0128 61.9266 47.0128 60.933C47.0127 60.7456 47.0491 60.5599 47.12 60.3867C47.1909 60.2135 47.2948 60.0561 47.4259 59.9235C47.557 59.7909 47.7126 59.6858 47.8838 59.6141C48.0551 59.5424 48.2387 59.5056 48.424 59.5057C48.7982 59.5061 49.1569 59.6566 49.4215 59.9242C49.686 60.1918 49.8348 60.5546 49.8352 60.933C49.8382 63.5006 47.7734 65.589 45.2348 65.589ZM58.827 52.0549C58.6417 52.055 58.4581 52.0182 58.2868 51.9465C58.1156 51.8748 57.96 51.7697 57.8289 51.6371C57.6978 51.5046 57.5939 51.3472 57.523 51.174C57.4521 51.0007 57.4157 50.8151 57.4158 50.6276V44.2855C57.4163 44.1834 57.4012 44.0819 57.371 43.9846C57.3578 43.9407 57.3463 43.8964 57.3365 43.8517C56.9456 41.9698 55.2024 37.5902 47.5279 37.5902H45.5564C45.4459 37.5902 45.3386 37.576 45.2348 37.5517C45.1311 37.576 45.0238 37.5902 44.9132 37.5902H42.9418C35.2673 37.5902 33.5241 41.9698 33.1332 43.8517L33.1327 43.8539C33.1225 43.8986 33.1122 43.9435 33.0987 43.9846C33.0681 44.0818 33.053 44.1834 33.0539 44.2855V50.6276C33.0539 51.4182 32.4211 52.0549 31.6426 52.0549C30.8642 52.0549 30.2314 51.4149 30.2314 50.6276V44.2855C30.2314 43.9181 30.2835 43.5508 30.3872 43.2012C30.778 41.3891 32.5073 36.2714 39.5662 35.0157C38.5616 33.7716 38.0129 32.2144 38.0133 30.608V25.3854C38.0133 21.5339 41.1088 18.4033 44.9165 18.4033H45.5564C49.3644 18.4033 52.4597 21.5342 52.4597 25.3854V30.608C52.4617 32.2147 51.9129 33.7724 50.9067 35.0157C57.9621 36.2714 59.6914 41.3891 60.0858 43.2012C60.188 43.5533 60.2393 43.9185 60.2379 44.2855V50.6276C60.2415 51.4182 59.6087 52.0549 58.827 52.0549ZM44.9165 21.2577C42.6683 21.2577 40.8354 23.1083 40.8354 25.3818V30.6044C40.8354 32.8783 42.6651 34.7286 44.9165 34.7286C45.0271 34.7286 45.1344 34.7427 45.2381 34.7671C45.3418 34.7427 45.4491 34.7286 45.5597 34.7286C47.8079 34.7286 49.6408 32.878 49.6408 30.6044V25.3821C49.6408 23.1083 47.8111 21.258 45.5597 21.258L44.9165 21.2577Z" stroke="#FFF8FA"/>
</svg>
