<svg width="36" height="40" viewBox="0 0 36 40" fill="none" xmlns="http://www.w3.org/2000/svg">
<path d="M36 24.9713V22.4467H24.0655C24.0655 25.7134 21.3499 28.3617 18 28.3617C14.6501 28.3617 11.9345 25.7135 11.9345 22.4467H0V24.9713L5.18236 25.5065C5.50136 26.7809 6.01953 27.9999 6.7187 29.1207L3.44142 33.0736L7.10268 36.644L11.1562 33.448C12.3055 34.1299 13.5555 34.6352 14.8624 34.9463L15.4111 40H20.5889L21.1376 34.9463C22.4445 34.6352 23.6945 34.1299 24.8438 33.448L28.8973 36.644L32.5586 33.0736L29.2813 29.1207C29.9805 27.9999 30.4986 26.7809 30.8176 25.5065L36 24.9713ZM18 0C15.4365 0 13.3508 2.03391 13.3508 4.53383C13.3508 7.03375 15.4365 9.06758 18 9.06758C20.5635 9.06758 22.6492 7.03375 22.6492 4.53383C22.6492 2.03391 20.5635 0 18 0ZM22.95 10.321H13.05C10.7709 10.3211 8.91668 12.1292 8.91668 14.3518V20.1029H27.0833V14.3518C27.0833 12.1292 25.2291 10.321 22.95 10.321ZM8.13702 2.09438C5.84049 2.09438 3.97217 3.91641 3.97217 6.15586C3.97217 8.37734 5.81085 10.187 8.08198 10.2159C9.02251 9.14313 10.3203 8.37742 11.7947 8.09656C12.1282 7.50148 12.3027 6.83404 12.3019 6.15586C12.3019 3.91633 10.4335 2.09438 8.13702 2.09438ZM3.70275 11.3402C1.66107 11.3402 0 12.9599 0 14.951V20.103H6.51329V14.3518C6.51212 13.3006 6.77926 12.2656 7.29062 11.3402H3.70275ZM27.863 2.09438C25.5665 2.09438 23.6981 3.91641 23.6981 6.15586C23.6973 6.83403 23.8717 7.50147 24.2052 8.09656C25.6797 8.37742 26.9775 9.14313 27.918 10.2159C30.1891 10.187 32.0278 8.37734 32.0278 6.15586C32.0278 3.91633 30.1595 2.09438 27.863 2.09438ZM32.2972 11.3402H28.7094C29.2207 12.2656 29.4879 13.3006 29.4867 14.3518V20.1029H36V14.9509C36 12.9599 34.3389 11.3402 32.2972 11.3402Z" fill="#DF1E4B"/>
</svg>
