<svg width="27" height="40" viewBox="0 0 27 40" fill="none" xmlns="http://www.w3.org/2000/svg">
<path fill-rule="evenodd" clip-rule="evenodd" d="M0.00106359 20.0011C0.00106359 18.4192 0.636324 16.9021 1.7671 15.7835C2.89787 14.6649 4.43153 14.0365 6.03068 14.0365H12.0624V25.9656H6.03068C4.43153 25.9656 2.89787 25.3372 1.7671 24.2186C0.636324 23.1 0.00106359 21.5829 0.00106359 20.0011ZM6.03068 11.9312H12.0624V0H6.03068C4.43124 2.35762e-08 2.89732 0.628514 1.76634 1.74728C0.635373 2.86604 0 4.38341 0 5.96558C0 7.54775 0.635373 9.06511 1.76634 10.1839C2.89732 11.3026 4.43124 11.9312 6.03068 11.9312ZM26.25 5.96452C26.2503 6.74797 26.0945 7.5238 25.7916 8.2477C25.4887 8.97159 25.0446 9.62936 24.4847 10.1834C23.9248 10.7375 23.26 11.1771 22.5283 11.4769C21.7966 11.7768 21.0124 11.9312 20.2204 11.9312H14.1908V0H20.2204C21.8195 0 23.3532 0.628404 24.484 1.74697C25.6147 2.86553 26.25 4.38263 26.25 5.96452ZM14.1908 20.0011C14.1908 18.4192 14.826 16.9021 15.9568 15.7835C17.0876 14.6649 18.6212 14.0365 20.2204 14.0365C21.8195 14.0365 23.3532 14.6649 24.484 15.7835C25.6147 16.9021 26.25 18.4192 26.25 20.0011C26.25 21.5829 25.6147 23.1 24.484 24.2186C23.3532 25.3372 21.8195 25.9656 20.2204 25.9656C18.6212 25.9656 17.0876 25.3372 15.9568 24.2186C14.826 23.1 14.1908 21.5829 14.1908 20.0011ZM6.03068 28.071H12.0624V34.0376C12.062 35.2171 11.7081 36.37 11.0454 37.3505C10.3827 38.331 9.44094 39.0952 8.33926 39.5464C7.23758 39.9976 6.0254 40.1155 4.85597 39.8853C3.68653 39.6551 2.61235 39.0871 1.76923 38.253C0.926097 37.419 0.351875 36.3564 0.119154 35.1996C-0.113568 34.0428 0.00565917 32.8437 0.461763 31.7539C0.917866 30.6641 1.69037 29.7326 2.68161 29.077C3.67284 28.4215 4.83831 28.0714 6.03068 28.071Z" fill="#DF1E4B"/>
</svg>
