<svg width="63" height="40" viewBox="0 0 63 40" fill="none" xmlns="http://www.w3.org/2000/svg">
<path fill-rule="evenodd" clip-rule="evenodd" d="M3.09626 36.961C2.28408 37.6197 1.08905 37.4987 0.426895 36.6909C-0.235262 35.883 -0.113724 34.6939 0.698451 34.0353L6.62033 29.0712L8.41373 23.6085C9.4153 24.2156 10.6955 24.5275 12.2109 24.5642L9.85879 31.2981L3.09626 36.961ZM11.672 0C13.2473 0 14.5243 1.27054 14.5243 2.83775C14.5243 4.4051 13.2473 5.67563 11.672 5.67563C10.0967 5.67563 8.81955 4.4051 8.81955 2.83775C8.81968 1.27054 10.0967 0 11.672 0ZM13.2277 8.31125C12.6696 7.98611 11.9853 7.89966 11.3004 7.89966C8.76942 7.89966 7.76391 9.95994 7.76391 12.478V18.3647C7.76391 21.6104 9.43065 22.74 12.5179 22.74H13.1861L18.1258 28.2151L19.486 35.7994C19.6533 36.8285 20.6276 37.5277 21.6619 37.3611C22.6962 37.1946 23.3991 36.2253 23.2317 35.1962L21.6835 26.5383L15.9023 19.8837V13.8131L17.5445 14.7419L24.3835 14.7126C25.3203 14.6945 26.065 13.9243 26.0469 12.9923C26.0288 12.0603 25.2546 11.3193 24.3178 11.3373L18.4584 11.3595L13.2277 8.31125ZM41.1348 18.5075V25.2364C41.1348 25.3803 41.0169 25.4976 40.8723 25.4976H34.1088C33.9642 25.4976 33.8463 25.6148 33.8463 25.7587V32.4876C33.8463 32.6315 33.7285 32.7488 33.5838 32.7488H26.8204C26.6757 32.7488 26.5579 32.8661 26.5579 33.01V39.7388C26.5579 39.8827 26.6757 40 26.8204 40H62.7375C62.8821 40 63 39.8827 63 39.7388V4.00513C63 3.86123 62.8821 3.74397 62.7375 3.74397H55.9741C55.8294 3.74397 55.7115 3.86123 55.7115 4.00513V10.734C55.7115 10.8779 55.5937 10.9952 55.449 10.9952H48.6856C48.541 10.9952 48.4231 11.1124 48.4231 11.2563V17.9852C48.4231 18.1291 48.3052 18.2464 48.1606 18.2464H41.3972C41.3276 18.2465 41.2609 18.2741 41.2117 18.323C41.1626 18.372 41.1349 18.4383 41.1348 18.5075Z" fill="#DF1E4B"/>
</svg>
