<svg width="37" height="40" viewBox="0 0 37 40" fill="none" xmlns="http://www.w3.org/2000/svg">
<path d="M7.38746 14.6772C9.00752 14.6772 10.3208 13.4603 10.3208 11.9592C10.3208 10.4581 9.00752 9.24121 7.38746 9.24121C5.76741 9.24121 4.4541 10.4581 4.4541 11.9592C4.4541 13.4603 5.76741 14.6772 7.38746 14.6772Z" fill="#DF1E4B"/>
<path d="M25.3338 5.436C26.9538 5.436 28.2671 4.21911 28.2671 2.718C28.2671 1.21689 26.9538 0 25.3338 0C23.7137 0 22.4004 1.21689 22.4004 2.718C22.4004 4.21911 23.7137 5.436 25.3338 5.436Z" fill="#DF1E4B"/>
<path d="M36.3982 29.6646H35.0581C35.089 29.6548 35.1199 29.6458 35.1506 29.6342C35.9832 29.3163 36.3802 28.4331 36.0371 27.6615L33.2026 21.2868L32.9882 16.5388C32.9797 16.3554 32.9349 16.1751 32.8563 16.0067L30.7389 7.20937C30.5007 6.2196 29.4417 5.59617 28.3735 5.81687L24.9244 6.5296C23.8562 6.7503 23.1834 7.73163 23.4216 8.72139L23.7303 10.004L25.0718 8.04257L23.6715 11.7855L19.0548 13.6251C18.3929 13.8888 18.0871 14.5998 18.3717 15.2131C18.6563 15.8261 19.4232 16.1099 20.0855 15.8461L25.231 13.7959C25.3976 13.7295 25.5474 13.6317 25.6709 13.5086C25.7944 13.3856 25.8888 13.2401 25.9482 13.0813L27.5371 8.83475L27.0268 13.4277C26.922 14.3706 26.0598 14.6172 25.6819 14.7675L24.9473 15.0603L25.3781 16.8501L23.9648 20.4203C23.9243 20.5226 23.8959 20.6287 23.8799 20.7368L22.808 28.0334C22.7014 28.7591 23.17 29.4342 23.8894 29.6647H22.5209C22.3613 29.6647 22.2082 29.7235 22.0953 29.8281C21.9824 29.9326 21.919 30.0745 21.919 30.2224V34.8323H15.3998C15.9109 34.5233 16.2141 33.9613 16.1263 33.3637L15.0543 26.067C15.0076 25.7492 14.853 25.4534 14.6128 25.2225C14.3727 24.9915 14.0594 24.8373 13.7184 24.7823L10.6648 24.2893V21.723L6.81971 18.8193L11.1818 20.7852C11.3449 20.8587 11.5227 20.8999 11.7039 20.9061C11.8851 20.9124 12.0657 20.8835 12.2342 20.8214L17.4393 18.9049C18.1088 18.6583 18.4359 17.9556 18.1699 17.335C17.9038 16.7147 17.1452 16.4116 16.4756 16.6581L11.8055 18.3778L7.961 16.645L10.6492 17.2062C10.5286 16.2991 9.69468 15.5968 8.68315 15.5968H5.14934C4.05494 15.5968 3.16777 16.4189 3.16777 17.4329V26.8535H3.16954L2.958 31.5383L0.123413 37.913C-0.219749 38.6846 0.17729 39.5678 1.00999 39.8857C1.84335 40.2037 2.79611 39.8354 3.13902 39.0642L6.08313 32.4433C6.1556 32.2804 6.19672 32.1069 6.20463 31.9309L6.43102 26.9167C6.43194 26.8954 6.43043 26.8746 6.43043 26.8536H7.775C8.00847 26.9422 7.78933 26.8926 11.9835 27.5699L12.8946 33.7714C12.961 34.224 13.2383 34.6011 13.6211 34.8325H7.43976C7.28013 34.8325 7.12704 34.8913 7.01416 34.9959C6.90128 35.1005 6.83786 35.2423 6.83784 35.3902V39.4426C6.83784 39.5158 6.85341 39.5883 6.88366 39.656C6.91391 39.7236 6.95825 39.7851 7.01414 39.8369C7.07004 39.8887 7.13639 39.9298 7.20942 39.9578C7.28245 39.9858 7.36072 40.0002 7.43976 40.0002H36.3981C36.4771 40.0002 36.5554 39.9858 36.6284 39.9578C36.7014 39.9298 36.7678 39.8887 36.8237 39.8369C36.8796 39.7851 36.9239 39.7236 36.9542 39.656C36.9844 39.5883 37 39.5158 37 39.4426V30.2226C37 30.1493 36.9845 30.0768 36.9543 30.0091C36.9241 29.9414 36.8797 29.8799 36.8238 29.8281C36.768 29.7762 36.7016 29.7351 36.6286 29.7071C36.5555 29.6791 36.4772 29.6646 36.3982 29.6646ZM24.955 29.6645C25.5178 29.4841 25.9538 29.0249 26.0396 28.4408L27.0876 21.3067L28.6787 17.2869L29.7476 17.0661L29.9559 21.6792C29.9638 21.8553 30.0049 22.0287 30.0774 22.1917L33.0214 28.8126C33.2068 29.2298 33.5711 29.528 33.9978 29.6645H24.955Z" fill="#DF1E4B"/>
</svg>
