<svg width="45" height="40" viewBox="0 0 45 40" fill="none" xmlns="http://www.w3.org/2000/svg">
<path d="M17.1387 17.6991C21.9927 17.6991 25.9277 13.737 25.9277 8.84955C25.9277 3.96208 21.9927 0 17.1387 0C12.2846 0 8.34961 3.96208 8.34961 8.84955C8.34961 13.737 12.2846 17.6991 17.1387 17.6991Z" fill="#DF1E4B"/>
<path d="M18.1818 25.6632H16.0944L15.0039 33.8611L17.1381 36.5471L19.2722 33.8611L18.1818 25.6632ZM16.0576 23.0084H18.2185L18.658 20.3535H15.6182L16.0576 23.0084Z" fill="#DF1E4B"/>
<path d="M12.3164 34.0719L13.6085 24.3581L12.9457 20.3543H10.5469C4.72201 20.3543 0 25.1088 0 30.9737V38.6728C0 39.4059 0.590273 40.0003 1.31836 40.0003H16.5051L12.5936 35.0773C12.4823 34.9372 12.4004 34.776 12.3527 34.6032C12.3051 34.4303 12.2927 34.2496 12.3164 34.0719ZM26.1528 20.6375C25.359 20.4492 24.5461 20.3542 23.7305 20.3543H21.3317L20.669 24.3581L21.9611 34.0719C21.9847 34.2496 21.9723 34.4304 21.9247 34.6032C21.877 34.776 21.7951 34.9373 21.6838 35.0774L17.7723 40.0003H24.613C23.7835 38.8902 23.291 37.511 23.291 36.018V26.1065C23.291 23.8398 24.4258 21.8354 26.1528 20.6375ZM41.0449 22.1242H40.2979V19.9118C40.2979 18.2039 38.9179 16.8145 37.2217 16.8145H33.7061C32.0099 16.8145 30.6299 18.2039 30.6299 19.9118V22.1242H29.8828C27.6985 22.1242 25.9277 23.9071 25.9277 26.1065V26.9914H45V26.1065C45 23.9071 43.2293 22.1242 41.0449 22.1242ZM37.6611 22.1242H33.2666V19.9118C33.2666 19.6678 33.4637 19.4693 33.7061 19.4693H37.2217C37.464 19.4693 37.6611 19.6678 37.6611 19.9118V22.1242ZM25.9277 36.018C25.9277 38.2174 27.6985 40.0003 29.8828 40.0003H41.0449C43.2293 40.0003 45 38.2174 45 36.018V29.6463H25.9277V36.018Z" fill="#DF1E4B"/>
</svg>
