<svg width="42" height="40" viewBox="0 0 42 40" fill="none" xmlns="http://www.w3.org/2000/svg">
<path fill-rule="evenodd" clip-rule="evenodd" d="M21.4265 36.7809H29.9528L30.7877 40H20.5915L21.4265 36.7809ZM27.6366 35.41V33.6781L39.5624 33.6782L42 31.4654L39.5624 29.2526H27.6366V20.8878H39.5624L42 18.675L39.5624 16.4622H27.6366V8.09749H39.5624L42 5.88468L39.5624 3.67179H27.6366V1.13014C27.6366 0.507662 27.1278 0 26.5043 0H24.875C24.2514 0 23.7427 0.507748 23.7427 1.13014V10.067H11.8168L9.37924 12.2798L11.8168 14.4926L23.7427 14.4925V35.4099L27.6366 35.41ZM30.2755 19.3604C30.0934 19.3604 29.9187 19.2882 29.7899 19.1596C29.6611 19.0311 29.5888 18.8567 29.5888 18.6749C29.5888 18.4931 29.6611 18.3188 29.7899 18.1903C29.9187 18.0617 30.0934 17.9895 30.2755 17.9895H37.3443C37.5265 17.9895 37.7012 18.0617 37.8299 18.1903C37.9587 18.3188 38.0311 18.4931 38.0311 18.6749C38.0311 18.8567 37.9587 19.0311 37.8299 19.1596C37.7012 19.2882 37.5265 19.3604 37.3443 19.3604H30.2755ZM21.1037 11.5943C21.2858 11.5943 21.4605 11.6665 21.5893 11.7951C21.7181 11.9236 21.7905 12.098 21.7905 12.2798C21.7905 12.4616 21.7181 12.6359 21.5893 12.7645C21.4605 12.893 21.2858 12.9652 21.1037 12.9652H14.0349C13.8528 12.9652 13.6781 12.893 13.5493 12.7645C13.4205 12.6359 13.3481 12.4616 13.3481 12.2798C13.3481 12.098 13.4205 11.9236 13.5493 11.7951C13.6781 11.6665 13.8528 11.5943 14.0349 11.5943H21.1037ZM30.2755 6.57005C30.0934 6.57005 29.9187 6.49783 29.7899 6.36928C29.6611 6.24074 29.5888 6.06639 29.5888 5.8846C29.5888 5.7028 29.6611 5.52846 29.7899 5.39991C29.9187 5.27136 30.0934 5.19915 30.2755 5.19915H37.3443C37.5265 5.19915 37.7012 5.27136 37.8299 5.39991C37.9587 5.52846 38.0311 5.7028 38.0311 5.8846C38.0311 6.06639 37.9587 6.24074 37.8299 6.36928C37.7012 6.49783 37.5265 6.57005 37.3443 6.57005H30.2755ZM30.2755 32.1507C30.0934 32.1507 29.9187 32.0785 29.7899 31.95C29.6611 31.8214 29.5888 31.6471 29.5888 31.4653C29.5888 31.2835 29.6611 31.1091 29.7899 30.9806C29.9187 30.852 30.0934 30.7798 30.2755 30.7798H37.3443C37.5265 30.7798 37.7012 30.852 37.8299 30.9806C37.9587 31.1091 38.0311 31.2835 38.0311 31.4653C38.0311 31.6471 37.9587 31.8214 37.8299 31.95C37.7012 32.0785 37.5265 32.1507 37.3443 32.1507H30.2755ZM16.9512 24.011C17.4253 24.011 17.8096 24.3946 17.8096 24.8678C17.8096 25.341 17.4253 25.7246 16.9512 25.7246C16.477 25.7246 16.0927 25.341 16.0927 24.8678C16.0927 24.3946 16.477 24.011 16.9512 24.011ZM2.90322 24.011C3.37734 24.011 3.76167 24.3946 3.76167 24.8678C3.76167 25.341 3.37734 25.7246 2.90322 25.7246C2.42909 25.7246 2.04476 25.341 2.04476 24.8678C2.04476 24.3946 2.42909 24.011 2.90322 24.011ZM1.45354 19.6412C1.57501 19.9991 1.38289 20.3875 1.02431 20.5087C0.665733 20.6299 0.276595 20.4382 0.155123 20.0803C0.0536652 19.7798 0.00128848 19.465 0 19.148C0 17.5478 1.29996 16.2503 2.90322 16.2503C4.50647 16.2503 5.80643 17.5478 5.80643 19.148C5.80643 20.4123 4.97939 21.5346 3.77086 21.9127C3.65436 21.9491 3.58998 22.0399 3.58998 22.1611V23.0294C3.58998 23.2112 3.51762 23.3856 3.38883 23.5141C3.26004 23.6427 3.08536 23.7149 2.90322 23.7149C2.72107 23.7149 2.54639 23.6427 2.4176 23.5141C2.28881 23.3856 2.21645 23.2112 2.21645 23.0294V22.1611C2.21645 21.4429 2.67684 20.8207 3.36309 20.606C4.0023 20.4061 4.4329 19.8156 4.4329 19.148C4.4329 18.3047 3.74811 17.6212 2.90322 17.6212C2.05832 17.6212 1.37353 18.3047 1.37353 19.148C1.37353 19.3223 1.39731 19.4761 1.45354 19.6412ZM15.5015 19.6412C15.5586 19.8127 15.5453 19.9998 15.4646 20.1616C15.3839 20.3234 15.2424 20.4467 15.0709 20.5047C14.8994 20.5627 14.7119 20.5506 14.5493 20.4711C14.3867 20.3916 14.2622 20.2511 14.2031 20.0803C14.1017 19.7798 14.0493 19.465 14.048 19.148C14.048 17.5478 15.348 16.2503 16.9513 16.2503C18.5545 16.2503 19.8545 17.5478 19.8545 19.148C19.8545 20.4123 19.0274 21.5346 17.8189 21.9127C17.7024 21.9491 17.638 22.0399 17.638 22.1611V23.0294C17.638 23.2112 17.5657 23.3856 17.4369 23.5141C17.3081 23.6427 17.1334 23.7149 16.9513 23.7149C16.7691 23.7149 16.5944 23.6427 16.4656 23.5141C16.3368 23.3856 16.2645 23.2112 16.2645 23.0294V22.1611C16.2645 21.4429 16.7249 20.8207 17.4111 20.606C18.0503 20.4061 18.4809 19.8156 18.4809 19.148C18.4809 18.3047 17.7962 17.6212 16.9513 17.6212C16.1063 17.6212 15.4216 18.3047 15.4216 19.148C15.4215 19.3223 15.4452 19.4761 15.5015 19.6412ZM9.92728 21.69C12.4923 21.69 14.5718 23.7654 14.5718 26.3256C14.5718 28.8858 12.4923 30.9612 9.92728 30.9612C7.36221 30.9612 5.28277 28.8858 5.28277 26.3256C5.28277 23.7654 7.36221 21.69 9.92728 21.69ZM1.80533 40C1.53544 40 1.30314 39.8884 1.13462 39.6779C0.966193 39.4675 0.908419 39.2167 0.967996 38.954C1.89453 34.8685 5.55379 31.818 9.92719 31.818C14.3005 31.818 17.9598 34.8686 18.8862 38.9539C18.9459 39.2167 18.888 39.4674 18.7197 39.6778C18.5512 39.8884 18.3189 39.9999 18.049 39.9999L1.80533 40Z" fill="#DF1E4B"/>
</svg>
