<svg width="75" height="75" viewBox="0 0 75 75" fill="none" xmlns="http://www.w3.org/2000/svg">
<rect width="75" height="75" rx="37.5" fill="white"/>
<path d="M27.3611 56.5282L27.3612 56.5281L28.0981 56.3226C28.1401 56.3108 28.1795 56.2909 28.2139 56.2639C28.2483 56.2369 28.277 56.2034 28.2985 56.1653C28.3199 56.1272 28.3337 56.0853 28.3389 56.0419C28.3441 55.9985 28.3408 55.9545 28.329 55.9124L28.3289 55.9121L19.903 25.7595C19.903 25.7594 19.903 25.7594 19.903 25.7594C19.8794 25.6752 19.8395 25.5964 19.7855 25.5276C19.7315 25.4588 19.6645 25.4012 19.5882 25.3583C19.512 25.3154 19.4281 25.2879 19.3412 25.2774C19.2543 25.267 19.1663 25.2737 19.082 25.2972L19.0782 25.2983L19.0782 25.2983L18.9853 25.3239C18.8158 25.3717 18.6722 25.4846 18.5857 25.6381C18.4991 25.7919 18.4771 25.9739 18.5245 26.1439L27.3611 56.5282ZM27.3611 56.5282C27.2761 56.5519 27.1852 56.5409 27.1083 56.4976C27.0314 56.4543 26.9749 56.3823 26.9511 56.2973C26.9511 56.2973 26.9511 56.2973 26.9511 56.2973L18.5245 26.1441L27.3611 56.5282ZM28.1873 42.8621L23.157 24.8496C23.1568 24.8488 23.1566 24.848 23.1563 24.8472C23.1505 24.8261 23.1445 24.805 23.1383 24.7839C26.7013 21.4496 31.3424 21.912 36.5727 22.433L36.7206 22.4477C41.5251 22.926 46.8249 23.4134 50.9816 19.6958C50.468 23.3133 49.7426 26.8981 48.809 30.4316C48.726 30.7242 48.7251 31.0342 48.8068 31.3274C48.8898 31.6257 49.0548 31.8948 49.2831 32.104C51.4425 34.0863 53.8564 35.7709 56.4607 37.1136C56.4569 37.125 56.4529 37.1364 56.4485 37.1477C56.421 37.2197 56.3916 37.2652 56.3743 37.2862L57.1443 37.9242M28.1873 42.8621L42.1203 41.6203C47.626 42.1706 53.1317 42.7209 57.1443 37.9242M28.1873 42.8621C32.3074 39.6282 37.4355 40.144 42.0769 40.6108C42.2517 40.6284 42.4257 40.6459 42.599 40.6631C48.0504 41.2053 52.8381 41.5133 56.3773 37.2826L57.1443 37.9242M28.1873 42.8621L57.1443 37.9242" stroke="#2D060F" stroke-width="2"/>
</svg>
