<svg width="48" height="48" viewBox="0 0 48 48" fill="none" xmlns="http://www.w3.org/2000/svg">
<circle cx="24" cy="24" r="24" fill="#DF1E4B"/>
<path d="M22.5998 28C22.5998 26.65 22.7208 25.679 22.9628 25.087C23.2048 24.495 23.7171 23.8493 24.4998 23.15C25.1831 22.55 25.7041 22.029 26.0628 21.587C26.4215 21.145 26.6005 20.641 26.5998 20.075C26.5998 19.3917 26.3708 18.825 25.9128 18.375C25.4548 17.925 24.8171 17.7 23.9998 17.7C23.1498 17.7 22.5038 17.9583 22.0618 18.475C21.6198 18.9917 21.3078 19.5167 21.1258 20.05L18.5498 18.95C18.8998 17.8833 19.5415 16.9583 20.4748 16.175C21.4081 15.3917 22.5831 15 23.9998 15C25.7498 15 27.0958 15.4877 28.0378 16.463C28.9798 17.4383 29.4505 18.609 29.4498 19.975C29.4498 20.8083 29.2708 21.521 28.9128 22.113C28.5548 22.705 27.9921 23.3757 27.2248 24.125C26.4081 24.9083 25.9125 25.5043 25.7378 25.913C25.5631 26.3217 25.4755 27.0173 25.4748 28H22.5998ZM23.9998 34C23.4498 34 22.9791 33.804 22.5878 33.412C22.1965 33.02 22.0005 32.5493 21.9998 32C21.9998 31.45 22.1958 30.979 22.5878 30.587C22.9798 30.195 23.4505 29.9993 23.9998 30C24.5498 30 25.0208 30.196 25.4128 30.588C25.8048 30.98 26.0005 31.4507 25.9998 32C25.9998 32.55 25.8038 33.021 25.4118 33.413C25.0198 33.805 24.5491 34.0007 23.9998 34Z" fill="#F1F0FA"/>
</svg>
