<svg width="75" height="75" viewBox="0 0 75 75" fill="none" xmlns="http://www.w3.org/2000/svg">
<rect width="75" height="75" rx="37.5" fill="white"/>
<mask id="path-2-outside-1_236_121" maskUnits="userSpaceOnUse" x="13.5" y="14.6926" width="48" height="45" fill="black">
<rect fill="white" x="13.5" y="14.6926" width="48" height="45"/>
<path d="M14.8594 43.0676L19.9246 45.9919C20.0063 46.0391 20.0966 46.0697 20.1902 46.082C20.2838 46.0943 20.3788 46.0881 20.47 46.0636C20.5612 46.0392 20.6467 45.997 20.7215 45.9395C20.7964 45.882 20.8592 45.8103 20.9064 45.7286L21.0889 45.4125L24.0223 47.13C23.9529 47.3794 23.9178 47.637 23.9178 47.8959C23.9164 48.2676 23.9887 48.6359 24.1306 48.9795C24.2724 49.3231 24.4811 49.6351 24.7443 49.8975C25.007 50.1605 25.3191 50.3691 25.6626 50.5111C26.0061 50.6532 26.3742 50.726 26.746 50.7253C26.8005 50.7253 26.8551 50.7232 26.9097 50.7201C26.9066 50.774 26.9046 50.8279 26.9046 50.8827C26.9038 51.2544 26.9764 51.6225 27.1183 51.966C27.2601 52.3095 27.4684 52.6216 27.7312 52.8844C27.994 53.1472 28.3061 53.3555 28.6496 53.4973C28.9931 53.6391 29.3612 53.7117 29.7328 53.7109C29.7876 53.7109 29.8422 53.709 29.8965 53.7059C29.8933 53.7604 29.8916 53.815 29.8914 53.8696C29.8906 54.2412 29.9632 54.6094 30.105 54.9529C30.2469 55.2964 30.4551 55.6085 30.7179 55.8713C30.9807 56.1341 31.2928 56.3424 31.6363 56.4842C31.9798 56.6261 32.348 56.6987 32.7196 56.6979C32.9186 56.6978 33.1171 56.6771 33.3118 56.6359C33.4022 57.1904 33.6871 57.6945 34.1155 58.058C34.5439 58.4214 35.0878 58.6203 35.6496 58.6189C35.9337 58.6192 36.2155 58.5687 36.4818 58.4696L36.6246 58.6122C36.9326 58.9207 37.3198 59.1383 37.7435 59.2409C38.1672 59.3435 38.6111 59.3273 39.0261 59.1939C39.4412 59.0605 39.8114 58.8152 40.096 58.4849C40.3806 58.1546 40.5686 57.7523 40.6392 57.322C40.8338 57.3636 41.0322 57.3846 41.2312 57.3849C41.6167 57.3854 41.9982 57.307 42.3522 57.1546C42.7063 57.0021 43.0254 56.7789 43.2899 56.4985C43.5545 56.2181 43.7588 55.8866 43.8905 55.5243C44.0222 55.1621 44.0783 54.7767 44.0555 54.3919C44.1094 54.3949 44.1633 54.3968 44.2181 54.3968C44.6035 54.3976 44.985 54.3194 45.3391 54.1672C45.6932 54.0149 46.0124 53.7918 46.277 53.5115C46.5416 53.2312 46.746 52.8997 46.8776 52.5374C47.0093 52.1752 47.0653 51.7898 47.0424 51.405C47.0963 51.4081 47.1502 51.41 47.205 51.41C47.7233 51.4094 48.2315 51.2666 48.6743 50.9971C49.117 50.7276 49.4772 50.3418 49.7157 49.8816C49.9542 49.4214 50.0618 48.9046 50.0267 48.3875C49.9916 47.8704 49.8153 47.3728 49.5169 46.949L53.482 44.6691L54.0936 45.7286C54.1889 45.8937 54.3459 46.0141 54.53 46.0635C54.7142 46.1128 54.9103 46.087 55.0754 45.9917L60.1406 43.0676C60.3057 42.9723 60.4262 42.8153 60.4755 42.6312C60.5248 42.447 60.499 42.2509 60.4037 42.0858L53.7606 30.5796C53.6652 30.4145 53.5083 30.2941 53.3242 30.2447C53.1401 30.1954 52.9439 30.2212 52.7788 30.3165L47.7136 33.2409C47.5485 33.3362 47.4281 33.4932 47.3788 33.6774C47.3294 33.8615 47.3553 34.0577 47.4506 34.2227L48.0381 35.2403L47.1984 35.5583C46.8131 35.7124 46.3849 35.7211 45.9937 35.5826L40.3951 33.7165C40.0845 33.6101 39.7557 33.5669 39.4281 33.5892C39.1005 33.6116 38.7807 33.6991 38.4873 33.8466L37.3732 34.3957C37.3627 34.3894 37.3526 34.3827 37.3415 34.3768L36.0144 33.676C35.6569 33.4844 35.2579 33.383 34.8523 33.3805C34.4466 33.378 34.0465 33.4746 33.6866 33.6618L31.915 34.5693C31.7807 34.6444 31.6298 34.6848 31.4759 34.6869L27.2532 34.7352L27.5492 34.2225C27.6445 34.0574 27.6703 33.8612 27.621 33.6771C27.5716 33.493 27.4512 33.336 27.2861 33.2407L22.2212 30.3165C22.0561 30.2212 21.8599 30.1954 21.6758 30.2447C21.4917 30.2941 21.3347 30.4145 21.2394 30.5796L14.5963 42.0858C14.501 42.2509 14.4752 42.447 14.5245 42.6312C14.5738 42.8153 14.6943 42.9723 14.8594 43.0676ZM25.7607 48.8814C25.5009 48.6193 25.3551 48.2652 25.3551 47.8962C25.3551 47.5271 25.5009 47.173 25.7607 46.9109L28.2882 44.3834C28.5498 44.1236 28.9038 43.9781 29.2725 43.9787C29.6412 43.9794 29.9946 44.1261 30.2553 44.3869C30.516 44.6476 30.6628 45.0011 30.6633 45.3698C30.6639 45.7385 30.5184 46.0924 30.2585 46.354L27.7312 48.8814C27.4697 49.1422 27.1154 49.2887 26.746 49.2887C26.3766 49.2887 26.0223 49.1422 25.7607 48.8814ZM28.7477 51.8682C28.488 51.6063 28.3422 51.2524 28.3421 50.8835C28.3419 50.5146 28.4875 50.1605 28.7471 49.8984L28.7477 49.8978L31.2752 47.3704C31.5371 47.1124 31.8905 46.9683 32.2582 46.9697C32.6259 46.9711 32.9781 47.1178 33.2381 47.3778C33.4981 47.6378 33.6448 47.9901 33.6462 48.3578C33.6476 48.7255 33.5036 49.0788 33.2455 49.3408L30.718 51.8682C30.4565 52.1291 30.1022 52.2756 29.7329 52.2756C29.3635 52.2756 29.0092 52.1291 28.7477 51.8682ZM31.7345 54.8551C31.4736 54.5936 31.3271 54.2393 31.3271 53.8699C31.3271 53.5005 31.4736 53.1461 31.7345 52.8846L34.2619 50.3572C34.5232 50.096 34.8776 49.9492 35.2472 49.9492C35.6167 49.9492 35.9711 50.096 36.2324 50.3572C36.4937 50.6185 36.6405 50.9729 36.6405 51.3425C36.6405 51.712 36.4937 52.0664 36.2324 52.3277C36.2083 52.3522 36.186 52.3783 36.1656 52.406C36.0902 52.4648 36.0184 52.5282 35.9506 52.5957L33.9729 54.5732C33.9053 54.6412 33.8418 54.7132 33.7828 54.7888C33.7553 54.8091 33.7293 54.8313 33.7049 54.8553C33.4434 55.1162 33.0891 55.2627 32.7197 55.2626C32.3503 55.2626 31.996 55.116 31.7345 54.8551ZM34.9896 56.9103C34.8146 56.7351 34.7163 56.4976 34.7163 56.2499C34.7163 56.0023 34.8146 55.7648 34.9896 55.5896L36.967 53.6121C37.1422 53.437 37.3797 53.3386 37.6274 53.3386C37.8751 53.3386 38.1126 53.437 38.2878 53.6121C38.4629 53.7872 38.5613 54.0248 38.5613 54.2725C38.5613 54.5201 38.4629 54.7577 38.2878 54.9328L36.3103 56.9103C36.1345 57.0843 35.8972 57.1819 35.6499 57.1819C35.4026 57.1819 35.1653 57.0843 34.9896 56.9103ZM38.9615 57.5961C38.7877 57.7694 38.5527 57.8673 38.3072 57.8688C38.0618 57.8702 37.8256 57.775 37.6498 57.6038L38.9695 56.2841C39.1408 56.4599 39.236 56.6962 39.2345 56.9417C39.233 57.1872 39.1349 57.4223 38.9615 57.5961ZM42.2168 55.541C41.9553 55.8018 41.601 55.9484 41.2317 55.9484C40.8623 55.9484 40.508 55.8018 40.2465 55.541C40.2221 55.5169 40.1959 55.4945 40.1682 55.4742C40.1093 55.3988 40.0459 55.3269 39.9784 55.2591L39.8409 55.1216C39.9673 54.7932 40.0189 54.4409 39.992 54.0901C39.9652 53.7393 39.8605 53.3989 39.6855 53.0936C39.5106 52.7884 39.2698 52.526 38.9807 52.3254C38.6916 52.1249 38.3615 51.9914 38.0143 51.9345C38.0928 51.5649 38.0972 51.1833 38.0271 50.812C38.2917 50.665 38.597 50.608 38.8968 50.6496C39.1966 50.6913 39.4748 50.8294 39.6892 51.0431L42.2168 53.5706C42.4777 53.8321 42.6243 54.1864 42.6243 54.5558C42.6243 54.9252 42.4777 55.2795 42.2168 55.541ZM45.2037 52.5541C44.9417 52.8139 44.5876 52.9596 44.2186 52.9596C43.8496 52.9596 43.4956 52.8139 43.2335 52.5541L40.7059 50.0266C40.4523 49.7639 40.312 49.4121 40.3151 49.047C40.3183 48.6819 40.4646 48.3326 40.7227 48.0743C40.9807 47.8159 41.3299 47.6692 41.695 47.6657C42.0601 47.6622 42.412 47.8022 42.675 48.0555V48.0561L45.2025 50.5835C45.4636 50.8449 45.6103 51.1992 45.6105 51.5686C45.6106 51.9381 45.4642 52.2925 45.2033 52.5541H45.2037ZM48.1905 49.5673C47.9291 49.8281 47.5748 49.9747 47.2054 49.9747C46.8361 49.9747 46.4818 49.8281 46.2203 49.5673L43.6928 47.0398C43.4347 46.7778 43.2907 46.4245 43.2921 46.0568C43.2935 45.6891 43.4402 45.3368 43.7002 45.0768C43.9602 44.8168 44.3124 44.6701 44.6801 44.6687C45.0478 44.6673 45.4012 44.8114 45.6631 45.0694L48.1902 47.5973C48.45 47.8594 48.5958 48.2135 48.5958 48.5825C48.5958 48.9515 48.45 49.3056 48.1902 49.5677L48.1905 49.5673ZM52.8756 31.9209L58.7999 42.182L54.9796 44.3877L49.0547 34.1264L52.8756 31.9209ZM39.1228 35.136C39.2478 35.0706 39.385 35.0318 39.5258 35.0222C39.6665 35.0127 39.8077 35.0324 39.9404 35.0803L45.5391 36.9465C46.2445 37.1884 47.0126 37.1729 47.7076 36.9028L48.7664 36.5016L52.7635 43.4245L48.5014 45.8751L46.6793 44.0529C46.4863 43.8599 46.2663 43.6959 46.0262 43.5661L40.2964 39.2706C39.9323 38.9981 39.4975 38.8359 39.0439 38.8034L38.2019 38.7291C37.7305 38.6838 37.2559 38.7742 36.8341 38.9896C36.4123 39.2049 36.0608 39.5364 35.8211 39.9448L34.705 41.7802C34.6885 41.8112 34.6625 41.8362 34.6309 41.8514C34.5993 41.8667 34.5637 41.8714 34.5291 41.865L32.8311 41.6512C32.8054 41.648 32.7808 41.6392 32.7588 41.6256C32.7369 41.6119 32.7181 41.5937 32.7038 41.5722C32.6896 41.5506 32.6801 41.5262 32.6761 41.5007C32.6721 41.4752 32.6737 41.4491 32.6807 41.4242L33.5701 38.2707C33.6079 38.1237 33.6779 37.9871 33.7749 37.8704C33.8719 37.7538 33.9936 37.6602 34.1311 37.5963L39.1228 35.136ZM31.4924 36.1243C31.8687 36.1201 32.2384 36.0256 32.5705 35.8487L34.3421 34.9413C34.4962 34.8584 34.6687 34.8155 34.8437 34.8165C35.0187 34.8176 35.1906 34.8625 35.3437 34.9473L35.7832 35.1792L33.4952 36.307C33.1766 36.4596 32.8947 36.6792 32.6688 36.9507C32.4429 37.2223 32.2783 37.5394 32.1863 37.8805L31.2968 41.034C31.2336 41.258 31.2195 41.493 31.2555 41.723C31.2915 41.9529 31.3766 42.1724 31.5052 42.3664C31.6338 42.5604 31.8027 42.7244 32.0005 42.8471C32.1983 42.9699 32.4202 43.0485 32.6511 43.0776L34.3492 43.2913C34.6589 43.3329 34.974 43.2827 35.2555 43.1469C35.537 43.0112 35.7725 42.7959 35.9329 42.5276L37.0491 40.6923C37.1505 40.5141 37.3014 40.369 37.4835 40.2748C37.6657 40.1806 37.8712 40.1413 38.0753 40.1615L38.9171 40.2358C39.104 40.2448 39.2838 40.3094 39.4338 40.4212L43.5096 43.4767C43.0137 43.7008 42.5931 44.0633 42.2985 44.5208C42.0039 44.9783 41.8478 45.5111 41.849 46.0553C41.849 46.1097 41.851 46.1639 41.8539 46.2179C41.4692 46.1949 41.0838 46.251 40.7215 46.3826C40.3593 46.5143 40.0278 46.7187 39.7475 46.9832C39.4672 47.2478 39.2441 47.567 39.0918 47.9211C38.9395 48.2752 38.8614 48.6567 38.8621 49.0421C38.8621 49.0967 38.8641 49.1507 38.8671 49.2047C38.3612 49.1753 37.8566 49.2819 37.4058 49.5133C37.3558 49.4539 37.3034 49.3965 37.2485 49.3415C36.9663 49.0591 36.6273 48.8398 36.2541 48.698C35.8809 48.5562 35.4818 48.4951 35.0833 48.5189C35.0863 48.465 35.0882 48.4111 35.0882 48.3562C35.0891 47.9708 35.0111 47.5893 34.859 47.2352C34.7068 46.8811 34.4838 46.5619 34.2037 46.2972C33.9235 46.0325 33.5922 45.828 33.23 45.6962C32.8678 45.5644 32.4825 45.5082 32.0978 45.5309C32.1206 45.1463 32.0644 44.761 31.9327 44.3989C31.801 44.0367 31.5965 43.7054 31.332 43.4252C31.0674 43.145 30.7483 42.922 30.3943 42.7698C30.0403 42.6175 29.6589 42.5394 29.2735 42.5401C28.9018 42.5387 28.5335 42.611 28.1899 42.7529C27.8463 42.8948 27.5343 43.1034 27.2718 43.3667L24.7489 45.8903L21.8076 44.1679L26.4179 36.1826L31.4924 36.1243ZM22.1248 31.9209L25.9452 34.1264L20.0208 44.3877L16.2005 42.182L22.1248 31.9209ZM37.5 32.5385C39.1659 32.5385 40.7944 32.0446 42.1796 31.119C43.5647 30.1935 44.6443 28.8781 45.2819 27.339C45.9194 25.7999 46.0862 24.1063 45.7612 22.4724C45.4362 20.8385 44.634 19.3377 43.456 18.1597C42.2781 16.9817 40.7773 16.1795 39.1434 15.8545C37.5095 15.5295 35.8159 15.6963 34.2768 16.3338C32.7377 16.9713 31.4222 18.0509 30.4967 19.436C29.5711 20.8212 29.0771 22.4497 29.0771 24.1156C29.0797 26.3487 29.9679 28.4896 31.5469 30.0687C33.126 31.6477 35.2669 32.536 37.5 32.5385ZM37.5 17.1303C38.8816 17.1303 40.2322 17.54 41.3809 18.3075C42.5297 19.0751 43.4251 20.1661 43.9538 21.4425C44.4825 22.7189 44.6209 24.1235 44.3513 25.4785C44.0818 26.8336 43.4165 28.0783 42.4395 29.0552C41.4626 30.0322 40.2179 30.6975 38.8629 30.967C37.5078 31.2365 36.1033 31.0982 34.8268 30.5695C33.5504 30.0407 32.4594 29.1454 31.6919 27.9966C30.9243 26.8478 30.5146 25.4973 30.5146 24.1157C30.5167 22.2637 31.2534 20.4881 32.5629 19.1786C33.8725 17.869 35.648 17.1324 37.5 17.1303ZM34.3026 24.1494C34.1906 23.9952 34.1443 23.8028 34.1741 23.6145C34.2039 23.4263 34.3073 23.2575 34.4615 23.1454C34.6157 23.0334 34.8081 22.9871 34.9964 23.0169C35.1847 23.0467 35.3534 23.1501 35.4655 23.3043L36.5656 24.8183L40.2279 21.8183C40.3755 21.6989 40.5644 21.6428 40.7532 21.6622C40.942 21.6816 41.1155 21.7749 41.2358 21.9217C41.3561 22.0686 41.4134 22.257 41.3953 22.446C41.3771 22.6349 41.2849 22.809 41.1389 22.9303L36.8874 26.413C36.8116 26.475 36.724 26.5209 36.6299 26.5479C36.5358 26.5749 36.4372 26.5823 36.3401 26.5698C36.2431 26.5574 36.1495 26.5252 36.0653 26.4752C35.9811 26.4253 35.908 26.3587 35.8505 26.2796L34.3026 24.1494Z"/>
</mask>
<path d="M14.8594 43.0676L19.9246 45.9919C20.0063 46.0391 20.0966 46.0697 20.1902 46.082C20.2838 46.0943 20.3788 46.0881 20.47 46.0636C20.5612 46.0392 20.6467 45.997 20.7215 45.9395C20.7964 45.882 20.8592 45.8103 20.9064 45.7286L21.0889 45.4125L24.0223 47.13C23.9529 47.3794 23.9178 47.637 23.9178 47.8959C23.9164 48.2676 23.9887 48.6359 24.1306 48.9795C24.2724 49.3231 24.4811 49.6351 24.7443 49.8975C25.007 50.1605 25.3191 50.3691 25.6626 50.5111C26.0061 50.6532 26.3742 50.726 26.746 50.7253C26.8005 50.7253 26.8551 50.7232 26.9097 50.7201C26.9066 50.774 26.9046 50.8279 26.9046 50.8827C26.9038 51.2544 26.9764 51.6225 27.1183 51.966C27.2601 52.3095 27.4684 52.6216 27.7312 52.8844C27.994 53.1472 28.3061 53.3555 28.6496 53.4973C28.9931 53.6391 29.3612 53.7117 29.7328 53.7109C29.7876 53.7109 29.8422 53.709 29.8965 53.7059C29.8933 53.7604 29.8916 53.815 29.8914 53.8696C29.8906 54.2412 29.9632 54.6094 30.105 54.9529C30.2469 55.2964 30.4551 55.6085 30.7179 55.8713C30.9807 56.1341 31.2928 56.3424 31.6363 56.4842C31.9798 56.6261 32.348 56.6987 32.7196 56.6979C32.9186 56.6978 33.1171 56.6771 33.3118 56.6359C33.4022 57.1904 33.6871 57.6945 34.1155 58.058C34.5439 58.4214 35.0878 58.6203 35.6496 58.6189C35.9337 58.6192 36.2155 58.5687 36.4818 58.4696L36.6246 58.6122C36.9326 58.9207 37.3198 59.1383 37.7435 59.2409C38.1672 59.3435 38.6111 59.3273 39.0261 59.1939C39.4412 59.0605 39.8114 58.8152 40.096 58.4849C40.3806 58.1546 40.5686 57.7523 40.6392 57.322C40.8338 57.3636 41.0322 57.3846 41.2312 57.3849C41.6167 57.3854 41.9982 57.307 42.3522 57.1546C42.7063 57.0021 43.0254 56.7789 43.2899 56.4985C43.5545 56.2181 43.7588 55.8866 43.8905 55.5243C44.0222 55.1621 44.0783 54.7767 44.0555 54.3919C44.1094 54.3949 44.1633 54.3968 44.2181 54.3968C44.6035 54.3976 44.985 54.3194 45.3391 54.1672C45.6932 54.0149 46.0124 53.7918 46.277 53.5115C46.5416 53.2312 46.746 52.8997 46.8776 52.5374C47.0093 52.1752 47.0653 51.7898 47.0424 51.405C47.0963 51.4081 47.1502 51.41 47.205 51.41C47.7233 51.4094 48.2315 51.2666 48.6743 50.9971C49.117 50.7276 49.4772 50.3418 49.7157 49.8816C49.9542 49.4214 50.0618 48.9046 50.0267 48.3875C49.9916 47.8704 49.8153 47.3728 49.5169 46.949L53.482 44.6691L54.0936 45.7286C54.1889 45.8937 54.3459 46.0141 54.53 46.0635C54.7142 46.1128 54.9103 46.087 55.0754 45.9917L60.1406 43.0676C60.3057 42.9723 60.4262 42.8153 60.4755 42.6312C60.5248 42.447 60.499 42.2509 60.4037 42.0858L53.7606 30.5796C53.6652 30.4145 53.5083 30.2941 53.3242 30.2447C53.1401 30.1954 52.9439 30.2212 52.7788 30.3165L47.7136 33.2409C47.5485 33.3362 47.4281 33.4932 47.3788 33.6774C47.3294 33.8615 47.3553 34.0577 47.4506 34.2227L48.0381 35.2403L47.1984 35.5583C46.8131 35.7124 46.3849 35.7211 45.9937 35.5826L40.3951 33.7165C40.0845 33.6101 39.7557 33.5669 39.4281 33.5892C39.1005 33.6116 38.7807 33.6991 38.4873 33.8466L37.3732 34.3957C37.3627 34.3894 37.3526 34.3827 37.3415 34.3768L36.0144 33.676C35.6569 33.4844 35.2579 33.383 34.8523 33.3805C34.4466 33.378 34.0465 33.4746 33.6866 33.6618L31.915 34.5693C31.7807 34.6444 31.6298 34.6848 31.4759 34.6869L27.2532 34.7352L27.5492 34.2225C27.6445 34.0574 27.6703 33.8612 27.621 33.6771C27.5716 33.493 27.4512 33.336 27.2861 33.2407L22.2212 30.3165C22.0561 30.2212 21.8599 30.1954 21.6758 30.2447C21.4917 30.2941 21.3347 30.4145 21.2394 30.5796L14.5963 42.0858C14.501 42.2509 14.4752 42.447 14.5245 42.6312C14.5738 42.8153 14.6943 42.9723 14.8594 43.0676ZM25.7607 48.8814C25.5009 48.6193 25.3551 48.2652 25.3551 47.8962C25.3551 47.5271 25.5009 47.173 25.7607 46.9109L28.2882 44.3834C28.5498 44.1236 28.9038 43.9781 29.2725 43.9787C29.6412 43.9794 29.9946 44.1261 30.2553 44.3869C30.516 44.6476 30.6628 45.0011 30.6633 45.3698C30.6639 45.7385 30.5184 46.0924 30.2585 46.354L27.7312 48.8814C27.4697 49.1422 27.1154 49.2887 26.746 49.2887C26.3766 49.2887 26.0223 49.1422 25.7607 48.8814ZM28.7477 51.8682C28.488 51.6063 28.3422 51.2524 28.3421 50.8835C28.3419 50.5146 28.4875 50.1605 28.7471 49.8984L28.7477 49.8978L31.2752 47.3704C31.5371 47.1124 31.8905 46.9683 32.2582 46.9697C32.6259 46.9711 32.9781 47.1178 33.2381 47.3778C33.4981 47.6378 33.6448 47.9901 33.6462 48.3578C33.6476 48.7255 33.5036 49.0788 33.2455 49.3408L30.718 51.8682C30.4565 52.1291 30.1022 52.2756 29.7329 52.2756C29.3635 52.2756 29.0092 52.1291 28.7477 51.8682ZM31.7345 54.8551C31.4736 54.5936 31.3271 54.2393 31.3271 53.8699C31.3271 53.5005 31.4736 53.1461 31.7345 52.8846L34.2619 50.3572C34.5232 50.096 34.8776 49.9492 35.2472 49.9492C35.6167 49.9492 35.9711 50.096 36.2324 50.3572C36.4937 50.6185 36.6405 50.9729 36.6405 51.3425C36.6405 51.712 36.4937 52.0664 36.2324 52.3277C36.2083 52.3522 36.186 52.3783 36.1656 52.406C36.0902 52.4648 36.0184 52.5282 35.9506 52.5957L33.9729 54.5732C33.9053 54.6412 33.8418 54.7132 33.7828 54.7888C33.7553 54.8091 33.7293 54.8313 33.7049 54.8553C33.4434 55.1162 33.0891 55.2627 32.7197 55.2626C32.3503 55.2626 31.996 55.116 31.7345 54.8551ZM34.9896 56.9103C34.8146 56.7351 34.7163 56.4976 34.7163 56.2499C34.7163 56.0023 34.8146 55.7648 34.9896 55.5896L36.967 53.6121C37.1422 53.437 37.3797 53.3386 37.6274 53.3386C37.8751 53.3386 38.1126 53.437 38.2878 53.6121C38.4629 53.7872 38.5613 54.0248 38.5613 54.2725C38.5613 54.5201 38.4629 54.7577 38.2878 54.9328L36.3103 56.9103C36.1345 57.0843 35.8972 57.1819 35.6499 57.1819C35.4026 57.1819 35.1653 57.0843 34.9896 56.9103ZM38.9615 57.5961C38.7877 57.7694 38.5527 57.8673 38.3072 57.8688C38.0618 57.8702 37.8256 57.775 37.6498 57.6038L38.9695 56.2841C39.1408 56.4599 39.236 56.6962 39.2345 56.9417C39.233 57.1872 39.1349 57.4223 38.9615 57.5961ZM42.2168 55.541C41.9553 55.8018 41.601 55.9484 41.2317 55.9484C40.8623 55.9484 40.508 55.8018 40.2465 55.541C40.2221 55.5169 40.1959 55.4945 40.1682 55.4742C40.1093 55.3988 40.0459 55.3269 39.9784 55.2591L39.8409 55.1216C39.9673 54.7932 40.0189 54.4409 39.992 54.0901C39.9652 53.7393 39.8605 53.3989 39.6855 53.0936C39.5106 52.7884 39.2698 52.526 38.9807 52.3254C38.6916 52.1249 38.3615 51.9914 38.0143 51.9345C38.0928 51.5649 38.0972 51.1833 38.0271 50.812C38.2917 50.665 38.597 50.608 38.8968 50.6496C39.1966 50.6913 39.4748 50.8294 39.6892 51.0431L42.2168 53.5706C42.4777 53.8321 42.6243 54.1864 42.6243 54.5558C42.6243 54.9252 42.4777 55.2795 42.2168 55.541ZM45.2037 52.5541C44.9417 52.8139 44.5876 52.9596 44.2186 52.9596C43.8496 52.9596 43.4956 52.8139 43.2335 52.5541L40.7059 50.0266C40.4523 49.7639 40.312 49.4121 40.3151 49.047C40.3183 48.6819 40.4646 48.3326 40.7227 48.0743C40.9807 47.8159 41.3299 47.6692 41.695 47.6657C42.0601 47.6622 42.412 47.8022 42.675 48.0555V48.0561L45.2025 50.5835C45.4636 50.8449 45.6103 51.1992 45.6105 51.5686C45.6106 51.9381 45.4642 52.2925 45.2033 52.5541H45.2037ZM48.1905 49.5673C47.9291 49.8281 47.5748 49.9747 47.2054 49.9747C46.8361 49.9747 46.4818 49.8281 46.2203 49.5673L43.6928 47.0398C43.4347 46.7778 43.2907 46.4245 43.2921 46.0568C43.2935 45.6891 43.4402 45.3368 43.7002 45.0768C43.9602 44.8168 44.3124 44.6701 44.6801 44.6687C45.0478 44.6673 45.4012 44.8114 45.6631 45.0694L48.1902 47.5973C48.45 47.8594 48.5958 48.2135 48.5958 48.5825C48.5958 48.9515 48.45 49.3056 48.1902 49.5677L48.1905 49.5673ZM52.8756 31.9209L58.7999 42.182L54.9796 44.3877L49.0547 34.1264L52.8756 31.9209ZM39.1228 35.136C39.2478 35.0706 39.385 35.0318 39.5258 35.0222C39.6665 35.0127 39.8077 35.0324 39.9404 35.0803L45.5391 36.9465C46.2445 37.1884 47.0126 37.1729 47.7076 36.9028L48.7664 36.5016L52.7635 43.4245L48.5014 45.8751L46.6793 44.0529C46.4863 43.8599 46.2663 43.6959 46.0262 43.5661L40.2964 39.2706C39.9323 38.9981 39.4975 38.8359 39.0439 38.8034L38.2019 38.7291C37.7305 38.6838 37.2559 38.7742 36.8341 38.9896C36.4123 39.2049 36.0608 39.5364 35.8211 39.9448L34.705 41.7802C34.6885 41.8112 34.6625 41.8362 34.6309 41.8514C34.5993 41.8667 34.5637 41.8714 34.5291 41.865L32.8311 41.6512C32.8054 41.648 32.7808 41.6392 32.7588 41.6256C32.7369 41.6119 32.7181 41.5937 32.7038 41.5722C32.6896 41.5506 32.6801 41.5262 32.6761 41.5007C32.6721 41.4752 32.6737 41.4491 32.6807 41.4242L33.5701 38.2707C33.6079 38.1237 33.6779 37.9871 33.7749 37.8704C33.8719 37.7538 33.9936 37.6602 34.1311 37.5963L39.1228 35.136ZM31.4924 36.1243C31.8687 36.1201 32.2384 36.0256 32.5705 35.8487L34.3421 34.9413C34.4962 34.8584 34.6687 34.8155 34.8437 34.8165C35.0187 34.8176 35.1906 34.8625 35.3437 34.9473L35.7832 35.1792L33.4952 36.307C33.1766 36.4596 32.8947 36.6792 32.6688 36.9507C32.4429 37.2223 32.2783 37.5394 32.1863 37.8805L31.2968 41.034C31.2336 41.258 31.2195 41.493 31.2555 41.723C31.2915 41.9529 31.3766 42.1724 31.5052 42.3664C31.6338 42.5604 31.8027 42.7244 32.0005 42.8471C32.1983 42.9699 32.4202 43.0485 32.6511 43.0776L34.3492 43.2913C34.6589 43.3329 34.974 43.2827 35.2555 43.1469C35.537 43.0112 35.7725 42.7959 35.9329 42.5276L37.0491 40.6923C37.1505 40.5141 37.3014 40.369 37.4835 40.2748C37.6657 40.1806 37.8712 40.1413 38.0753 40.1615L38.9171 40.2358C39.104 40.2448 39.2838 40.3094 39.4338 40.4212L43.5096 43.4767C43.0137 43.7008 42.5931 44.0633 42.2985 44.5208C42.0039 44.9783 41.8478 45.5111 41.849 46.0553C41.849 46.1097 41.851 46.1639 41.8539 46.2179C41.4692 46.1949 41.0838 46.251 40.7215 46.3826C40.3593 46.5143 40.0278 46.7187 39.7475 46.9832C39.4672 47.2478 39.2441 47.567 39.0918 47.9211C38.9395 48.2752 38.8614 48.6567 38.8621 49.0421C38.8621 49.0967 38.8641 49.1507 38.8671 49.2047C38.3612 49.1753 37.8566 49.2819 37.4058 49.5133C37.3558 49.4539 37.3034 49.3965 37.2485 49.3415C36.9663 49.0591 36.6273 48.8398 36.2541 48.698C35.8809 48.5562 35.4818 48.4951 35.0833 48.5189C35.0863 48.465 35.0882 48.4111 35.0882 48.3562C35.0891 47.9708 35.0111 47.5893 34.859 47.2352C34.7068 46.8811 34.4838 46.5619 34.2037 46.2972C33.9235 46.0325 33.5922 45.828 33.23 45.6962C32.8678 45.5644 32.4825 45.5082 32.0978 45.5309C32.1206 45.1463 32.0644 44.761 31.9327 44.3989C31.801 44.0367 31.5965 43.7054 31.332 43.4252C31.0674 43.145 30.7483 42.922 30.3943 42.7698C30.0403 42.6175 29.6589 42.5394 29.2735 42.5401C28.9018 42.5387 28.5335 42.611 28.1899 42.7529C27.8463 42.8948 27.5343 43.1034 27.2718 43.3667L24.7489 45.8903L21.8076 44.1679L26.4179 36.1826L31.4924 36.1243ZM22.1248 31.9209L25.9452 34.1264L20.0208 44.3877L16.2005 42.182L22.1248 31.9209ZM37.5 32.5385C39.1659 32.5385 40.7944 32.0446 42.1796 31.119C43.5647 30.1935 44.6443 28.8781 45.2819 27.339C45.9194 25.7999 46.0862 24.1063 45.7612 22.4724C45.4362 20.8385 44.634 19.3377 43.456 18.1597C42.2781 16.9817 40.7773 16.1795 39.1434 15.8545C37.5095 15.5295 35.8159 15.6963 34.2768 16.3338C32.7377 16.9713 31.4222 18.0509 30.4967 19.436C29.5711 20.8212 29.0771 22.4497 29.0771 24.1156C29.0797 26.3487 29.9679 28.4896 31.5469 30.0687C33.126 31.6477 35.2669 32.536 37.5 32.5385ZM37.5 17.1303C38.8816 17.1303 40.2322 17.54 41.3809 18.3075C42.5297 19.0751 43.4251 20.1661 43.9538 21.4425C44.4825 22.7189 44.6209 24.1235 44.3513 25.4785C44.0818 26.8336 43.4165 28.0783 42.4395 29.0552C41.4626 30.0322 40.2179 30.6975 38.8629 30.967C37.5078 31.2365 36.1033 31.0982 34.8268 30.5695C33.5504 30.0407 32.4594 29.1454 31.6919 27.9966C30.9243 26.8478 30.5146 25.4973 30.5146 24.1157C30.5167 22.2637 31.2534 20.4881 32.5629 19.1786C33.8725 17.869 35.648 17.1324 37.5 17.1303ZM34.3026 24.1494C34.1906 23.9952 34.1443 23.8028 34.1741 23.6145C34.2039 23.4263 34.3073 23.2575 34.4615 23.1454C34.6157 23.0334 34.8081 22.9871 34.9964 23.0169C35.1847 23.0467 35.3534 23.1501 35.4655 23.3043L36.5656 24.8183L40.2279 21.8183C40.3755 21.6989 40.5644 21.6428 40.7532 21.6622C40.942 21.6816 41.1155 21.7749 41.2358 21.9217C41.3561 22.0686 41.4134 22.257 41.3953 22.446C41.3771 22.6349 41.2849 22.809 41.1389 22.9303L36.8874 26.413C36.8116 26.475 36.724 26.5209 36.6299 26.5479C36.5358 26.5749 36.4372 26.5823 36.3401 26.5698C36.2431 26.5574 36.1495 26.5252 36.0653 26.4752C35.9811 26.4253 35.908 26.3587 35.8505 26.2796L34.3026 24.1494Z" fill="#2D060F"/>
<path d="M14.8594 43.0676L19.9246 45.9919C20.0063 46.0391 20.0966 46.0697 20.1902 46.082C20.2838 46.0943 20.3788 46.0881 20.47 46.0636C20.5612 46.0392 20.6467 45.997 20.7215 45.9395C20.7964 45.882 20.8592 45.8103 20.9064 45.7286L21.0889 45.4125L24.0223 47.13C23.9529 47.3794 23.9178 47.637 23.9178 47.8959C23.9164 48.2676 23.9887 48.6359 24.1306 48.9795C24.2724 49.3231 24.4811 49.6351 24.7443 49.8975C25.007 50.1605 25.3191 50.3691 25.6626 50.5111C26.0061 50.6532 26.3742 50.726 26.746 50.7253C26.8005 50.7253 26.8551 50.7232 26.9097 50.7201C26.9066 50.774 26.9046 50.8279 26.9046 50.8827C26.9038 51.2544 26.9764 51.6225 27.1183 51.966C27.2601 52.3095 27.4684 52.6216 27.7312 52.8844C27.994 53.1472 28.3061 53.3555 28.6496 53.4973C28.9931 53.6391 29.3612 53.7117 29.7328 53.7109C29.7876 53.7109 29.8422 53.709 29.8965 53.7059C29.8933 53.7604 29.8916 53.815 29.8914 53.8696C29.8906 54.2412 29.9632 54.6094 30.105 54.9529C30.2469 55.2964 30.4551 55.6085 30.7179 55.8713C30.9807 56.1341 31.2928 56.3424 31.6363 56.4842C31.9798 56.6261 32.348 56.6987 32.7196 56.6979C32.9186 56.6978 33.1171 56.6771 33.3118 56.6359C33.4022 57.1904 33.6871 57.6945 34.1155 58.058C34.5439 58.4214 35.0878 58.6203 35.6496 58.6189C35.9337 58.6192 36.2155 58.5687 36.4818 58.4696L36.6246 58.6122C36.9326 58.9207 37.3198 59.1383 37.7435 59.2409C38.1672 59.3435 38.6111 59.3273 39.0261 59.1939C39.4412 59.0605 39.8114 58.8152 40.096 58.4849C40.3806 58.1546 40.5686 57.7523 40.6392 57.322C40.8338 57.3636 41.0322 57.3846 41.2312 57.3849C41.6167 57.3854 41.9982 57.307 42.3522 57.1546C42.7063 57.0021 43.0254 56.7789 43.2899 56.4985C43.5545 56.2181 43.7588 55.8866 43.8905 55.5243C44.0222 55.1621 44.0783 54.7767 44.0555 54.3919C44.1094 54.3949 44.1633 54.3968 44.2181 54.3968C44.6035 54.3976 44.985 54.3194 45.3391 54.1672C45.6932 54.0149 46.0124 53.7918 46.277 53.5115C46.5416 53.2312 46.746 52.8997 46.8776 52.5374C47.0093 52.1752 47.0653 51.7898 47.0424 51.405C47.0963 51.4081 47.1502 51.41 47.205 51.41C47.7233 51.4094 48.2315 51.2666 48.6743 50.9971C49.117 50.7276 49.4772 50.3418 49.7157 49.8816C49.9542 49.4214 50.0618 48.9046 50.0267 48.3875C49.9916 47.8704 49.8153 47.3728 49.5169 46.949L53.482 44.6691L54.0936 45.7286C54.1889 45.8937 54.3459 46.0141 54.53 46.0635C54.7142 46.1128 54.9103 46.087 55.0754 45.9917L60.1406 43.0676C60.3057 42.9723 60.4262 42.8153 60.4755 42.6312C60.5248 42.447 60.499 42.2509 60.4037 42.0858L53.7606 30.5796C53.6652 30.4145 53.5083 30.2941 53.3242 30.2447C53.1401 30.1954 52.9439 30.2212 52.7788 30.3165L47.7136 33.2409C47.5485 33.3362 47.4281 33.4932 47.3788 33.6774C47.3294 33.8615 47.3553 34.0577 47.4506 34.2227L48.0381 35.2403L47.1984 35.5583C46.8131 35.7124 46.3849 35.7211 45.9937 35.5826L40.3951 33.7165C40.0845 33.6101 39.7557 33.5669 39.4281 33.5892C39.1005 33.6116 38.7807 33.6991 38.4873 33.8466L37.3732 34.3957C37.3627 34.3894 37.3526 34.3827 37.3415 34.3768L36.0144 33.676C35.6569 33.4844 35.2579 33.383 34.8523 33.3805C34.4466 33.378 34.0465 33.4746 33.6866 33.6618L31.915 34.5693C31.7807 34.6444 31.6298 34.6848 31.4759 34.6869L27.2532 34.7352L27.5492 34.2225C27.6445 34.0574 27.6703 33.8612 27.621 33.6771C27.5716 33.493 27.4512 33.336 27.2861 33.2407L22.2212 30.3165C22.0561 30.2212 21.8599 30.1954 21.6758 30.2447C21.4917 30.2941 21.3347 30.4145 21.2394 30.5796L14.5963 42.0858C14.501 42.2509 14.4752 42.447 14.5245 42.6312C14.5738 42.8153 14.6943 42.9723 14.8594 43.0676ZM25.7607 48.8814C25.5009 48.6193 25.3551 48.2652 25.3551 47.8962C25.3551 47.5271 25.5009 47.173 25.7607 46.9109L28.2882 44.3834C28.5498 44.1236 28.9038 43.9781 29.2725 43.9787C29.6412 43.9794 29.9946 44.1261 30.2553 44.3869C30.516 44.6476 30.6628 45.0011 30.6633 45.3698C30.6639 45.7385 30.5184 46.0924 30.2585 46.354L27.7312 48.8814C27.4697 49.1422 27.1154 49.2887 26.746 49.2887C26.3766 49.2887 26.0223 49.1422 25.7607 48.8814ZM28.7477 51.8682C28.488 51.6063 28.3422 51.2524 28.3421 50.8835C28.3419 50.5146 28.4875 50.1605 28.7471 49.8984L28.7477 49.8978L31.2752 47.3704C31.5371 47.1124 31.8905 46.9683 32.2582 46.9697C32.6259 46.9711 32.9781 47.1178 33.2381 47.3778C33.4981 47.6378 33.6448 47.9901 33.6462 48.3578C33.6476 48.7255 33.5036 49.0788 33.2455 49.3408L30.718 51.8682C30.4565 52.1291 30.1022 52.2756 29.7329 52.2756C29.3635 52.2756 29.0092 52.1291 28.7477 51.8682ZM31.7345 54.8551C31.4736 54.5936 31.3271 54.2393 31.3271 53.8699C31.3271 53.5005 31.4736 53.1461 31.7345 52.8846L34.2619 50.3572C34.5232 50.096 34.8776 49.9492 35.2472 49.9492C35.6167 49.9492 35.9711 50.096 36.2324 50.3572C36.4937 50.6185 36.6405 50.9729 36.6405 51.3425C36.6405 51.712 36.4937 52.0664 36.2324 52.3277C36.2083 52.3522 36.186 52.3783 36.1656 52.406C36.0902 52.4648 36.0184 52.5282 35.9506 52.5957L33.9729 54.5732C33.9053 54.6412 33.8418 54.7132 33.7828 54.7888C33.7553 54.8091 33.7293 54.8313 33.7049 54.8553C33.4434 55.1162 33.0891 55.2627 32.7197 55.2626C32.3503 55.2626 31.996 55.116 31.7345 54.8551ZM34.9896 56.9103C34.8146 56.7351 34.7163 56.4976 34.7163 56.2499C34.7163 56.0023 34.8146 55.7648 34.9896 55.5896L36.967 53.6121C37.1422 53.437 37.3797 53.3386 37.6274 53.3386C37.8751 53.3386 38.1126 53.437 38.2878 53.6121C38.4629 53.7872 38.5613 54.0248 38.5613 54.2725C38.5613 54.5201 38.4629 54.7577 38.2878 54.9328L36.3103 56.9103C36.1345 57.0843 35.8972 57.1819 35.6499 57.1819C35.4026 57.1819 35.1653 57.0843 34.9896 56.9103ZM38.9615 57.5961C38.7877 57.7694 38.5527 57.8673 38.3072 57.8688C38.0618 57.8702 37.8256 57.775 37.6498 57.6038L38.9695 56.2841C39.1408 56.4599 39.236 56.6962 39.2345 56.9417C39.233 57.1872 39.1349 57.4223 38.9615 57.5961ZM42.2168 55.541C41.9553 55.8018 41.601 55.9484 41.2317 55.9484C40.8623 55.9484 40.508 55.8018 40.2465 55.541C40.2221 55.5169 40.1959 55.4945 40.1682 55.4742C40.1093 55.3988 40.0459 55.3269 39.9784 55.2591L39.8409 55.1216C39.9673 54.7932 40.0189 54.4409 39.992 54.0901C39.9652 53.7393 39.8605 53.3989 39.6855 53.0936C39.5106 52.7884 39.2698 52.526 38.9807 52.3254C38.6916 52.1249 38.3615 51.9914 38.0143 51.9345C38.0928 51.5649 38.0972 51.1833 38.0271 50.812C38.2917 50.665 38.597 50.608 38.8968 50.6496C39.1966 50.6913 39.4748 50.8294 39.6892 51.0431L42.2168 53.5706C42.4777 53.8321 42.6243 54.1864 42.6243 54.5558C42.6243 54.9252 42.4777 55.2795 42.2168 55.541ZM45.2037 52.5541C44.9417 52.8139 44.5876 52.9596 44.2186 52.9596C43.8496 52.9596 43.4956 52.8139 43.2335 52.5541L40.7059 50.0266C40.4523 49.7639 40.312 49.4121 40.3151 49.047C40.3183 48.6819 40.4646 48.3326 40.7227 48.0743C40.9807 47.8159 41.3299 47.6692 41.695 47.6657C42.0601 47.6622 42.412 47.8022 42.675 48.0555V48.0561L45.2025 50.5835C45.4636 50.8449 45.6103 51.1992 45.6105 51.5686C45.6106 51.9381 45.4642 52.2925 45.2033 52.5541H45.2037ZM48.1905 49.5673C47.9291 49.8281 47.5748 49.9747 47.2054 49.9747C46.8361 49.9747 46.4818 49.8281 46.2203 49.5673L43.6928 47.0398C43.4347 46.7778 43.2907 46.4245 43.2921 46.0568C43.2935 45.6891 43.4402 45.3368 43.7002 45.0768C43.9602 44.8168 44.3124 44.6701 44.6801 44.6687C45.0478 44.6673 45.4012 44.8114 45.6631 45.0694L48.1902 47.5973C48.45 47.8594 48.5958 48.2135 48.5958 48.5825C48.5958 48.9515 48.45 49.3056 48.1902 49.5677L48.1905 49.5673ZM52.8756 31.9209L58.7999 42.182L54.9796 44.3877L49.0547 34.1264L52.8756 31.9209ZM39.1228 35.136C39.2478 35.0706 39.385 35.0318 39.5258 35.0222C39.6665 35.0127 39.8077 35.0324 39.9404 35.0803L45.5391 36.9465C46.2445 37.1884 47.0126 37.1729 47.7076 36.9028L48.7664 36.5016L52.7635 43.4245L48.5014 45.8751L46.6793 44.0529C46.4863 43.8599 46.2663 43.6959 46.0262 43.5661L40.2964 39.2706C39.9323 38.9981 39.4975 38.8359 39.0439 38.8034L38.2019 38.7291C37.7305 38.6838 37.2559 38.7742 36.8341 38.9896C36.4123 39.2049 36.0608 39.5364 35.8211 39.9448L34.705 41.7802C34.6885 41.8112 34.6625 41.8362 34.6309 41.8514C34.5993 41.8667 34.5637 41.8714 34.5291 41.865L32.8311 41.6512C32.8054 41.648 32.7808 41.6392 32.7588 41.6256C32.7369 41.6119 32.7181 41.5937 32.7038 41.5722C32.6896 41.5506 32.6801 41.5262 32.6761 41.5007C32.6721 41.4752 32.6737 41.4491 32.6807 41.4242L33.5701 38.2707C33.6079 38.1237 33.6779 37.9871 33.7749 37.8704C33.8719 37.7538 33.9936 37.6602 34.1311 37.5963L39.1228 35.136ZM31.4924 36.1243C31.8687 36.1201 32.2384 36.0256 32.5705 35.8487L34.3421 34.9413C34.4962 34.8584 34.6687 34.8155 34.8437 34.8165C35.0187 34.8176 35.1906 34.8625 35.3437 34.9473L35.7832 35.1792L33.4952 36.307C33.1766 36.4596 32.8947 36.6792 32.6688 36.9507C32.4429 37.2223 32.2783 37.5394 32.1863 37.8805L31.2968 41.034C31.2336 41.258 31.2195 41.493 31.2555 41.723C31.2915 41.9529 31.3766 42.1724 31.5052 42.3664C31.6338 42.5604 31.8027 42.7244 32.0005 42.8471C32.1983 42.9699 32.4202 43.0485 32.6511 43.0776L34.3492 43.2913C34.6589 43.3329 34.974 43.2827 35.2555 43.1469C35.537 43.0112 35.7725 42.7959 35.9329 42.5276L37.0491 40.6923C37.1505 40.5141 37.3014 40.369 37.4835 40.2748C37.6657 40.1806 37.8712 40.1413 38.0753 40.1615L38.9171 40.2358C39.104 40.2448 39.2838 40.3094 39.4338 40.4212L43.5096 43.4767C43.0137 43.7008 42.5931 44.0633 42.2985 44.5208C42.0039 44.9783 41.8478 45.5111 41.849 46.0553C41.849 46.1097 41.851 46.1639 41.8539 46.2179C41.4692 46.1949 41.0838 46.251 40.7215 46.3826C40.3593 46.5143 40.0278 46.7187 39.7475 46.9832C39.4672 47.2478 39.2441 47.567 39.0918 47.9211C38.9395 48.2752 38.8614 48.6567 38.8621 49.0421C38.8621 49.0967 38.8641 49.1507 38.8671 49.2047C38.3612 49.1753 37.8566 49.2819 37.4058 49.5133C37.3558 49.4539 37.3034 49.3965 37.2485 49.3415C36.9663 49.0591 36.6273 48.8398 36.2541 48.698C35.8809 48.5562 35.4818 48.4951 35.0833 48.5189C35.0863 48.465 35.0882 48.4111 35.0882 48.3562C35.0891 47.9708 35.0111 47.5893 34.859 47.2352C34.7068 46.8811 34.4838 46.5619 34.2037 46.2972C33.9235 46.0325 33.5922 45.828 33.23 45.6962C32.8678 45.5644 32.4825 45.5082 32.0978 45.5309C32.1206 45.1463 32.0644 44.761 31.9327 44.3989C31.801 44.0367 31.5965 43.7054 31.332 43.4252C31.0674 43.145 30.7483 42.922 30.3943 42.7698C30.0403 42.6175 29.6589 42.5394 29.2735 42.5401C28.9018 42.5387 28.5335 42.611 28.1899 42.7529C27.8463 42.8948 27.5343 43.1034 27.2718 43.3667L24.7489 45.8903L21.8076 44.1679L26.4179 36.1826L31.4924 36.1243ZM22.1248 31.9209L25.9452 34.1264L20.0208 44.3877L16.2005 42.182L22.1248 31.9209ZM37.5 32.5385C39.1659 32.5385 40.7944 32.0446 42.1796 31.119C43.5647 30.1935 44.6443 28.8781 45.2819 27.339C45.9194 25.7999 46.0862 24.1063 45.7612 22.4724C45.4362 20.8385 44.634 19.3377 43.456 18.1597C42.2781 16.9817 40.7773 16.1795 39.1434 15.8545C37.5095 15.5295 35.8159 15.6963 34.2768 16.3338C32.7377 16.9713 31.4222 18.0509 30.4967 19.436C29.5711 20.8212 29.0771 22.4497 29.0771 24.1156C29.0797 26.3487 29.9679 28.4896 31.5469 30.0687C33.126 31.6477 35.2669 32.536 37.5 32.5385ZM37.5 17.1303C38.8816 17.1303 40.2322 17.54 41.3809 18.3075C42.5297 19.0751 43.4251 20.1661 43.9538 21.4425C44.4825 22.7189 44.6209 24.1235 44.3513 25.4785C44.0818 26.8336 43.4165 28.0783 42.4395 29.0552C41.4626 30.0322 40.2179 30.6975 38.8629 30.967C37.5078 31.2365 36.1033 31.0982 34.8268 30.5695C33.5504 30.0407 32.4594 29.1454 31.6919 27.9966C30.9243 26.8478 30.5146 25.4973 30.5146 24.1157C30.5167 22.2637 31.2534 20.4881 32.5629 19.1786C33.8725 17.869 35.648 17.1324 37.5 17.1303ZM34.3026 24.1494C34.1906 23.9952 34.1443 23.8028 34.1741 23.6145C34.2039 23.4263 34.3073 23.2575 34.4615 23.1454C34.6157 23.0334 34.8081 22.9871 34.9964 23.0169C35.1847 23.0467 35.3534 23.1501 35.4655 23.3043L36.5656 24.8183L40.2279 21.8183C40.3755 21.6989 40.5644 21.6428 40.7532 21.6622C40.942 21.6816 41.1155 21.7749 41.2358 21.9217C41.3561 22.0686 41.4134 22.257 41.3953 22.446C41.3771 22.6349 41.2849 22.809 41.1389 22.9303L36.8874 26.413C36.8116 26.475 36.724 26.5209 36.6299 26.5479C36.5358 26.5749 36.4372 26.5823 36.3401 26.5698C36.2431 26.5574 36.1495 26.5252 36.0653 26.4752C35.9811 26.4253 35.908 26.3587 35.8505 26.2796L34.3026 24.1494Z" stroke="#2D060F" stroke-width="0.5" mask="url(#path-2-outside-1_236_121)"/>
</svg>
