<svg width="154" height="160" viewBox="0 0 154 160" fill="none" xmlns="http://www.w3.org/2000/svg">
<path d="M139.454 126.545C148.08 114.201 153.144 99.1839 153.144 82.9823C153.144 40.9288 119.053 6.83789 76.9998 6.83789C34.9464 6.83789 0.855469 40.9288 0.855469 82.9823C0.855469 99.1839 5.91954 114.201 14.5456 126.545H139.454Z" fill="#F0FDF4"/>
<path d="M76.9995 137.37C111.329 137.37 139.158 109.541 139.158 75.2114C139.158 40.8821 111.329 13.0527 76.9995 13.0527C42.6702 13.0527 14.8408 40.8821 14.8408 75.2114C14.8408 109.541 42.6702 137.37 76.9995 137.37Z" fill="#2D060F"/>
<path d="M31.376 77.3719C31.3739 75.9551 31.7769 74.5673 32.5374 73.372C32.8793 72.8367 33.0995 72.2329 33.1825 71.6031C33.2654 70.9734 33.209 70.3332 33.0173 69.7276C32.6067 68.4204 32.5495 66.9855 32.9306 65.5636C33.3116 64.1417 34.0783 62.9278 35.0875 62.0007C35.5563 61.5721 35.9253 61.0459 36.1684 60.459C36.4114 59.8722 36.5226 59.2392 36.4941 58.6046C36.4332 57.1892 36.7781 55.7858 37.4884 54.56C38.195 53.3321 39.2379 52.3317 40.494 51.6767C41.0578 51.3841 41.5504 50.9713 41.9371 50.4674C42.3238 49.9635 42.595 49.3808 42.7318 48.7606C43.0392 47.3776 43.7356 46.1113 44.7389 45.1109C45.7393 44.1078 47.0056 43.4114 48.3885 43.1038C49.0088 42.9671 49.5914 42.6958 50.0954 42.3091C50.5993 41.9225 51.0121 41.4299 51.3047 40.8661C51.9387 39.6515 52.913 38.5964 54.1879 37.8604C55.4628 37.1245 56.8635 36.8081 58.2326 36.8662C58.8671 36.8946 59.5001 36.7834 60.0869 36.5403C60.6738 36.2973 61.2 35.9283 61.6286 35.4595C62.5863 34.4156 63.8225 33.6672 65.1915 33.3026C66.5594 32.934 68.0042 32.9641 69.3556 33.3893C69.9611 33.5811 70.6013 33.6375 71.2311 33.5546C71.8608 33.4717 72.4647 33.2515 72.9999 32.9095C74.1564 32.1745 75.5276 31.748 76.9998 31.748C78.4721 31.748 79.843 32.1745 80.9997 32.9095C81.535 33.2514 82.1388 33.4716 82.7686 33.5545C83.3983 33.6374 84.0386 33.5811 84.6441 33.3893C85.9955 32.9641 87.4402 32.934 88.8081 33.3026C90.1771 33.6673 91.4133 34.4157 92.371 35.4595C92.7996 35.9284 93.3258 36.2974 93.9127 36.5404C94.4995 36.7835 95.1325 36.8947 95.7671 36.8662C97.1361 36.8081 98.5369 37.1241 99.8117 37.8604C101.04 38.567 102.04 39.6099 102.695 40.8661C102.988 41.4299 103.4 41.9225 103.904 42.3091C104.408 42.6958 104.991 42.9671 105.611 43.1038C106.948 43.4019 108.22 44.0698 109.261 45.1109C110.302 46.1521 110.97 47.4229 111.268 48.7606C111.405 49.3808 111.676 49.9635 112.063 50.4674C112.449 50.9713 112.942 51.3841 113.506 51.6767C114.72 52.3111 115.775 53.2851 116.511 54.56C117.247 55.8348 117.564 57.2356 117.506 58.6046C117.477 59.2392 117.588 59.8722 117.831 60.459C118.074 61.0458 118.443 61.5721 118.912 62.0007C119.921 62.9278 120.688 64.1414 121.069 65.5636C121.45 66.9858 121.393 68.4204 120.982 69.7276C120.791 70.3331 120.734 70.9733 120.817 71.603C120.9 72.2327 121.12 72.8365 121.462 73.3717C122.197 74.5281 122.624 75.8993 122.624 77.3716C122.624 78.8438 122.197 80.2147 121.462 81.3715C121.12 81.9067 120.9 82.5105 120.817 83.1402C120.734 83.7698 120.791 84.4101 120.982 85.0155C121.393 86.3231 121.45 87.7577 121.069 89.1795C120.688 90.6014 119.921 91.8154 118.912 92.7425C118.443 93.171 118.074 93.6973 117.831 94.2841C117.588 94.8709 117.477 95.504 117.506 96.1385C117.566 97.554 117.222 98.9573 116.511 100.183C115.805 101.411 114.762 102.411 113.506 103.066C112.942 103.359 112.449 103.772 112.063 104.276C111.676 104.78 111.405 105.362 111.268 105.983C110.96 107.366 110.264 108.632 109.261 109.632C108.26 110.635 106.994 111.332 105.611 111.639C104.991 111.776 104.408 112.047 103.904 112.434C103.4 112.821 102.988 113.313 102.695 113.877C102.061 115.092 101.087 116.147 99.8117 116.883C98.5369 117.619 97.1361 117.935 95.7671 117.877C95.1325 117.849 94.4995 117.96 93.9127 118.203C93.3259 118.446 92.7996 118.815 92.371 119.284C91.4439 120.293 90.2303 121.059 88.8081 121.441C87.3859 121.822 85.9513 121.764 84.6441 121.354C84.0386 121.162 83.3984 121.106 82.7687 121.188C82.139 121.271 81.5352 121.492 81 121.834C79.8436 122.569 78.4724 122.995 77.0001 122.995C75.5279 122.995 74.157 122.569 73.0002 121.834C72.465 121.492 71.8612 121.272 71.2315 121.189C70.6019 121.106 69.9617 121.162 69.3562 121.354C68.0487 121.764 66.614 121.822 65.1922 121.441C63.7703 121.059 62.5563 120.293 61.6292 119.284C61.2007 118.815 60.6744 118.446 60.0876 118.203C59.5008 117.96 58.8677 117.848 58.2332 117.877C56.8178 117.938 55.4144 117.593 54.1885 116.883C52.9606 116.176 51.9603 115.133 51.3053 113.877C51.0127 113.313 50.5999 112.821 50.096 112.434C49.5921 112.047 49.0094 111.776 48.3891 111.639C47.0518 111.341 45.7806 110.673 44.7395 109.632C43.6983 108.591 43.0304 107.32 42.7324 105.983C42.5957 105.362 42.3244 104.78 41.9377 104.276C41.551 103.772 41.0584 103.359 40.4947 103.066C39.2801 102.432 38.2249 101.458 37.489 100.183C36.753 98.9083 36.4366 97.5076 36.4948 96.1385C36.5232 95.504 36.412 94.871 36.1689 94.2842C35.9258 93.6973 35.5569 93.1711 35.0881 92.7425C34.079 91.8154 33.3122 90.6017 32.9312 89.1795C32.5502 87.7574 32.6073 86.3227 33.0179 85.0155C33.2097 84.41 33.2661 83.7697 33.1832 83.14C33.1003 82.5103 32.88 81.9064 32.538 81.3712C31.7769 80.1763 31.3737 78.7886 31.376 77.3719Z" fill="#86122D"/>
<path d="M29.2564 142.292H124.743C130.364 137.763 135.317 132.462 139.454 126.546L139.453 126.538C136.887 119.48 134.173 113.272 131.77 110.404C131.489 110.069 131.212 109.777 130.94 109.537C128.882 107.72 124.914 106 120.264 104.464C108.476 100.571 92.303 97.8653 91.7271 97.7695H62.2726C61.6967 97.8649 45.5233 100.571 33.7355 104.464C29.0857 106 25.1175 107.72 23.0592 109.537C22.7875 109.777 22.5106 110.069 22.23 110.404C19.8269 113.272 17.1121 119.48 14.5465 126.538L14.5459 126.546C18.6827 132.462 23.6352 137.763 29.2564 142.292Z" fill="#A05838"/>
<path d="M29.2567 142.291H66.1186C60.7475 136.96 56.5384 130.581 53.7397 122.843C51.3814 116.321 50.0226 108.837 49.8082 100.207C44.7009 101.33 38.812 102.786 33.7355 104.462C29.0857 105.998 25.1175 107.718 23.0591 109.535C22.7875 109.775 22.5106 110.067 22.23 110.402C19.8269 113.27 17.1121 119.478 14.5465 126.536L14.5459 126.544C18.6828 132.46 23.6354 137.761 29.2567 142.291ZM119.003 146.486C120.984 145.174 122.905 143.778 124.749 142.291C123.498 138.654 121.117 135.489 117.994 133.259V146.486H119.003Z" fill="#934A2E"/>
<path d="M36.0054 146.485V133.258C32.8829 135.488 30.5019 138.653 29.25 142.289C31.0949 143.777 33.0159 145.173 34.9969 146.485H36.0054Z" fill="#823821"/>
<path d="M115.29 129.179L115.296 129.177L115.249 129.131C114.663 128.464 114.03 127.84 113.354 127.263C102.288 116.471 91.7269 108.114 91.7269 97.7676H62.2724C62.2724 108.114 51.7114 116.471 40.6449 127.263C39.9695 127.84 39.3362 128.464 38.75 129.131L38.7037 129.177L38.709 129.179C35.0553 133.371 33.2906 139.176 34.6218 145.15C34.8095 145.993 34.9779 146.47 34.9838 146.486V146.489C47.0271 154.472 61.469 159.126 77 159.126C92.5306 159.126 106.973 154.472 119.015 146.489L119.016 146.486C119.021 146.47 119.19 145.993 119.378 145.15C120.709 139.176 118.944 133.371 115.29 129.179Z" fill="#DF1E4B"/>
<path d="M62.2734 68.7598V97.768C62.2734 97.768 68.185 104.013 76.9336 104.013C76.9562 104.013 76.978 104.011 77.0007 104.011C85.7125 103.979 91.7279 97.768 91.7279 97.768V68.7598H62.2734Z" fill="#A05838"/>
<path d="M62.2734 68.6016V97.7667C91.7127 97.7667 91.7279 81.1704 91.7279 81.1704V68.6019H62.2734V68.6016Z" fill="#934A2E"/>
<path d="M90.995 157.84C73.3295 150.703 60.0067 140.172 53.7396 122.843C53.0036 120.808 52.3653 118.679 51.8282 116.451C48.4673 119.88 44.5898 123.417 40.6449 127.263C39.9695 127.84 39.3362 128.465 38.75 129.132L38.7037 129.178L38.709 129.18C35.0553 133.371 33.2906 139.177 34.6218 145.151C34.8095 145.994 34.9779 146.47 34.9838 146.487V146.489C47.0268 154.473 61.4687 159.127 76.9997 159.127C81.6944 159.128 86.3792 158.698 90.995 157.84Z" fill="#911331"/>
<path d="M102.796 11.32C96.6472 4.3825 87.9959 0 77.3516 0C66.7072 0 62.1274 1.75225 57.8425 3.72952C53.5575 5.70679 53.2713 14.3192 53.2713 14.3192C47.9331 20.1357 44.6738 27.8903 44.6738 36.4073V45.7547H110.029V36.4073C110.029 29.2562 108.945 18.2576 102.796 11.32Z" fill="#86122D"/>
<path d="M44.6738 36.4064V45.7539H57.9901V26.3868C54.6463 24.2013 53.0814 18.8914 53.2713 14.3184C47.9331 20.1345 44.6738 27.8895 44.6738 36.4064Z" fill="#86122D"/>
<path d="M100.327 49.592C100.327 49.592 103.555 41.7336 109.308 43.5579C115.061 45.3823 109.169 62.4119 97.9414 63.4848L100.327 49.592Z" fill="#A05838"/>
<path d="M53.672 49.592C53.672 49.592 50.4445 41.7336 44.691 43.5579C38.9376 45.3823 44.8303 62.4119 56.0577 63.4848L53.672 49.592Z" fill="#934A2E"/>
<path d="M57.9909 26.3884C54.7829 27.4573 52.4184 30.2047 51.6408 33.4954C50.8476 36.8522 49.7754 42.0481 49.7754 45.6113C49.7754 65.659 61.9644 89.1706 77 89.1706C92.0355 89.1706 104.225 65.659 104.225 45.6113C104.225 45.0911 104.214 44.9636 104.198 44.4511C78.8961 44.4505 69.3318 22.6101 57.9909 26.3884Z" fill="#B76C4E"/>
<path d="M83.2158 87.8192C71.1754 82.5503 62.2071 62.8069 62.2071 45.6107C62.2071 38.7823 63.6256 32.6115 66.0846 27.4371C63.3278 26.0512 60.7103 25.4819 57.9909 26.3878C54.7829 27.4566 52.4184 30.204 51.6408 33.4947C50.8476 36.8516 49.7754 42.0475 49.7754 45.6107C49.7754 65.6584 61.9644 89.1699 77 89.1699C79.1385 89.1699 81.2193 88.6929 83.2158 87.8192Z" fill="#A05838"/>
<path d="M76.9999 76.14C75.305 76.1395 73.6299 75.7757 72.0875 75.0732C70.5451 74.3707 69.1712 73.3457 68.0583 72.0674C67.7875 71.7567 67.6512 71.3511 67.6794 70.9399C67.7076 70.5287 67.898 70.1456 68.2088 69.8747C68.5195 69.6039 68.925 69.4676 69.3362 69.4958C69.7474 69.524 70.1306 69.7144 70.4014 70.0252C72.0666 71.9359 74.4715 73.0321 76.9995 73.0321C79.5275 73.0321 81.9325 71.9362 83.5977 70.0252C83.7318 69.8713 83.8949 69.7454 84.0776 69.6546C84.2604 69.5637 84.4592 69.5098 84.6628 69.4958C84.8665 69.4819 85.0708 69.5081 85.2643 69.5732C85.4577 69.6382 85.6365 69.7406 85.7903 69.8747C85.9442 70.0088 86.0701 70.1719 86.1609 70.3547C86.2518 70.5374 86.3057 70.7363 86.3197 70.9399C86.3336 71.1435 86.3074 71.3479 86.2423 71.5413C86.1773 71.7348 86.0748 71.9135 85.9408 72.0674C84.828 73.3457 83.4542 74.3707 81.9119 75.0732C80.3696 75.7758 78.6946 76.1395 76.9999 76.14Z" fill="#934A2E"/>
<path d="M90.2083 51.9908C91.7531 51.9908 93.0054 50.7384 93.0054 49.1936C93.0054 47.6488 91.7531 46.3965 90.2083 46.3965C88.6635 46.3965 87.4111 47.6488 87.4111 49.1936C87.4111 50.7384 88.6635 51.9908 90.2083 51.9908Z" fill="#590C1E"/>
<path d="M63.7913 51.9908C65.3361 51.9908 66.5884 50.7384 66.5884 49.1936C66.5884 47.6488 65.3361 46.3965 63.7913 46.3965C62.2465 46.3965 60.9941 47.6488 60.9941 49.1936C60.9941 50.7384 62.2465 51.9908 63.7913 51.9908Z" fill="#590C1E"/>
<path d="M72.6527 59.8111L75.2746 55.6337C76.073 54.3617 77.9266 54.3617 78.725 55.6337L81.3469 59.8111C82.1981 61.1677 81.2232 62.9309 79.6217 62.9309H74.3783C72.7764 62.9306 71.8015 61.1674 72.6527 59.8111Z" fill="#934A2E"/>
<path d="M96.3306 42.1427L96.3303 42.1443C96.0854 43.0586 95.2832 43.7091 94.3394 43.7766C91.5469 43.9758 89.0661 43.3156 86.7333 41.7374C85.9489 41.2069 85.5784 40.2422 85.8236 39.3275C86.2165 37.8618 87.9202 37.2474 89.1926 38.0741C90.6306 39.0084 92.3276 39.463 94.0401 39.3729C95.5552 39.293 96.7235 40.677 96.3306 42.1427ZM57.6686 42.1427L57.6689 42.1443C57.9138 43.0586 58.7159 43.7091 59.6598 43.7766C62.4523 43.9758 64.933 43.3156 67.2659 41.7374C68.0503 41.2069 68.4208 40.2422 68.1755 39.3275C67.7827 37.8618 66.0789 37.2474 64.8065 38.0741C63.3686 39.0084 61.6716 39.463 59.9591 39.3729C58.444 39.293 57.2757 40.677 57.6686 42.1427Z" fill="#2D060F"/>
</svg>
