<svg width="162" height="168" viewBox="0 0 162 168" fill="none" xmlns="http://www.w3.org/2000/svg">
<path d="M146.641 132.979C155.703 120.009 161.022 104.23 161.022 87.207C161.022 43.0117 125.195 7.18451 81 7.18451C36.8047 7.18451 0.977539 43.0117 0.977539 87.207C0.977539 104.23 6.29724 120.009 15.359 132.979H146.641Z" fill="#F0FDF4"/>
<path d="M22.208 72.5093C22.208 104.979 48.5302 131.301 81 131.301C113.47 131.301 139.792 104.979 139.792 72.5093C139.792 40.0394 113.47 13.7172 81 13.7172C48.5302 13.7172 22.208 40.0394 22.208 72.5093Z" fill="#2D060F"/>
<path d="M47.0283 48.0845H115.712V38.261H47.0283V48.0845Z" fill="#303345"/>
<path d="M137.688 115.114C130.04 108.362 97.321 102.887 96.477 102.747H65.5223C64.6783 102.887 31.959 108.362 24.3117 115.114C21.5841 117.522 18.3767 124.696 15.3652 132.981C29.8294 153.684 53.8276 167.23 80.9996 167.23C108.172 167.23 132.17 153.684 146.634 132.981C143.622 124.696 140.415 117.522 137.688 115.114Z" fill="#911331"/>
<path d="M85.2186 159.554V102.746H65.5227C64.6787 102.886 31.959 108.361 24.3117 115.113C21.5841 117.521 18.377 124.695 15.3652 132.98C28.9909 152.483 51.0771 165.633 76.3067 167.092L85.2186 159.554Z" fill="#911331"/>
<path d="M95.3989 138.274H66.6006V113.611H95.3989V138.274Z" fill="#BEC8F7"/>
<path d="M27.1299 139.415V146.381C29.4706 148.513 31.9354 150.504 34.5112 152.345L30.5803 138.92C30.0084 136.967 27.1299 137.38 27.1299 139.415Z" fill="#590C1E"/>
<path d="M134.87 139.415V146.381C132.529 148.513 130.064 150.504 127.488 152.345L131.419 138.92C131.991 136.967 134.87 137.38 134.87 139.415Z" fill="#590C1E"/>
<path d="M65.6133 63.2837V102.748C65.6133 108.747 72.5021 113.61 81.0001 113.61C89.4979 113.61 96.387 108.747 96.387 102.748V63.2837H65.6133Z" fill="#FCAD6D"/>
<path d="M96.387 86.7916V63.2836H65.6133V102.748C91.0007 102.748 95.5655 91.0063 96.387 86.7916Z" fill="#FD995B"/>
<path d="M105.516 52.1165C105.516 52.1165 108.908 43.8578 114.954 45.7748C121.001 47.692 114.808 65.5893 103.009 66.7168L105.516 52.1165Z" fill="#FCAD6D"/>
<path d="M56.4839 52.1165C56.4839 52.1165 53.0919 43.8578 47.0455 45.7748C40.9987 47.692 47.1915 65.5893 58.991 66.7168L56.4839 52.1165Z" fill="#FD995B"/>
<path d="M109.611 47.9347C109.611 69.0034 96.8011 93.7124 80.9998 93.7124C65.1981 93.7124 52.3887 69.0034 52.3887 47.9347C52.3887 26.8659 65.1981 11.7171 80.9998 11.7171C96.8011 11.7171 109.611 26.8659 109.611 47.9347Z" fill="#F9BA8F"/>
<path d="M65.4536 47.9347C65.4536 29.8626 74.8786 16.1474 87.5323 12.6111C85.4057 12.0167 83.2079 11.7159 80.9998 11.7171C65.1985 11.7171 52.3887 26.8659 52.3887 47.9347C52.3887 69.0034 65.1985 93.7124 80.9998 93.7124C83.2476 93.7124 85.434 93.2114 87.5323 92.2932C74.8786 86.7557 65.4536 66.0067 65.4536 47.9347Z" fill="#FCAD6D"/>
<path d="M76.4315 62.8576L79.1869 58.4675C80.0256 57.1306 81.9739 57.1306 82.813 58.4675L85.5684 62.8576C86.463 64.2833 85.4384 66.1362 83.755 66.1362H78.2446C76.5615 66.1362 75.5369 64.2833 76.4315 62.8576Z" fill="#FD995B"/>
<path d="M74.2661 78.6768H87.7334C89.0927 77.4807 90.1087 75.9438 90.6766 74.2246C91.1936 72.6532 90.0005 71.0387 88.3462 71.0387H73.6534C71.999 71.0387 70.8059 72.6532 71.3233 74.2246C71.8909 75.9439 72.9068 77.4807 74.2661 78.6768Z" fill="#242734"/>
<path d="M87.7329 78.6708C85.8752 80.3144 83.4797 81.2205 80.9993 81.2178C78.5188 81.2207 76.1232 80.3145 74.2656 78.6708C76.062 77.087 78.418 76.1241 80.9993 76.1241C83.5802 76.1241 85.9365 77.087 87.7329 78.6708Z" fill="#FF4155"/>
<path d="M98.9631 52.9411C98.9711 52.3525 98.8514 51.7692 98.6122 51.2313C98.373 50.6934 98.02 50.2138 97.5776 49.8255C96.0506 48.4772 93.7104 48.4772 92.1838 49.8255C91.7413 50.2138 91.3884 50.6934 91.1492 51.2313C90.91 51.7692 90.7903 52.3525 90.7982 52.9411C90.8162 54.4233 92.6368 55.1347 93.6849 54.0866C93.8419 53.9296 94.0284 53.805 94.2335 53.72C94.4387 53.635 94.6586 53.5912 94.8807 53.5912C95.1028 53.5912 95.3227 53.635 95.5278 53.72C95.733 53.805 95.9194 53.9296 96.0764 54.0866C97.1246 55.1347 98.9452 54.4233 98.9631 52.9411Z" fill="#242734"/>
<path d="M63.0355 52.9411C63.0276 52.3525 63.1473 51.7692 63.3865 51.2313C63.6257 50.6934 63.9787 50.2138 64.4211 49.8255C65.948 48.4772 68.2883 48.4772 69.8149 49.8255C70.2573 50.2138 70.6103 50.6934 70.8495 51.2313C71.0887 51.7692 71.2084 52.3525 71.2004 52.9411C71.1825 54.4233 69.3619 55.1347 68.3137 54.0866C68.1567 53.9296 67.9703 53.805 67.7651 53.72C67.56 53.635 67.3401 53.5912 67.118 53.5912C66.8959 53.5912 66.676 53.635 66.4708 53.72C66.2657 53.805 66.0792 53.9296 65.9222 54.0866C64.8741 55.1347 63.0535 54.4233 63.0355 52.9411Z" fill="#242734"/>
<path d="M65.613 97.858L80.9999 113.608C80.9999 113.608 75.0135 124.435 71.1398 124.435C67.2664 124.435 60.5732 103.655 60.5732 103.655L65.613 97.858Z" fill="#E9EFFF"/>
<path d="M96.3869 97.858L81 113.608C81 113.608 86.9863 124.435 90.8601 124.435C94.7335 124.435 101.427 103.655 101.427 103.655L96.3869 97.858Z" fill="#E9EFFF"/>
<path d="M96.3863 97.8599L80.9995 136.105L65.6126 97.8599L25.1069 112.646C23.9291 113.076 23.6551 114.617 24.6121 115.427L76.7808 159.556C79.2161 161.616 82.7832 161.616 85.2185 159.556L137.387 115.427C138.344 114.617 138.07 113.076 136.892 112.646L96.3863 97.8599Z" fill="#DF1E4B"/>
<path d="M24.6121 115.428L59.2814 144.755C49.2743 124.902 52.3883 102.69 52.3883 102.689L25.1069 112.648C23.9291 113.077 23.6551 114.619 24.6121 115.428Z" fill="#E95D7E"/>
<path d="M126.096 108.705L80.9997 146.851L35.9036 108.705L30.6045 110.639L79.4175 151.93C79.8597 152.304 80.4203 152.51 80.9997 152.509C81.5625 152.509 82.1252 152.316 82.5819 151.93L131.395 110.639L126.096 108.705Z" fill="#B6C3FF"/>
<path d="M30.6035 110.638L54.1559 130.561C53.5554 128.044 53.0794 125.5 52.7296 122.937L35.903 108.703L30.6035 110.638Z" fill="#F3F5FF"/>
<path d="M117.305 4.89981H44.6934V37.6453C44.6934 38.3383 44.9687 39.003 45.4587 39.493C45.9487 39.983 46.6133 40.2583 47.3063 40.2583H114.692C115.385 40.2583 116.05 39.983 116.54 39.493C117.03 39.003 117.305 38.3383 117.305 37.6453V4.89981Z" fill="#DF1E4B"/>
<path d="M64.2907 37.6453V4.89981H44.6934V37.6453C44.6934 38.3383 44.9687 39.0029 45.4587 39.493C45.9487 39.983 46.6133 40.2583 47.3063 40.2583H66.9037C66.2107 40.2583 65.546 39.983 65.056 39.493C64.566 39.0029 64.2907 38.3383 64.2907 37.6453Z" fill="#911331"/>
<path d="M70.3845 42.7075H63.852C63.2023 42.7075 62.5792 42.4494 62.1198 41.99C61.6604 41.5306 61.4023 40.9075 61.4023 40.2579C61.4023 39.6082 61.6604 38.9851 62.1198 38.5257C62.5792 38.0663 63.2023 37.8082 63.852 37.8082H70.3845C71.0341 37.8082 71.6572 38.0663 72.1166 38.5257C72.576 38.9851 72.8341 39.6082 72.8341 40.2579C72.8341 40.9075 72.576 41.5306 72.1166 41.99C71.6572 42.4494 71.0341 42.7075 70.3845 42.7075Z" fill="#242734"/>
<path d="M98.1472 42.7075H91.6147C90.965 42.7075 90.3419 42.4494 89.8825 41.99C89.4231 41.5306 89.165 40.9075 89.165 40.2579C89.165 39.6082 89.4231 38.9851 89.8825 38.5257C90.3419 38.0663 90.965 37.8082 91.6147 37.8082H98.1472C98.7968 37.8082 99.4199 38.0663 99.8793 38.5257C100.339 38.9851 100.597 39.6082 100.597 40.2579C100.597 40.9075 100.339 41.5306 99.8793 41.99C99.4199 42.4494 98.7968 42.7075 98.1472 42.7075Z" fill="#242734"/>
<path d="M125.094 -0.000329018H112.061L109.611 2.28603L107.162 -0.000329018H36.9062C34.2004 -0.000329018 32.0068 2.19327 32.0068 4.89901C32.0068 7.60474 34.2004 9.79834 36.9062 9.79834H125.094C127.8 9.79834 129.994 7.60474 129.994 4.89901C129.994 2.19327 127.8 -0.000329018 125.094 -0.000329018Z" fill="#DF1E4B"/>
<path d="M51.6042 4.89901C51.6042 2.19327 53.7978 -0.000329018 56.5035 -0.000329018H36.9062C34.2004 -0.000329018 32.0068 2.19327 32.0068 4.89901C32.0068 7.60474 34.2004 9.79834 36.9062 9.79834H56.5035C53.7978 9.79834 51.6042 7.60474 51.6042 4.89901Z" fill="#911331"/>
<path d="M112.06 61.4883H107.161V1.52588e-05H112.06V61.4883Z" fill="#FFB332"/>
<path d="M109.611 48.0847C108.961 48.0847 108.338 47.8266 107.879 47.3672C107.419 46.9078 107.161 46.2847 107.161 45.635V61.4883H112.06V45.635C112.06 46.2847 111.802 46.9078 111.343 47.3672C110.884 47.8266 110.26 48.0847 109.611 48.0847Z" fill="#FF9100"/>
<path d="M112.06 61.4895H107.161V73.7378C107.161 74.3875 107.419 75.0106 107.879 75.47C108.338 75.9294 108.961 76.1875 109.611 76.1875C110.26 76.1875 110.884 75.9294 111.343 75.47C111.802 75.0106 112.06 74.3875 112.06 73.7378V61.4895Z" fill="#DF1E4B"/>
<path d="M114.392 61.4889C114.364 67.7417 104.857 67.7411 104.83 61.4885C104.858 55.236 114.365 55.2367 114.392 61.4889Z" fill="#FFDD40"/>
<path d="M109.611 61.4899C109.611 59.7213 110.574 58.1806 112.002 57.3536C108.966 55.4847 104.729 57.8899 104.83 61.4899C104.729 65.0893 108.966 67.4965 112.002 65.6263C110.574 64.7993 109.611 63.2586 109.611 61.4899Z" fill="#FFB332"/>
</svg>
