<svg width="162" height="153" viewBox="0 0 162 153" fill="none" xmlns="http://www.w3.org/2000/svg">
<path d="M81.0001 152.999C125.294 152.999 161.201 118.749 161.201 76.4997C161.201 34.2501 125.294 0 81.0001 0C36.7062 0 0.798828 34.2501 0.798828 76.4997C0.798828 118.749 36.7062 152.999 81.0001 152.999Z" fill="#F0FDF4"/>
<path d="M137.359 115.946C145.078 105.407 149.61 92.5867 149.61 78.7546C149.61 42.8519 119.102 13.7471 81.4698 13.7471C43.8372 13.7471 13.3301 42.8519 13.3301 78.7546C13.3301 92.5867 17.8618 105.407 25.5811 115.946H137.359Z" fill="#2D060F"/>
<path d="M113.711 62.1039H113.397L111.252 52.0419L113.397 43.7407H113.711C117.905 43.7407 121.306 46.984 121.306 50.9844V54.8606C121.306 58.8607 117.906 62.1039 113.711 62.1039Z" fill="#FF965A"/>
<path d="M81.9201 133.689C103.672 133.689 121.305 120.085 121.305 103.303C121.305 86.5217 103.672 72.9175 81.9201 72.9175C60.1684 72.9175 42.5352 86.5217 42.5352 103.303C42.5352 120.085 60.1684 133.689 81.9201 133.689Z" fill="#FF3C3C"/>
<path d="M124.241 100.44L123.506 100.285L98.2949 99.1455C74.0723 98.0508 53.8057 116.488 53.8057 139.619V148.334C62.356 151.347 71.5978 152.999 81.2458 152.999C105.782 152.999 127.912 142.297 142.502 125.342V122.135C142.502 111.713 134.908 102.692 124.241 100.44Z" fill="#DF1E4B"/>
<path d="M81.9806 128.888C105.704 128.888 124.935 125.807 124.935 107.504C124.935 105.057 124.588 102.672 123.935 100.375L81.1532 91.3452L38.2372 100.431C27.4908 102.706 19.9893 111.795 19.9893 122.123V125.341C28.9216 135.726 40.7 143.799 54.1873 148.475C57.6399 137.136 68.6361 128.871 81.6466 128.887L81.9806 128.888Z" fill="#911331"/>
<path d="M121.305 103.303C121.305 120.085 103.672 122.909 81.9201 122.909C60.1685 122.909 42.5352 120.085 42.5352 103.303C42.5352 86.5219 60.1685 72.9175 81.9201 72.9175C103.672 72.9175 121.305 86.5216 121.305 103.303Z" fill="#E95D7E"/>
<path d="M108.997 99.1898C108.997 110.727 96.8745 120.08 81.92 120.08C66.9656 120.08 54.8428 110.727 54.8428 99.1898C54.8428 87.6522 66.9656 90.4452 81.92 90.4452C96.8745 90.4452 108.997 87.6525 108.997 99.1898Z" fill="#590C1E"/>
<path d="M81.3218 114.145C87.6227 114.145 92.7301 109.273 92.7301 103.263V78.8887H69.9131V103.263C69.9131 109.273 75.0209 114.145 81.3218 114.145Z" fill="#FF965A"/>
<path d="M77.5703 101.298L77.5719 101.298C74.9739 101.165 72.4023 100.733 69.9131 100.011V78.8887H90.837L92.7301 95.1836C89.9204 99.4975 82.0673 101.528 77.5703 101.298Z" fill="#EF6A30"/>
<path d="M112.271 40.7071C112.271 30.7762 105.592 21.6953 95.1805 21.6953H67.4638C64.493 21.6953 61.7721 22.437 59.3984 23.7244V76.214C59.3984 87.6707 69.059 97.0462 81.0694 97.133C81.1536 97.1336 81.238 97.1339 81.3221 97.1339C99.2103 97.1339 113.711 83.302 113.711 66.2397V56.4864L112.271 40.7071Z" fill="#FFBE82"/>
<path d="M113.711 56.4026V49.4395C114.475 49.4395 115.207 49.7289 115.747 50.244C116.287 50.7591 116.591 51.4578 116.591 52.1863V53.6561C116.591 54.0168 116.516 54.3739 116.371 54.7072C116.227 55.0404 116.015 55.3432 115.747 55.5982C115.48 55.8533 115.162 56.0556 114.813 56.1936C114.464 56.3316 114.089 56.4026 113.711 56.4026Z" fill="#EF6A30"/>
<path d="M41.0169 54.8603C41.0169 58.8607 44.4171 62.1039 48.6111 62.1039H49.0986L52.9862 54.2917L49.1635 43.7407H48.6108C44.4168 43.7407 41.0166 46.984 41.0166 50.9844L41.0169 54.8603Z" fill="#FF965A"/>
<path d="M45.5234 53.713C45.5234 55.3403 46.9065 56.6595 48.6125 56.6595V49.1895C46.9065 49.1895 45.5234 50.5087 45.5234 52.136V53.713Z" fill="#EF6A30"/>
<path d="M43.4492 57.034C43.4492 59.7535 45.7608 61.9584 48.6119 61.9584V52.1694C45.7608 52.1694 43.4492 54.3743 43.4492 57.0939V57.034Z" fill="white"/>
<path d="M67.3271 54.6943V56.8729C67.3271 57.5553 67.6114 58.2098 68.1173 58.6923C68.6232 59.1749 69.3093 59.446 70.0248 59.446C70.7403 59.446 71.4264 59.1749 71.9323 58.6923C72.4382 58.2098 72.7225 57.5553 72.7225 56.8729V54.6943H67.3271ZM89.3073 54.6943V56.8729C89.3073 57.5553 89.5915 58.2098 90.0975 58.6923C90.6034 59.1749 91.2895 59.446 92.005 59.446C92.7204 59.446 93.4066 59.1749 93.9125 58.6923C94.4184 58.2098 94.7026 57.5553 94.7026 56.8729V54.6943H89.3073Z" fill="#FF965A"/>
<path d="M70.0243 57.3856C69.3088 57.3856 68.6227 57.1145 68.1168 56.6319C67.6109 56.1493 67.3266 55.4949 67.3266 54.8124V51.5024L68.3211 50.0661L67.3266 48.6299V47.775C67.3266 47.0926 67.6109 46.4381 68.1168 45.9556C68.6227 45.473 69.3088 45.2019 70.0243 45.2019C70.7398 45.2019 71.4259 45.473 71.9318 45.9556C72.4377 46.4381 72.7219 47.0926 72.7219 47.775V54.8124C72.7219 55.4949 72.4377 56.1493 71.9318 56.6319C71.4259 57.1145 70.7398 57.3856 70.0243 57.3856ZM92.0045 57.3856C91.289 57.3856 90.6029 57.1145 90.0969 56.6319C89.591 56.1493 89.3068 55.4949 89.3068 54.8124V51.5024L90.3013 50.0661L89.3068 48.6299V47.775C89.3068 47.0926 89.591 46.4381 90.0969 45.9556C90.6029 45.473 91.289 45.2019 92.0045 45.2019C92.7199 45.2019 93.4061 45.473 93.912 45.9556C94.4179 46.4381 94.7021 47.0926 94.7021 47.775V54.8124C94.7021 55.4949 94.4179 56.1493 93.912 56.6319C93.4061 57.1145 92.7199 57.3856 92.0045 57.3856ZM73.5783 43.9153H65.7113C64.9959 43.9153 64.3097 43.6442 63.8038 43.1617C63.2979 42.6791 63.0137 42.0246 63.0137 41.3422C63.0137 40.6597 63.2979 40.0053 63.8038 39.5227C64.3097 39.0401 64.9959 38.769 65.7113 38.769H73.5783C74.2937 38.769 74.9799 39.0401 75.4858 39.5227C75.9917 40.0053 76.2759 40.6597 76.2759 41.3422C76.2759 42.0246 75.9917 42.6791 75.4858 43.1617C74.9799 43.6442 74.2937 43.9153 73.5783 43.9153ZM96.0585 43.9153H88.1915C87.4761 43.9153 86.7899 43.6442 86.284 43.1617C85.7781 42.6791 85.4939 42.0246 85.4939 41.3422C85.4939 40.6597 85.7781 40.0053 86.284 39.5227C86.7899 39.0401 87.4761 38.769 88.1915 38.769H96.0585C96.7739 38.769 97.4601 39.0401 97.966 39.5227C98.4719 40.0053 98.7561 40.6597 98.7561 41.3422C98.7561 42.0246 98.4719 42.6791 97.966 43.1617C97.4601 43.6442 96.7739 43.9153 96.0585 43.9153Z" fill="#242734"/>
<path d="M91.2537 71.623H88.476L81.1606 73.0716L73.8451 71.623H71.3879C70.5636 71.623 69.9051 72.3093 70.0149 73.0887C70.2204 74.5465 70.7356 75.949 71.5289 77.2104L86.3415 81.3973C89.6867 79.8311 92.1103 76.7481 92.6267 73.0887C92.7365 72.3093 92.078 71.623 91.2537 71.623Z" fill="#BE1423"/>
<path d="M108.449 29.9594C108.758 29.9597 109.064 29.9453 109.368 29.9237C106.46 25.0574 101.512 21.6953 95.1802 21.6953H67.4635C64.4928 21.6953 61.7719 22.437 59.3982 23.7244V24.3819C53.3045 27.094 49.3261 32.9005 49.3261 40.0262L48.6123 56.4861V65.9337C48.6123 83.7655 64.2759 98.0387 83.0775 97.0887C69.4602 93.3167 59.5065 81.33 59.5065 67.1244C59.5875 65.369 59.5065 48.3591 59.5065 41.8978L59.5071 41.7598C59.5589 35.1883 65.2355 29.9184 72.1249 29.9249L108.449 29.9594Z" fill="#FF965A"/>
<path d="M76.9497 61.0395C76.2792 63.5938 77.4978 66.3762 79.8285 67.2148C80.79 67.5623 81.8515 67.5623 82.813 67.2148C85.1437 66.3762 86.3626 63.5938 85.6918 61.0395L83.4688 52.5715C82.9091 50.4397 79.7327 50.4397 79.173 52.5715L76.9497 61.0395Z" fill="#FF965A"/>
<path d="M113.711 23.5674V56.4871C111.315 56.4871 109.373 54.6343 109.373 52.3489V34.077C109.373 30.0413 106.991 26.3214 103.187 24.556C103.094 24.5129 103.001 24.4707 102.907 24.4294V23.5677H113.711V23.5674Z" fill="#242734"/>
<path d="M68.3216 52.4527C68.0578 52.4527 67.8049 52.3528 67.6184 52.1749C67.4319 51.997 67.3271 51.7558 67.3271 51.5042V48.6316C67.3271 48.3801 67.4319 48.1388 67.6184 47.9609C67.8049 47.783 68.0578 47.6831 68.3216 47.6831C68.5853 47.6831 68.8383 47.783 69.0248 47.9609C69.2112 48.1388 69.316 48.3801 69.316 48.6316V51.5042C69.316 51.7558 69.2112 51.997 69.0248 52.1749C68.8383 52.3528 68.5853 52.4527 68.3216 52.4527ZM90.3018 52.4527C90.038 52.4527 89.7851 52.3528 89.5986 52.1749C89.4121 51.997 89.3073 51.7558 89.3073 51.5042V48.6316C89.3073 48.3801 89.4121 48.1388 89.5986 47.9609C89.7851 47.783 90.038 47.6831 90.3018 47.6831C90.5655 47.6831 90.8184 47.783 91.0049 47.9609C91.1914 48.1388 91.2962 48.3801 91.2962 48.6316V51.5042C91.2962 51.7558 91.1914 51.997 91.0049 52.1749C90.8184 52.3528 90.5655 52.4527 90.3018 52.4527Z" fill="#DFE0E9"/>
<path d="M71.5303 77.2066C73.5238 80.3783 77.1619 82.502 81.3208 82.502C83.1226 82.502 84.8258 82.1023 86.3407 81.393C85.6893 77.4961 82.1511 74.5176 77.8823 74.5176C75.363 74.5173 73.0979 75.555 71.5303 77.2066Z" fill="#FF3C3C"/>
<path d="M86.8675 74.5204H75.4551C75.0282 74.5204 74.6189 74.3587 74.3171 74.0708C74.0153 73.7829 73.8457 73.3925 73.8457 72.9854V71.623H88.4769V72.9854C88.4768 73.3925 88.3072 73.7829 88.0054 74.0707C87.7036 74.3586 87.2943 74.5204 86.8675 74.5204Z" fill="white"/>
<path d="M86.0489 0.03054C76.7791 0.0386241 69.3271 7.29726 69.4919 16.138C69.5623 19.9049 69.669 23.6712 69.8316 27.436L69.8357 27.5294L108.448 27.5656C115.166 27.5719 120.616 22.3786 120.616 15.97V0L86.0489 0.03054Z" fill="#484D68"/>
<path d="M69.9577 17.6698C69.9577 7.94339 78.2189 0.0562894 88.416 0.047307L120.616 0.0188629V0L67.0696 0.047307C56.8725 0.0562894 48.6113 7.94369 48.6113 17.6698V56.4882C51.0073 56.4882 52.9497 54.6354 52.9497 52.35V34.0781L52.95 34.0057C52.9758 30.3987 56.1214 27.5168 59.9032 27.5204L69.9581 27.5297V17.6698H69.9577Z" fill="#242734"/>
<path d="M66.3824 147.133C65.8829 147.133 65.4039 146.944 65.0507 146.607C64.6975 146.27 64.499 145.813 64.499 145.337V124.575C64.499 124.098 64.6975 123.641 65.0507 123.304C65.4039 122.968 65.8829 122.778 66.3824 122.778C66.8819 122.778 67.361 122.968 67.7142 123.304C68.0674 123.641 68.2658 124.098 68.2658 124.575V145.337C68.2658 145.813 68.0674 146.27 67.7142 146.607C67.361 146.944 66.8819 147.133 66.3824 147.133Z" fill="#F199AE"/>
<path d="M66.3824 142.639C65.8829 142.639 65.4039 142.45 65.0507 142.113C64.6975 141.776 64.499 141.319 64.499 140.842V120.081C64.499 119.604 64.6975 119.147 65.0507 118.81C65.4039 118.473 65.8829 118.284 66.3824 118.284C66.8819 118.284 67.361 118.473 67.7142 118.81C68.0674 119.147 68.2658 119.604 68.2658 120.081V140.842C68.2658 141.319 68.0674 141.776 67.7142 142.113C67.361 142.45 66.8819 142.639 66.3824 142.639Z" fill="white"/>
<path d="M97.1461 147.133C96.6466 147.133 96.1675 146.944 95.8143 146.607C95.4611 146.27 95.2627 145.813 95.2627 145.337V124.575C95.2627 124.098 95.4611 123.641 95.8143 123.304C96.1675 122.968 96.6466 122.778 97.1461 122.778C97.6456 122.778 98.1246 122.968 98.4779 123.304C98.8311 123.641 99.0295 124.098 99.0295 124.575V145.337C99.0295 145.813 98.8311 146.27 98.4779 146.607C98.1246 146.944 97.6456 147.133 97.1461 147.133Z" fill="#F199AE"/>
<path d="M97.1463 142.641C96.6468 142.641 96.1678 142.452 95.8146 142.115C95.4614 141.778 95.2629 141.321 95.2629 140.844V120.083C95.2629 119.606 95.4614 119.149 95.8146 118.812C96.1678 118.475 96.6468 118.286 97.1463 118.286C97.6458 118.286 98.1249 118.475 98.4781 118.812C98.8313 119.149 99.0297 119.606 99.0297 120.083V140.844C99.0297 141.321 98.8313 141.778 98.4781 142.115C98.1249 142.452 97.6458 142.641 97.1463 142.641ZM47.1811 68.823C46.8065 68.823 46.4472 68.681 46.1823 68.4284C45.9174 68.1757 45.7686 67.833 45.7686 67.4756V57.3873C45.7686 57.0299 45.9174 56.6872 46.1823 56.4345C46.4472 56.1819 46.8065 56.0399 47.1811 56.0399C47.5557 56.0399 47.915 56.1819 48.1799 56.4345C48.4448 56.6872 48.5936 57.0299 48.5936 57.3873V67.4756C48.5936 67.833 48.4448 68.1757 48.1799 68.4284C47.915 68.681 47.5557 68.823 47.1811 68.823ZM118.873 57.784C118.873 60.5035 116.562 62.7084 113.71 62.7084V52.9194C116.562 52.9194 118.873 55.1243 118.873 57.8439V57.784Z" fill="white"/>
<path d="M115.142 69.5702C114.767 69.5702 114.408 69.4282 114.143 69.1756C113.878 68.9229 113.729 68.5802 113.729 68.2228V58.1345C113.729 57.7771 113.878 57.4344 114.143 57.1817C114.408 56.9291 114.767 56.7871 115.142 56.7871C115.517 56.7871 115.876 56.9291 116.141 57.1817C116.406 57.4344 116.555 57.7771 116.555 58.1345V68.2228C116.555 68.5802 116.406 68.9229 116.141 69.1756C115.876 69.4282 115.517 69.5702 115.142 69.5702Z" fill="white"/>
</svg>
