<svg width="154" height="160" viewBox="0 0 154 160" fill="none" xmlns="http://www.w3.org/2000/svg">
<path d="M14.5456 126.545C5.91954 114.201 0.855469 99.1839 0.855469 82.9823C0.855469 40.9288 34.9464 6.83789 76.9998 6.83789C119.053 6.83789 153.144 40.9288 153.144 82.9823C153.144 99.1839 148.08 114.201 139.454 126.545H14.5456Z" fill="#F0FDF4"/>
<path d="M76.9995 137.37C111.329 137.37 139.158 109.541 139.158 75.2114C139.158 40.8821 111.329 13.0527 76.9995 13.0527C42.6702 13.0527 14.8408 40.8821 14.8408 75.2114C14.8408 109.541 42.6702 137.37 76.9995 137.37Z" fill="#2D060F"/>
<path d="M130.941 109.535C128.539 107.414 123.537 105.426 117.885 103.709C117.97 103.506 118.018 103.308 118.018 103.118C118.018 102.445 117.705 101.631 117.094 100.729C116.339 99.615 116.37 98.1291 117.182 97.0566C118.383 95.4703 119.061 93.9704 119.061 92.6446C119.061 84.2454 103.392 63.4844 77.0002 63.4844C50.6085 63.4844 34.9393 84.2457 34.9393 92.6446C34.9393 93.9701 35.6177 95.47 36.8186 97.0566C37.6307 98.1291 37.6615 99.615 36.9066 100.729C36.2949 101.631 35.9823 102.445 35.9823 103.118C35.9823 103.308 36.0305 103.506 36.115 103.709C30.4632 105.426 25.4616 107.414 23.0598 109.535C20.4644 111.826 17.4127 118.653 14.5469 126.536C28.3094 146.236 51.1446 159.125 76.9999 159.125C102.855 159.125 125.69 146.236 139.453 126.535C136.588 118.653 133.536 111.826 130.941 109.535Z" fill="#DF1E4B"/>
<path d="M52.1992 116.022C52.0634 113.53 50.4351 111.372 48.0871 110.525C41.7562 108.242 36.947 105.705 36.1113 103.711L36.1106 103.711C30.4607 105.428 25.461 107.415 23.0598 109.536C20.4644 111.827 17.4127 118.654 14.5469 126.537C28.3097 146.237 51.145 159.127 77.0002 159.127C56.1497 148.569 52.7135 125.457 52.1992 116.022ZM130.941 109.536C128.54 107.416 123.54 105.428 117.89 103.711L117.889 103.712C117.167 105.435 113.476 107.564 108.401 109.584C106.837 110.206 107.251 112.528 108.933 112.579C114.22 112.737 122.049 112.285 130.941 109.536Z" fill="#911331"/>
<path d="M100.572 99.4382C101.405 97.575 101.863 95.5825 101.863 93.5089C101.863 83.2102 90.731 74.8613 76.9992 74.8613C63.2674 74.8613 52.1357 83.2102 52.1357 93.5089C52.1357 95.5825 52.5939 97.5747 53.4268 99.4382H100.572Z" fill="#590C1E"/>
<path d="M91.7274 97.7676H62.2729C62.0062 97.8117 58.3964 98.4159 53.4277 99.4375C56.7318 106.828 66.0332 112.156 77.0002 112.156C87.9671 112.156 97.2686 106.828 100.573 99.4375C95.6039 98.4159 91.9941 97.8117 91.7274 97.7676Z" fill="#E95D7E"/>
<path d="M25.7412 132.659V139.287C27.9687 141.316 30.314 143.211 32.7648 144.963L29.0244 132.188C28.4805 130.33 25.7412 130.723 25.7412 132.659Z" fill="#2D060F"/>
<path d="M128.259 132.659V139.287C126.032 141.316 123.686 143.211 121.235 144.963L124.976 132.188C125.52 130.33 128.259 130.723 128.259 132.659Z" fill="#590C1E"/>
<path d="M91.7279 68.6016H62.2734V97.7667C62.2734 97.7667 68.185 104.011 76.9336 104.011C85.6821 104.011 91.7279 97.7667 91.7279 97.7667V68.6016Z" fill="#F3D6AC"/>
<path d="M62.2734 68.6016V97.7667C91.7127 97.7667 91.7279 81.1704 91.7279 81.1704V68.6019H62.2734V68.6016Z" fill="#EABE8D"/>
<path d="M76.9995 13.6749C84.5436 13.6749 90.6592 10.6137 90.6592 6.83745C90.6592 3.06123 84.5436 0 76.9995 0C69.4555 0 63.3398 3.06123 63.3398 6.83745C63.3398 10.6137 69.4555 13.6749 76.9995 13.6749Z" fill="#934A2E"/>
<path d="M77.0002 11.5C59.8357 11.5 45.9209 25.4145 45.9209 42.5793V47.2782H77.0002V11.5Z" fill="#934A2E"/>
<path d="M108.079 42.5793C108.079 25.4148 94.1648 11.5 77 11.5V47.2782H108.079V42.5793Z" fill="#A05838"/>
<path d="M77.221 6.83789C65.9486 6.83789 56.0097 12.5459 50.136 21.2289C49.473 22.2078 49.0599 23.3343 48.9327 24.5098C48.8054 25.6853 48.9681 26.874 49.4063 27.9721L58.9874 51.9399H94.7498L104.588 27.33C105.499 25.051 105.205 22.4553 103.772 20.4624C97.8406 12.2112 88.1585 6.83789 77.221 6.83789Z" fill="#B76C4E"/>
<path d="M68.8133 22.6979C63.3396 21.0357 61.4596 12.6773 64.5464 9.39062C58.6699 11.8664 53.6677 16.009 50.1362 21.2294C49.4731 22.2083 49.0599 23.3347 48.9326 24.5103C48.8054 25.6858 48.9681 26.8745 49.4064 27.9726L58.9875 51.9404H67.3771L68.8133 22.6979Z" fill="#A05838"/>
<path d="M53.672 49.592C53.672 49.592 50.4445 41.7336 44.691 43.5579C38.9376 45.3823 44.8303 62.4119 56.0577 63.4848L53.672 49.592Z" fill="#EABE8D"/>
<path d="M100.327 49.592C100.327 49.592 103.555 41.7336 109.308 43.5579C115.061 45.3823 109.169 62.4119 97.9414 63.4848L100.327 49.592Z" fill="#F3D6AC"/>
<path d="M101.228 41.4552C99.1673 39.3945 98.0096 36.5996 98.0096 33.6854C98.0096 27.6168 93.0901 22.6973 87.0215 22.6973H66.9803C60.9118 22.6973 55.9922 27.6168 55.9922 33.6854C55.9922 36.5997 54.8345 39.3946 52.774 41.4552L49.7922 44.4369C49.7829 44.8261 49.7764 45.2167 49.7764 45.6105C49.7764 65.6582 61.9654 89.1697 77.0009 89.1697C92.0365 89.1697 104.225 65.6579 104.225 45.6105C104.225 45.2167 104.219 44.8264 104.21 44.4369L101.228 41.4552Z" fill="#F8E6CC"/>
<path d="M62.2071 45.6105C62.2071 36.5515 64.6981 28.6452 68.814 22.6973H66.9794C60.9108 22.6973 55.9913 27.6168 55.9913 33.6854C55.9913 36.5997 54.8336 39.3946 52.773 41.4552L49.7912 44.4369C49.7819 44.8261 49.7754 45.2167 49.7754 45.6105C49.7754 65.6582 61.9644 89.1697 76.9999 89.1697C79.1385 89.1697 81.2193 88.6927 83.2158 87.819C71.1754 82.5505 62.2071 62.8067 62.2071 45.6105Z" fill="#F3D6AC"/>
<path d="M76.9999 76.1396C75.305 76.1391 73.6299 75.7753 72.0875 75.0728C70.5451 74.3702 69.1712 73.3453 68.0583 72.0669C67.7875 71.7562 67.6512 71.3507 67.6794 70.9395C67.7076 70.5283 67.898 70.1451 68.2088 69.8743C68.5195 69.6035 68.925 69.4672 69.3362 69.4954C69.7474 69.5236 70.1306 69.714 70.4014 70.0247C72.0666 71.9355 74.4715 73.0316 76.9995 73.0316C79.5275 73.0316 81.9328 71.9358 83.5977 70.0247C83.8685 69.714 84.2516 69.5236 84.6628 69.4954C85.074 69.4672 85.4796 69.6035 85.7903 69.8743C86.101 70.1451 86.2914 70.5283 86.3197 70.9395C86.3479 71.3507 86.2116 71.7562 85.9408 72.0669C84.8281 73.3453 83.4543 74.3703 81.912 75.0729C80.3696 75.7754 78.6946 76.1391 76.9999 76.1396ZM72.6528 59.8111L75.2746 55.6337C76.0731 54.3617 77.9266 54.3617 78.7251 55.6337L81.3469 59.8111C82.1982 61.1677 81.2232 62.9309 79.6217 62.9309H74.3783C72.7765 62.9306 71.8015 61.1674 72.6528 59.8111Z" fill="#EABE8D"/>
<path d="M86.2563 51.5116C88.5267 53.3929 91.8888 53.3929 94.1592 51.5116C95.9179 50.0546 96.6477 47.8903 96.3568 45.8415C96.23 44.9499 95.3433 44.3702 94.4675 44.5803C93.7772 44.744 93.0774 44.8646 92.3721 44.9415L90.2077 47.2258L88.0434 44.9415C87.3381 44.8647 86.6383 44.7441 85.948 44.5803C85.0725 44.3699 84.1855 44.9499 84.0587 45.8415C83.7678 47.8903 84.4975 50.0546 86.2563 51.5116ZM59.8389 51.5116C62.1092 53.3929 65.4714 53.3929 67.7417 51.5116C69.5005 50.0546 70.2303 47.8903 69.9394 45.8415C69.8126 44.9499 68.9259 44.3702 68.05 44.5803C67.3597 44.744 66.6599 44.8646 65.9547 44.9415L63.7903 47.2258L61.6259 44.9415C60.9207 44.8647 60.2209 44.7441 59.5306 44.5803C58.6551 44.3699 57.7681 44.9499 57.6413 45.8415C57.3504 47.8903 58.0801 50.0546 59.8389 51.5116Z" fill="white"/>
<path d="M88.0448 44.9414C87.7095 45.3512 87.4974 45.8477 87.4332 46.3732C87.369 46.8988 87.4552 47.4318 87.6819 47.9102C87.9086 48.3887 88.2664 48.793 88.7138 49.0761C89.1612 49.3593 89.6797 49.5097 90.2092 49.5098C90.7386 49.5097 91.2571 49.3593 91.7045 49.0761C92.1519 48.793 92.5097 48.3887 92.7364 47.9102C92.9631 47.4318 93.0493 46.8988 92.9851 46.3732C92.9209 45.8477 92.7088 45.3512 92.3735 44.9414C90.935 45.1013 89.4833 45.1013 88.0448 44.9414ZM61.6274 44.9414C61.2921 45.3512 61.08 45.8477 61.0158 46.3732C60.9515 46.8988 61.0378 47.4318 61.2645 47.9102C61.4912 48.3887 61.849 48.793 62.2964 49.0761C62.7437 49.3593 63.2623 49.5097 63.7917 49.5098C64.3212 49.5097 64.8397 49.3593 65.2871 49.0761C65.7345 48.793 66.0923 48.3887 66.319 47.9102C66.5457 47.4318 66.6319 46.8988 66.5677 46.3732C66.5034 45.8477 66.2913 45.3512 65.9561 44.9414C64.5176 45.1013 63.0658 45.1013 61.6274 44.9414Z" fill="#162544"/>
<path d="M59.4254 34.3989L59.4257 34.3973C59.6706 33.483 60.4728 32.8325 61.4166 32.765C64.2091 32.5658 66.6899 33.2259 69.0227 34.8041C69.8071 35.3347 70.1776 36.2994 69.9324 37.214C69.5395 38.6797 67.8358 39.2942 66.5634 38.4675C65.1254 37.5332 63.4284 37.0785 61.7159 37.1686C60.2008 37.2485 59.0325 35.8646 59.4254 34.3989ZM94.5749 34.3989L94.5746 34.3973C94.3297 33.483 93.5275 32.8325 92.5836 32.765C89.7911 32.5658 87.3104 33.2259 84.9776 34.8041C84.1931 35.3347 83.8227 36.2994 84.0679 37.214C84.4607 38.6797 86.1645 39.2942 87.4369 38.4675C88.8749 37.5332 90.5719 37.0785 92.2843 37.1686C93.7994 37.2485 94.9677 35.8646 94.5749 34.3989Z" fill="#934A2E"/>
</svg>
