<svg width="75" height="75" viewBox="0 0 75 75" fill="none" xmlns="http://www.w3.org/2000/svg">
<rect width="75" height="75" rx="37.5" fill="white"/>
<g clip-path="url(#clip0_236_114)">
<path d="M54.4551 20.0181L54.4578 20.0182C54.7396 20.0337 54.965 20.2587 54.981 20.5406C54.987 20.6516 55.1487 23.7629 54.4089 27.8075C53.9734 30.1887 53.3142 32.3951 52.4527 34.3664L52.4527 34.3665C51.3642 36.8578 49.9475 38.9795 48.2474 40.6797C47.0839 41.8431 45.7398 42.8647 44.2207 43.7402L43.6555 44.0658L44.1169 44.527L45.318 45.7277C45.318 45.7277 45.3181 45.7277 45.3181 45.7277C45.3181 45.7277 45.3181 45.7278 45.3181 45.7278C45.399 45.8087 45.4529 45.9127 45.4724 46.0254C45.4919 46.1382 45.4762 46.2542 45.4272 46.3577C45.4272 46.3577 45.4272 46.3577 45.4272 46.3577L41.4839 54.6817C41.4376 54.7795 41.3636 54.8617 41.2711 54.918C41.1786 54.9743 41.0717 55.0023 40.9634 54.9986L28.258 54.5606C28.1499 54.5568 28.0454 54.5216 27.9571 54.4593L27.6687 54.8677L27.9571 54.4593C27.8688 54.3969 27.8007 54.3102 27.7611 54.2096C27.7215 54.1091 27.7121 53.9991 27.7341 53.8933C27.7562 53.7875 27.8086 53.6905 27.8851 53.6141L27.8852 53.6139L35.0252 46.4734L35.3787 46.1199L35.0251 45.7663L32.8746 43.6158L32.521 43.2622L32.1675 43.6158L25.0272 50.7563C24.9187 50.8648 24.7776 50.9189 24.6348 50.9189H24.6342C24.5616 50.9189 24.4896 50.9047 24.4225 50.8769C24.3554 50.849 24.2944 50.8082 24.2431 50.7568L24.2428 50.7565C24.0261 50.5397 24.0261 50.1884 24.2428 49.9716L31.3832 42.8315L31.7368 42.4779L31.3832 42.1243L29.2324 39.9738L28.8788 39.6203L28.5253 39.9738L21.3849 47.114L21.3848 47.1141C21.3084 47.1905 21.2114 47.2429 21.1057 47.2649C20.9999 47.2869 20.89 47.2775 20.7895 47.2379L20.7895 47.2378C20.6889 47.1982 20.6022 47.1301 20.5399 47.0418C20.4775 46.9535 20.4424 46.849 20.4386 46.741L20.4386 46.741L20.0003 34.0357C20.0003 34.0357 20.0003 34.0357 20.0003 34.0357C20.0003 34.0356 20.0003 34.0356 20.0003 34.0356C19.9967 33.9273 20.0247 33.8204 20.081 33.7279C20.1374 33.6354 20.2196 33.5614 20.3175 33.5149L28.6416 29.5723L28.6417 29.5723C28.7451 29.5233 28.861 29.5075 28.9737 29.527C29.0864 29.5465 29.1903 29.6004 29.2712 29.6813L29.2712 29.6814L30.4723 30.8822L30.9335 31.3433L31.2591 30.7783C32.1343 29.2595 33.1558 27.9153 34.3196 26.7516C36.9919 24.0793 40.6365 22.1448 45.1786 21.0219L45.0586 20.5365L45.1786 21.0219C48.7748 20.1329 51.9705 20 53.5519 20C53.8377 20 54.0627 20.0045 54.2169 20.009C54.2941 20.0112 54.3535 20.0135 54.394 20.0152C54.4317 20.0168 54.452 20.0179 54.4548 20.0181L54.4551 20.0181ZM21.4187 34.2208L21.1217 34.3615L21.1331 34.6899L21.4635 44.2771L21.5032 45.427L22.3168 44.6134L28.268 38.6621L28.3714 38.5588L28.4028 38.4161C28.862 36.3312 29.4854 34.4257 30.2685 32.7069L30.4123 32.3913L30.1671 32.1461L29.0124 30.9911L28.7633 30.7419L28.4448 30.8928L21.4187 34.2208ZM44.1065 46.5545L44.2574 46.236L44.0081 45.9868L42.8529 44.8319L42.6077 44.5868L42.2921 44.7305C40.5732 45.5135 38.6678 46.137 36.5825 46.5962L36.4398 46.6276L36.3365 46.731L30.3855 52.6822L29.572 53.4958L30.7218 53.5355L40.309 53.8661L40.6374 53.8775L40.7781 53.5805L44.1065 46.5545ZM53.3081 27.6596C53.7868 25.067 53.8803 22.8365 53.8885 21.613L53.8919 21.1065L53.3854 21.1097C51.8799 21.119 48.7835 21.2613 45.3339 22.1273C41.8881 22.9923 38.0504 24.5893 35.1039 27.5359L35.1038 27.5359C33.7298 28.91 32.5694 30.5517 31.6253 32.4414L31.6149 32.4621L31.6065 32.4837C31.5952 32.513 31.5803 32.543 31.5615 32.5736L31.5489 32.5941L31.5384 32.6157C30.6958 34.3399 30.0306 36.2676 29.5455 38.3865L29.4838 38.6561L29.6794 38.8516L32.1675 41.3398L32.5211 41.6933L32.8746 41.3398L36.5103 37.7044L36.5103 37.7044C36.7269 37.4878 37.0781 37.4879 37.2944 37.7043L37.2945 37.7045C37.5113 37.9211 37.5113 38.2722 37.2945 38.489L33.6591 42.1244L33.3056 42.4779L33.6591 42.8315L36.1473 45.3196L36.3429 45.5151L36.6124 45.4534C38.7316 44.9681 40.6595 44.3032 42.3838 43.4605L42.4054 43.45L42.4259 43.4374C42.4578 43.4178 42.4867 43.4036 42.5132 43.3934L42.5357 43.3848L42.5572 43.374C44.4473 42.4298 46.0889 41.2692 47.4631 39.8951C51.1141 36.2442 52.6546 31.2025 53.3081 27.6596Z" fill="#2D060F" stroke="#2D060F"/>
<path d="M46.9329 28.0662L46.9328 28.0661C46.2421 27.3754 45.3267 26.9961 44.3501 26.9961C43.3733 26.9961 42.4579 27.3754 41.7672 28.0661L41.7672 28.0661C41.0766 28.7565 40.6973 29.6722 40.6973 30.649C40.6973 31.6257 41.0765 32.541 41.7672 33.2317C41.7672 33.2317 41.7672 33.2317 41.7672 33.2317M46.9329 28.0662L47.2867 33.5851C46.502 34.3695 45.4591 34.8015 44.3501 34.8015C43.2407 34.8015 42.1981 34.3695 41.4137 33.5853L41.7672 33.2317M46.9329 28.0662C48.3567 29.4897 48.3567 31.8076 46.9331 33.2315M46.9329 28.0662L46.9331 33.2315M41.7672 33.2317C42.4579 33.9222 43.3733 34.3015 44.3501 34.3015C45.3264 34.3015 46.2421 33.9222 46.9331 33.2315M41.7672 33.2317L46.9331 33.2315M46.1484 28.8503L46.1485 28.8504C47.1404 29.8422 47.1403 31.4551 46.1486 32.4471L46.1486 32.4471C45.6689 32.9269 45.0283 33.1921 44.3501 33.1921C43.6717 33.1921 43.0315 32.9268 42.5516 32.4473L42.5515 32.4472C42.0719 31.9676 41.8066 31.3273 41.8066 30.6489C41.8066 29.9703 42.0719 29.33 42.5518 28.8503L46.1484 28.8503ZM46.1484 28.8503C45.6686 28.3707 45.0285 28.1055 44.3501 28.1055C43.6717 28.1055 43.0315 28.3707 42.5519 28.8502L46.1484 28.8503Z" fill="#2D060F" stroke="#2D060F"/>
</g>
<defs>
<clipPath id="clip0_236_114">
<rect width="36" height="36" fill="white" transform="translate(19.5 19.5)"/>
</clipPath>
</defs>
</svg>
