<svg version="1.1" id="Layer_1" xmlns="http://www.w3.org/2000/svg" xmlns:xlink="http://www.w3.org/1999/xlink" x="0px" y="0px"
	 width="100%" viewBox="0 0 500 500" enable-background="new 0 0 500 500" xml:space="preserve">
<path fill="#FFFFFF" opacity="1.000000" stroke="none" 
	d="
M236.000000,501.000000 
	C157.333359,501.000000 79.166702,501.000000 1.000042,501.000000 
	C1.000028,334.333405 1.000028,167.666779 1.000014,1.000131 
	C167.666565,1.000088 334.333130,1.000088 500.999756,1.000044 
	C500.999847,167.666519 500.999847,334.333038 500.999939,500.999786 
	C412.833344,501.000000 324.666656,501.000000 236.000000,501.000000 
M282.438171,124.104210 
	C258.020416,89.850555 224.806259,75.292915 183.258957,81.004471 
	C131.868118,88.069229 91.334229,137.947525 100.445831,195.600800 
	C107.900047,242.766922 150.254227,281.454193 202.530151,279.165405 
	C237.651978,277.627686 265.152222,262.298553 283.475861,232.759430 
	C305.599640,197.094116 304.487732,160.600632 282.438171,124.104210 
M148.068665,437.761902 
	C148.063293,435.102234 147.757523,432.403290 148.099533,429.789062 
	C151.164856,406.359100 153.333344,382.750122 157.779678,359.580261 
	C162.062973,337.259979 158.039429,316.020844 153.946640,294.848816 
	C142.742035,294.848816 131.736069,294.194000 120.829773,294.959381 
	C66.497627,298.772217 23.050562,345.680359 23.003630,400.166046 
	C22.981670,425.660828 22.989830,451.155701 23.004690,476.650513 
	C23.010880,487.266510 27.935024,492.156128 38.596218,492.157562 
	C87.086380,492.164124 135.576553,492.160492 184.066711,492.160492 
	C185.638519,492.160492 187.210312,492.160492 189.662964,492.160492 
	C188.212204,490.172577 187.409149,488.982910 186.517410,487.863922 
	C176.343430,475.097778 166.107498,462.380585 156.003571,449.559357 
	C153.238007,446.050110 150.857559,442.237366 148.068665,437.761902 
M301.435822,484.101746 
	C308.706024,489.659119 316.884888,492.221771 326.064911,492.199036 
	C363.053375,492.107391 400.042175,492.162384 437.030853,492.160583 
	C461.536682,492.159424 478.727905,475.037384 478.826630,450.404266 
	C478.904083,431.077148 478.848114,411.749512 478.829834,392.422089 
	C478.828491,391.002838 478.651978,389.583771 478.566467,388.307251 
	C413.979950,388.307251 349.910980,388.307251 285.799042,388.307251 
	C285.799042,410.572449 285.614319,432.532318 285.872375,454.487000 
	C286.013916,466.527405 291.640778,476.119049 301.435822,484.101746 
M406.676788,259.419739 
	C393.032166,259.226013 379.388000,258.926117 365.742767,258.864014 
	C346.409271,258.776001 333.171448,272.108307 333.156342,291.478760 
	C333.151093,298.249756 333.155518,305.020752 333.155518,312.202515 
	C318.887482,311.336517 306.522369,314.408173 296.683167,324.683746 
	C286.845612,334.957611 284.604797,347.344543 285.695343,360.831787 
	C350.338470,360.831787 414.389801,360.831787 478.633789,360.831787 
	C479.469849,349.299713 478.111115,338.636810 471.341248,329.210052 
	C461.462646,315.454437 447.375519,311.175323 431.002167,312.135101 
	C431.002167,304.477722 431.013306,297.501312 430.999908,290.524994 
	C430.970856,275.371704 422.169312,263.858948 406.676788,259.419739 
M229.995926,458.494904 
	C221.255432,469.459381 212.514923,480.423889 203.411072,491.844208 
	C226.586823,491.844208 248.778366,491.844208 270.862152,491.844208 
	C271.016327,491.366730 271.156769,491.159332 271.102264,491.066772 
	C270.176971,489.495392 269.207062,487.950195 268.286682,486.376038 
	C262.468079,476.424103 259.077026,465.722687 259.030396,454.161255 
	C258.894714,420.521942 258.899384,386.881989 258.858185,353.242310 
	C258.838074,336.818787 263.956238,322.197266 274.406342,309.510742 
	C278.084625,305.045319 281.964447,300.745911 286.217163,295.833710 
	C270.954529,295.102509 255.139694,294.344849 239.236755,293.582977 
	C238.161880,299.697815 237.015152,304.737244 236.432098,309.841034 
	C235.141647,321.137421 231.599289,332.058258 233.367462,343.850098 
	C237.756805,373.122070 241.472183,402.500092 244.985809,431.891998 
	C245.427109,435.583374 243.785538,440.075562 241.771484,443.381989 
	C238.592957,448.600098 234.280853,453.127716 229.995926,458.494904 
z"/>
<path fill="#DF1F4B" opacity="1.000000" stroke="none" 
	d="
M282.642212,124.404434 
	C304.487732,160.600632 305.599640,197.094116 283.475861,232.759430 
	C265.152222,262.298553 237.651978,277.627686 202.530151,279.165405 
	C150.254227,281.454193 107.900047,242.766922 100.445831,195.600800 
	C91.334229,137.947525 131.868118,88.069229 183.258957,81.004471 
	C224.806259,75.292915 258.020416,89.850555 282.642212,124.404434 
z"/>
<path fill="#DF1F4B" opacity="1.000000" stroke="none" 
	d="
M148.184509,438.162903 
	C150.857559,442.237366 153.238007,446.050110 156.003571,449.559357 
	C166.107498,462.380585 176.343430,475.097778 186.517410,487.863922 
	C187.409149,488.982910 188.212204,490.172577 189.662964,492.160492 
	C187.210312,492.160492 185.638519,492.160492 184.066711,492.160492 
	C135.576553,492.160492 87.086380,492.164124 38.596218,492.157562 
	C27.935024,492.156128 23.010880,487.266510 23.004690,476.650513 
	C22.989830,451.155701 22.981670,425.660828 23.003630,400.166046 
	C23.050562,345.680359 66.497627,298.772217 120.829773,294.959381 
	C131.736069,294.194000 142.742035,294.848816 153.946640,294.848816 
	C158.039429,316.020844 162.062973,337.259979 157.779678,359.580261 
	C153.333344,382.750122 151.164856,406.359100 148.099533,429.789062 
	C147.757523,432.403290 148.063293,435.102234 148.184509,438.162903 
z"/>
<path fill="#DF1F4C" opacity="1.000000" stroke="none" 
	d="
M301.138916,483.901184 
	C291.640778,476.119049 286.013916,466.527405 285.872375,454.487000 
	C285.614319,432.532318 285.799042,410.572449 285.799042,388.307251 
	C349.910980,388.307251 413.979950,388.307251 478.566467,388.307251 
	C478.651978,389.583771 478.828491,391.002838 478.829834,392.422089 
	C478.848114,411.749512 478.904083,431.077148 478.826630,450.404266 
	C478.727905,475.037384 461.536682,492.159424 437.030853,492.160583 
	C400.042175,492.162384 363.053375,492.107391 326.064911,492.199036 
	C316.884888,492.221771 308.706024,489.659119 301.138916,483.901184 
z"/>
<path fill="#DF204C" opacity="1.000000" stroke="none" 
	d="
M407.074432,259.574219 
	C422.169312,263.858948 430.970856,275.371704 430.999908,290.524994 
	C431.013306,297.501312 431.002167,304.477722 431.002167,312.135101 
	C447.375519,311.175323 461.462646,315.454437 471.341248,329.210052 
	C478.111115,338.636810 479.469849,349.299713 478.633789,360.831787 
	C414.389801,360.831787 350.338470,360.831787 285.695343,360.831787 
	C284.604797,347.344543 286.845612,334.957611 296.683167,324.683746 
	C306.522369,314.408173 318.887482,311.336517 333.155518,312.202515 
	C333.155518,305.020752 333.151093,298.249756 333.156342,291.478760 
	C333.171448,272.108307 346.409271,258.776001 365.742767,258.864014 
	C379.388000,258.926117 393.032166,259.226013 407.074432,259.574219 
M394.421936,285.562469 
	C384.945831,285.563232 375.469727,285.572632 365.993622,285.559937 
	C362.887329,285.555756 360.125885,286.214935 360.053741,289.981110 
	C359.914612,297.243317 360.013153,304.510101 360.013153,311.811798 
	C375.071869,311.811798 389.600189,311.811798 404.437439,311.811798 
	C404.437439,305.833801 404.442566,300.198059 404.436218,294.562317 
	C404.426697,286.079468 403.934967,285.593597 394.421936,285.562469 
z"/>
<path fill="#DF214E" opacity="1.000000" stroke="none" 
	d="
M230.222229,458.221252 
	C234.280853,453.127716 238.592957,448.600098 241.771484,443.381989 
	C243.785538,440.075562 245.427109,435.583374 244.985809,431.891998 
	C241.472183,402.500092 237.756805,373.122070 233.367462,343.850098 
	C231.599289,332.058258 235.141647,321.137421 236.432098,309.841034 
	C237.015152,304.737244 238.161880,299.697815 239.236755,293.582977 
	C255.139694,294.344849 270.954529,295.102509 286.217163,295.833710 
	C281.964447,300.745911 278.084625,305.045319 274.406342,309.510742 
	C263.956238,322.197266 258.838074,336.818787 258.858185,353.242310 
	C258.899384,386.881989 258.894714,420.521942 259.030396,454.161255 
	C259.077026,465.722687 262.468079,476.424103 268.286682,486.376038 
	C269.207062,487.950195 270.176971,489.495392 271.102264,491.066772 
	C271.156769,491.159332 271.016327,491.366730 270.862152,491.844208 
	C248.778366,491.844208 226.586823,491.844208 203.411072,491.844208 
	C212.514923,480.423889 221.255432,469.459381 230.222229,458.221252 
z"/>
<path fill="#FFFFFF" opacity="1.000000" stroke="none" 
	d="
M394.907135,285.562286 
	C403.934967,285.593597 404.426697,286.079468 404.436218,294.562317 
	C404.442566,300.198059 404.437439,305.833801 404.437439,311.811798 
	C389.600189,311.811798 375.071869,311.811798 360.013153,311.811798 
	C360.013153,304.510101 359.914612,297.243317 360.053741,289.981110 
	C360.125885,286.214935 362.887329,285.555756 365.993622,285.559937 
	C375.469727,285.572632 384.945831,285.563232 394.907135,285.562286 
z"/>
</svg>