<svg version="1.1" id="Layer_1" xmlns="http://www.w3.org/2000/svg" xmlns:xlink="http://www.w3.org/1999/xlink" x="0px" y="0px"
	 width="100%" viewBox="0 0 500 500" enable-background="new 0 0 500 500" xml:space="preserve">
<path fill="#000000" opacity="1.000000" stroke="none" 
	d="
M335.000000,501.000000 
	C223.333359,501.000000 112.166718,501.000000 1.000060,501.000000 
	C1.000040,334.333405 1.000040,167.666794 1.000020,1.000149 
	C167.666565,1.000099 334.333130,1.000099 500.999756,1.000050 
	C500.999847,167.666519 500.999847,334.333038 500.999939,500.999786 
	C445.833344,501.000000 390.666656,501.000000 335.000000,501.000000 
M258.976471,351.132416 
	C260.371124,329.212860 269.651855,311.389557 288.015900,297.596252 
	C270.775055,292.767914 254.454056,295.883514 238.522537,294.934418 
	C237.724899,299.511444 236.790939,303.352417 236.426346,307.246704 
	C235.320282,319.060822 230.469482,330.507782 232.930054,342.673431 
	C233.351807,344.758698 233.726837,346.859955 233.985107,348.970703 
	C235.379807,360.368622 236.601883,371.789154 238.127899,383.169098 
	C240.303970,399.396820 242.851959,415.576477 244.845917,431.825134 
	C245.217453,434.852783 244.632202,438.752014 242.932755,441.143402 
	C236.954208,449.556213 230.302689,457.491119 223.897125,465.599945 
	C217.192734,474.087036 210.477478,482.565552 203.119415,491.517334 
	C204.058777,492.011627 204.996445,492.933716 205.937729,492.937408 
	C226.891785,493.019409 247.846283,493.018280 268.800415,492.944855 
	C269.817261,492.941315 270.831299,492.133331 271.626404,491.084991 
	C263.091888,479.787689 259.887604,466.703796 258.966766,451.988434 
	C258.925964,418.654419 258.885132,385.320404 258.976471,351.132416 
M285.319794,361.808105 
	C285.979309,361.871796 286.638794,361.991119 287.298309,361.991211 
	C349.897736,361.999908 412.497162,361.999847 475.096588,361.996582 
	C476.092773,361.996521 477.157379,362.148743 478.055145,361.838959 
	C478.479828,361.692444 478.585144,360.620361 478.968658,359.049500 
	C478.652313,353.798462 479.041840,348.386536 477.888519,343.326263 
	C474.288574,327.531158 457.952087,311.477234 439.227661,312.971497 
	C436.634552,313.178436 434.010681,313.000061 430.999786,313.000061 
	C430.999786,304.982941 430.450989,297.484497 431.117676,290.095764 
	C432.380524,276.099854 418.331543,260.433716 403.647583,258.121216 
	C390.121399,258.081940 376.595184,258.030365 363.069031,258.039124 
	C362.379852,258.039551 361.690979,258.559021 360.195038,258.958618 
	C351.243774,260.510834 343.176788,263.733093 338.527435,272.123260 
	C336.296600,276.148926 334.917786,280.646759 332.994934,285.872101 
	C332.974091,294.557678 332.953217,303.243225 332.099854,311.987549 
	C329.347595,312.322479 326.568695,313.085114 323.847809,312.915863 
	C313.855042,312.294220 305.351318,315.881073 298.234253,322.381256 
	C286.913940,332.720367 284.057281,346.226990 285.319794,361.808105 
M285.067444,455.861969 
	C286.036591,459.439667 286.919678,463.043335 287.990051,466.590485 
	C292.265381,480.758636 308.103668,491.983124 321.383301,492.881561 
	C361.077148,492.920807 400.770996,492.965454 440.464844,492.963257 
	C441.316254,492.963196 442.167664,492.424866 443.865204,492.038269 
	C452.838409,491.881927 460.171387,487.699860 466.476074,481.919220 
	C473.648224,475.343292 477.621063,466.853302 479.036926,456.198212 
	C479.023438,435.162415 479.031433,414.126495 478.954742,393.090942 
	C478.948761,391.448242 478.350555,389.807678 477.095337,388.031372 
	C422.704102,388.020935 368.312836,388.002594 313.921600,388.007690 
	C304.610138,388.008545 295.298706,388.109467 285.169617,388.449768 
	C285.166626,410.658936 285.163635,432.868134 285.067444,455.861969 
M188.905106,490.339386 
	C187.840805,489.285767 186.660629,488.325043 185.730179,487.164124 
	C176.548447,475.708221 167.779953,463.894714 158.138046,452.842346 
	C150.470383,444.053040 146.415192,435.087463 148.892090,423.043823 
	C151.656326,409.603027 153.050751,395.878784 154.991119,382.270752 
	C156.655731,370.596741 158.379272,358.928589 159.815338,347.225769 
	C160.454208,342.019318 160.921906,336.705536 160.607513,331.492371 
	C160.285034,326.144867 158.914474,320.860382 157.998978,315.548920 
	C156.791397,308.542694 155.580276,301.537109 154.451462,294.999084 
	C146.921082,294.999084 139.982330,295.190979 133.058228,294.954437 
	C122.487411,294.593262 112.078918,294.901489 101.777725,297.910706 
	C86.207489,302.459076 71.782288,309.140656 59.624683,319.965027 
	C47.362289,330.882690 37.605774,343.672058 31.308582,359.078430 
	C27.001602,369.615631 23.373400,380.408203 23.174269,391.674042 
	C22.650404,421.311462 22.958580,450.963989 22.988411,480.610443 
	C22.994854,487.013702 27.410290,491.528900 34.417862,492.885498 
	C85.248276,492.923737 136.078690,492.962250 186.909103,492.997345 
	C187.741638,492.997925 188.574188,492.956177 189.406738,492.934174 
	C189.316849,492.285370 189.226944,491.636536 188.905106,490.339386 
M199.487579,279.999573 
	C203.258301,279.685333 207.033051,279.412750 210.799118,279.050262 
	C237.931396,276.438599 260.046600,263.948517 277.059265,243.208496 
	C293.505951,223.158371 301.050751,199.884369 299.180542,173.523163 
	C298.016724,157.118896 293.634491,142.107346 285.056244,128.189056 
	C274.981537,111.842781 261.552856,98.945854 244.499985,90.236328 
	C228.500916,82.065033 211.267990,79.395515 193.286285,79.853310 
	C179.022110,80.216461 165.697113,83.938896 153.249115,90.087181 
	C133.362976,99.909302 118.684891,115.224808 109.026627,135.426376 
	C100.268707,153.744766 97.379250,172.704865 99.872833,192.833801 
	C102.362572,212.931717 110.147392,230.631882 123.294846,245.692703 
	C143.068695,268.344208 168.560532,279.264343 199.487579,279.999573 
z"/>
<path fill="#DF1E4B" opacity="1.000000" stroke="none" 
	d="
M199.001572,279.999573 
	C168.560532,279.264343 143.068695,268.344208 123.294846,245.692703 
	C110.147392,230.631882 102.362572,212.931717 99.872833,192.833801 
	C97.379250,172.704865 100.268707,153.744766 109.026627,135.426376 
	C118.684891,115.224808 133.362976,99.909302 153.249115,90.087181 
	C165.697113,83.938896 179.022110,80.216461 193.286285,79.853310 
	C211.267990,79.395515 228.500916,82.065033 244.499985,90.236328 
	C261.552856,98.945854 274.981537,111.842781 285.056244,128.189056 
	C293.634491,142.107346 298.016724,157.118896 299.180542,173.523163 
	C301.050751,199.884369 293.505951,223.158371 277.059265,243.208496 
	C260.046600,263.948517 237.931396,276.438599 210.799118,279.050262 
	C207.033051,279.412750 203.258301,279.685333 199.001572,279.999573 
z"/>
<path fill="#DF1E4B" opacity="1.000000" stroke="none" 
	d="
M33.980373,492.136993 
	C27.410290,491.528900 22.994854,487.013702 22.988411,480.610443 
	C22.958580,450.963989 22.650404,421.311462 23.174269,391.674042 
	C23.373400,380.408203 27.001602,369.615631 31.308582,359.078430 
	C37.605774,343.672058 47.362289,330.882690 59.624683,319.965027 
	C71.782288,309.140656 86.207489,302.459076 101.777725,297.910706 
	C112.078918,294.901489 122.487411,294.593262 133.058228,294.954437 
	C139.982330,295.190979 146.921082,294.999084 154.451462,294.999084 
	C155.580276,301.537109 156.791397,308.542694 157.998978,315.548920 
	C158.914474,320.860382 160.285034,326.144867 160.607513,331.492371 
	C160.921906,336.705536 160.454208,342.019318 159.815338,347.225769 
	C158.379272,358.928589 156.655731,370.596741 154.991119,382.270752 
	C153.050751,395.878784 151.656326,409.603027 148.892090,423.043823 
	C146.415192,435.087463 150.470383,444.053040 158.138046,452.842346 
	C167.779953,463.894714 176.548447,475.708221 185.730179,487.164124 
	C186.660629,488.325043 187.840805,489.285767 188.771011,491.025726 
	C186.152328,491.808075 183.667831,491.984955 181.183121,491.988068 
	C132.115555,492.049805 83.047958,492.091339 33.980373,492.136993 
z"/>
<path fill="#DF1E4B" opacity="1.000000" stroke="none" 
	d="
M285.987244,388.164185 
	C295.298706,388.109467 304.610138,388.008545 313.921600,388.007690 
	C368.312836,388.002594 422.704102,388.020935 477.557251,388.556671 
	C477.999481,410.531982 477.964966,431.982056 477.998444,453.431976 
	C478.000366,454.671600 478.555542,455.910370 478.853271,457.149536 
	C477.621063,466.853302 473.648224,475.343292 466.476074,481.919220 
	C460.171387,487.699860 452.838409,491.881927 442.975708,492.026001 
	C401.711670,492.048157 361.337158,492.082581 320.962646,492.116974 
	C308.103668,491.983124 292.265381,480.758636 287.990051,466.590485 
	C286.919678,463.043335 286.036591,459.439667 285.430664,455.178833 
	C285.858337,432.385223 285.922760,410.274689 285.987244,388.164185 
z"/>
<path fill="#DF1E4B" opacity="1.000000" stroke="none" 
	d="
M333.153107,284.930756 
	C334.917786,280.646759 336.296600,276.148926 338.527435,272.123260 
	C343.176788,263.733093 351.243774,260.510834 361.063477,258.961304 
	C375.972260,258.942535 390.012604,258.921112 404.052917,258.899719 
	C418.331543,260.433716 432.380524,276.099854 431.117676,290.095764 
	C430.450989,297.484497 430.999786,304.982941 430.999786,313.000061 
	C434.010681,313.000061 436.634552,313.178436 439.227661,312.971497 
	C457.952087,311.477234 474.288574,327.531158 477.888519,343.326263 
	C479.041840,348.386536 478.652313,353.798462 478.534180,359.700378 
	C476.996368,360.567749 475.893066,360.973541 474.789673,360.973694 
	C411.581421,360.981842 348.373199,360.956268 285.164948,360.934021 
	C284.057281,346.226990 286.913940,332.720367 298.234253,322.381256 
	C305.351318,315.881073 313.855042,312.294220 323.847809,312.915863 
	C326.568695,313.085114 329.347595,312.322479 332.797302,311.659973 
	C333.380890,302.531830 333.266998,293.731293 333.153107,284.930756 
M403.994415,310.883667 
	C403.996277,304.620026 404.237396,298.342255 403.867737,292.100616 
	C403.741516,289.969818 402.081116,287.929932 400.441772,285.328247 
	C390.711334,285.217773 380.980865,285.040466 371.250427,285.039673 
	C368.511261,285.039459 365.772003,285.557098 362.348419,286.193695 
	C361.565582,288.400269 360.208252,290.581360 360.109131,292.818237 
	C359.827118,299.183533 360.058044,305.571533 360.684143,312.509583 
	C374.415588,312.646545 388.146912,312.800507 401.878662,312.871643 
	C402.587372,312.875305 403.299744,312.170227 403.994415,310.883667 
z"/>
<path fill="#DF1F4C" opacity="1.000000" stroke="none" 
	d="
M258.827820,452.901093 
	C259.887604,466.703796 263.091888,479.787689 271.284912,491.477478 
	C249.597183,491.912903 228.250977,491.969360 206.904785,491.958130 
	C205.858688,491.957581 204.812912,491.364807 203.766968,491.047791 
	C210.477478,482.565552 217.192734,474.087036 223.897125,465.599945 
	C230.302689,457.491119 236.954208,449.556213 242.932755,441.143402 
	C244.632202,438.752014 245.217453,434.852783 244.845917,431.825134 
	C242.851959,415.576477 240.303970,399.396820 238.127899,383.169098 
	C236.601883,371.789154 235.379807,360.368622 233.985107,348.970703 
	C233.726837,346.859955 233.351807,344.758698 232.930054,342.673431 
	C230.469482,330.507782 235.320282,319.060822 236.426346,307.246704 
	C236.790939,303.352417 237.724899,299.511444 238.522537,294.934418 
	C254.454056,295.883514 270.775055,292.767914 288.015900,297.596252 
	C269.651855,311.389557 260.371124,329.212860 258.684875,351.908569 
	C258.264557,353.668976 258.024017,354.653168 258.023346,355.637512 
	C258.002289,386.617462 257.993561,417.597412 258.038361,448.577271 
	C258.040436,450.018921 258.553009,451.459839 258.827820,452.901093 
z"/>
<path fill="#F7C7D2" opacity="1.000000" stroke="none" 
	d="
M285.242371,361.371063 
	C348.373199,360.956268 411.581421,360.981842 474.789673,360.973694 
	C475.893066,360.973541 476.996368,360.567749 478.467438,360.159424 
	C478.585144,360.620361 478.479828,361.692444 478.055145,361.838959 
	C477.157379,362.148743 476.092773,361.996521 475.096588,361.996582 
	C412.497162,361.999847 349.897736,361.999908 287.298309,361.991211 
	C286.638794,361.991119 285.979309,361.871796 285.242371,361.371063 
z"/>
<path fill="#F7C7D2" opacity="1.000000" stroke="none" 
	d="
M34.199120,492.511230 
	C83.047958,492.091339 132.115555,492.049805 181.183121,491.988068 
	C183.667831,491.984955 186.152328,491.808075 188.886993,491.349915 
	C189.226944,491.636536 189.316849,492.285370 189.406738,492.934174 
	C188.574188,492.956177 187.741638,492.997925 186.909103,492.997345 
	C136.078690,492.962250 85.248276,492.923737 34.199120,492.511230 
z"/>
<path fill="#F7C7D2" opacity="1.000000" stroke="none" 
	d="
M321.172974,492.499268 
	C361.337158,492.082581 401.711670,492.048157 442.552612,492.075714 
	C442.167664,492.424866 441.316254,492.963196 440.464844,492.963257 
	C400.770996,492.965454 361.077148,492.920807 321.172974,492.499268 
z"/>
<path fill="#E75677" opacity="1.000000" stroke="none" 
	d="
M258.897278,452.444763 
	C258.553009,451.459839 258.040436,450.018921 258.038361,448.577271 
	C257.993561,417.597412 258.002289,386.617462 258.023346,355.637512 
	C258.024017,354.653168 258.264557,353.668976 258.618805,352.335541 
	C258.885132,385.320404 258.925964,418.654419 258.897278,452.444763 
z"/>
<path fill="#F7C7D2" opacity="1.000000" stroke="none" 
	d="
M203.443207,491.282562 
	C204.812912,491.364807 205.858688,491.957581 206.904785,491.958130 
	C228.250977,491.969360 249.597183,491.912903 271.395020,491.784943 
	C270.831299,492.133331 269.817261,492.941315 268.800415,492.944855 
	C247.846283,493.018280 226.891785,493.019409 205.937729,492.937408 
	C204.996445,492.933716 204.058777,492.011627 203.443207,491.282562 
z"/>
<path fill="#E75879" opacity="1.000000" stroke="none" 
	d="
M478.945099,456.673889 
	C478.555542,455.910370 478.000366,454.671600 477.998444,453.431976 
	C477.964966,431.982056 477.999481,410.531982 478.023346,388.624054 
	C478.350555,389.807678 478.948761,391.448242 478.954742,393.090942 
	C479.031433,414.126495 479.023438,435.162415 478.945099,456.673889 
z"/>
<path fill="#EF8FA6" opacity="1.000000" stroke="none" 
	d="
M285.578430,388.306976 
	C285.922760,410.274689 285.858337,432.385223 285.477295,454.786499 
	C285.163635,432.868134 285.166626,410.658936 285.578430,388.306976 
z"/>
<path fill="#F7C8D4" opacity="1.000000" stroke="none" 
	d="
M403.850250,258.510468 
	C390.012604,258.921112 375.972260,258.942535 361.466980,258.900391 
	C361.690979,258.559021 362.379852,258.039551 363.069031,258.039124 
	C376.595184,258.030365 390.121399,258.081940 403.850250,258.510468 
z"/>
<path fill="#E75879" opacity="1.000000" stroke="none" 
	d="
M333.074036,285.401428 
	C333.266998,293.731293 333.380890,302.531830 333.213562,311.630585 
	C332.953217,303.243225 332.974091,294.557678 333.074036,285.401428 
z"/>
<path fill="#000000" opacity="1.000000" stroke="none" 
	d="
M401.121735,285.848480 
	C402.081116,287.929932 403.741516,289.969818 403.867737,292.100616 
	C404.237396,298.342255 403.996277,304.620026 403.537903,311.425842 
	C388.749969,311.962189 374.418518,311.956390 360.087097,311.950623 
	C360.058044,305.571533 359.827118,299.183533 360.109131,292.818237 
	C360.208252,290.581360 361.565582,288.400269 363.155212,286.078461 
	C376.348572,285.924988 388.735168,285.886719 401.121735,285.848480 
z"/>
<path fill="#E75677" opacity="1.000000" stroke="none" 
	d="
M360.385620,312.230103 
	C374.418518,311.956390 388.749969,311.962189 403.545898,311.881531 
	C403.299744,312.170227 402.587372,312.875305 401.878662,312.871643 
	C388.146912,312.800507 374.415588,312.646545 360.385620,312.230103 
z"/>
<path fill="#EF8DA4" opacity="1.000000" stroke="none" 
	d="
M400.781738,285.588379 
	C388.735168,285.886719 376.348572,285.924988 363.497406,285.900208 
	C365.772003,285.557098 368.511261,285.039459 371.250427,285.039673 
	C380.980865,285.040466 390.711334,285.217773 400.781738,285.588379 
z"/>
</svg>