<svg width="70" height="70" viewBox="0 0 70 70" fill="none" xmlns="http://www.w3.org/2000/svg">
<path d="M60.6629 21.249L60.8609 21.0226L62.6435 19.2401L65.869 16.0145C67.3403 14.5432 68.1609 12.5909 68.1609 10.5255C68.1609 8.45998 67.3403 6.50768 65.869 5.03638L64.9636 4.13096C62.021 1.18836 56.928 1.18836 53.9854 4.13096L50.7599 7.35651L4.9232 53.1932L4.61196 53.5044L1.41471 68.5853L16.4956 65.388L60.6629 21.249ZM55.9943 6.11156C57.8618 4.27243 61.0873 4.24414 62.9547 6.11156L63.8884 7.04527C64.8221 7.97898 65.3314 9.19563 65.3314 10.5255C65.3314 11.8553 64.8221 13.0719 63.8884 14.0057L60.6629 17.2312L52.7688 9.3371L55.9943 6.11156ZM50.7599 11.346L53.7025 14.2886L10.865 57.1261L7.92239 54.1835L50.7599 11.346ZM5.09297 64.907L6.76233 57.0412L12.9588 63.2377L5.09297 64.907ZM15.8165 62.0776L12.8739 59.135L55.7114 16.2975L58.654 19.2401L15.8165 62.0776ZM20.0606 34.0663L0 14.0057L14.0057 0L34.0663 20.0606L27.983 26.0024L25.9741 23.9935L29.9636 20.004L25.9741 15.9863L20.0323 21.9563L18.0234 19.9475L23.9652 14.0057L19.9757 9.98787L15.958 14.0057L13.9491 11.9968L17.9669 7.97898L13.9774 3.98949L3.9612 14.0057L22.0412 32.0857L20.0323 34.0663H20.0606ZM70 55.9943L55.9943 70L35.9337 49.9394L37.9426 47.9588L55.9943 66.0105L66.0105 55.9943L62.021 52.0048L56.0509 57.9466L54.042 55.9377L60.0121 49.9677L55.9943 45.9782L52.0048 49.9677L49.9959 47.9588L53.9854 43.941L49.9677 39.9515L44.0259 45.8933L42.017 43.8844L49.9111 35.8771L69.9717 55.9377L70 55.9943Z" fill="#FFF8FA"/>
</svg>
