<svg width="21" height="32" viewBox="0 0 21 32" fill="none" xmlns="http://www.w3.org/2000/svg">
<path fill-rule="evenodd" clip-rule="evenodd" d="M0.000850872 16.0008C0.000850872 14.7353 0.509059 13.5216 1.41368 12.6268C2.31829 11.7319 3.54522 11.2292 4.82454 11.2292H9.64994V20.7725H4.82454C3.54522 20.7725 2.31829 20.2697 1.41368 19.3749C0.509059 18.48 0.000850872 17.2664 0.000850872 16.0008ZM4.82454 9.54492H9.64994V0H4.82454C3.54499 1.88609e-08 2.31785 0.502811 1.41308 1.39782C0.508298 2.29283 0 3.50673 0 4.77246C0 6.0382 0.508298 7.25209 1.41308 8.1471C2.31785 9.04211 3.54499 9.54492 4.82454 9.54492ZM21 4.77162C21.0002 5.39838 20.8756 6.01904 20.6333 6.59816C20.391 7.17727 20.0357 7.70349 19.5878 8.14675C19.1398 8.59002 18.608 8.94164 18.0226 9.18154C17.4373 9.42145 16.8099 9.54492 16.1763 9.54492H11.3526V0H16.1763C17.4556 0 18.6826 0.502723 19.5872 1.39758C20.4918 2.29243 21 3.50611 21 4.77162ZM11.3526 16.0008C11.3526 14.7353 11.8608 13.5216 12.7654 12.6268C13.6701 11.7319 14.897 11.2292 16.1763 11.2292C17.4556 11.2292 18.6826 11.7319 19.5872 12.6268C20.4918 13.5216 21 14.7353 21 16.0008C21 17.2664 20.4918 18.48 19.5872 19.3749C18.6826 20.2697 17.4556 20.7725 16.1763 20.7725C14.897 20.7725 13.6701 20.2697 12.7654 19.3749C11.8608 18.48 11.3526 17.2664 11.3526 16.0008ZM4.82454 22.4568H9.64994V27.2301C9.6496 28.1737 9.36645 29.096 8.83629 29.8804C8.30612 30.6648 7.55275 31.2762 6.67141 31.6371C5.79006 31.998 4.82032 32.0924 3.88477 31.9082C2.94923 31.7241 2.08988 31.2696 1.41538 30.6024C0.740878 29.9352 0.2815 29.0851 0.0953229 28.1597C-0.0908546 27.2342 0.00452734 26.275 0.36941 25.4031C0.734293 24.5313 1.35229 23.7861 2.14528 23.2616C2.93828 22.7372 3.87065 22.4571 4.82454 22.4568Z" fill="#DF1E4B"/>
</svg>
