<svg width="38" height="36" viewBox="0 0 38 36" fill="none" xmlns="http://www.w3.org/2000/svg">
<path d="M37.3819 24.8399H36.0057C36.0374 24.8296 36.0691 24.8203 36.1006 24.8083C36.9558 24.4778 37.3634 23.5596 37.0111 22.7574L34.1 16.1301L33.8798 11.1939C33.871 11.0033 33.8251 10.8158 33.7443 10.6407L31.5697 1.49482C31.3251 0.465837 30.2374 -0.182303 29.1403 0.0471453L25.598 0.78812C24.501 1.01757 23.81 2.03778 24.0546 3.06676L24.3717 4.40024L25.7494 2.36104L24.3113 6.25231L19.5698 8.16473C18.89 8.43893 18.5759 9.17812 18.8682 9.8157C19.1605 10.453 19.9481 10.748 20.6283 10.4737L25.9129 8.34236C26.084 8.27334 26.2379 8.17163 26.3647 8.04371C26.4915 7.91579 26.5885 7.76448 26.6495 7.59943L28.2813 3.18461L27.7573 7.95957C27.6496 8.93982 26.7641 9.19623 26.376 9.3525L25.6216 9.65683L26.064 11.5176L24.6125 15.2292C24.571 15.3356 24.5417 15.4459 24.5253 15.5582L23.4245 23.144C23.315 23.8984 23.7962 24.6003 24.535 24.8399H23.1296C22.9656 24.8399 22.8084 24.901 22.6925 25.0098C22.5765 25.1185 22.5114 25.266 22.5114 25.4198V30.2124H15.816C16.3409 29.8911 16.6523 29.3068 16.5622 28.6855L15.4612 21.0997C15.4133 20.7693 15.2545 20.4618 15.0078 20.2217C14.7611 19.9816 14.4394 19.8213 14.0891 19.7641L10.953 19.2516V16.5836L7.00402 13.5648L11.484 15.6086C11.6515 15.685 11.8341 15.7279 12.0202 15.7343C12.2063 15.7408 12.3918 15.7108 12.5648 15.6463L17.9106 13.6538C18.5982 13.3974 18.9341 12.6669 18.6609 12.0217C18.3876 11.3768 17.6086 11.0617 16.9209 11.318L12.1246 13.1058L8.17616 11.3044L10.937 11.8878C10.8132 10.9447 9.9567 10.2146 8.91783 10.2146H5.28852C4.16453 10.2146 3.25339 11.0693 3.25339 12.1234V21.9173H3.25521L3.03794 26.7878L0.126748 33.415C-0.225688 34.2173 0.182082 35.1355 1.03728 35.4659C1.89317 35.7966 2.87168 35.4136 3.22386 34.6119L6.24754 27.7286C6.32197 27.5593 6.3642 27.379 6.37232 27.1959L6.60483 21.9831C6.60578 21.9609 6.60422 21.9393 6.60422 21.9175H7.98513C8.22491 22.0096 7.99985 21.958 12.3074 22.6621L13.2431 29.1094C13.3113 29.5799 13.5961 29.9719 13.9892 30.2125H7.64084C7.47689 30.2125 7.31966 30.2736 7.20373 30.3824C7.0878 30.4911 7.02267 30.6386 7.02264 30.7924V35.0053C7.02264 35.0814 7.03863 35.1568 7.0697 35.2271C7.10077 35.2975 7.14631 35.3614 7.20371 35.4152C7.26112 35.4691 7.32927 35.5118 7.40427 35.5409C7.47927 35.57 7.55966 35.585 7.64084 35.585H37.3818C37.463 35.585 37.5434 35.57 37.6184 35.5409C37.6934 35.5118 37.7615 35.4691 37.8189 35.4152C37.8763 35.3614 37.9219 35.2975 37.9529 35.2271C37.984 35.1568 38 35.0814 38 35.0053V25.4199C38 25.3438 37.9841 25.2684 37.9531 25.198C37.922 25.1276 37.8765 25.0637 37.8191 25.0098C37.7617 24.9559 37.6935 24.9132 37.6185 24.884C37.5435 24.8549 37.4631 24.8399 37.3819 24.8399ZM25.6295 24.8398C26.2075 24.6523 26.6553 24.1748 26.7433 23.5676L27.8197 16.1507L29.4538 11.9717L30.5516 11.7421L30.7655 16.5381C30.7736 16.7211 30.8159 16.9014 30.8903 17.0708L33.9139 23.9541C34.1043 24.3878 34.4784 24.6978 34.9167 24.8398H25.6295Z" fill="#DF1E4B"/>
</svg>
