<svg width="37" height="41" viewBox="0 0 37 41" fill="none" xmlns="http://www.w3.org/2000/svg">
<path d="M36.0225 25.2307V22.6799H24.0806C24.0806 25.9806 21.3633 28.6563 18.0113 28.6563C14.6592 28.6563 11.9419 25.9806 11.9419 22.6799H0V25.2307L5.18561 25.7715C5.5048 27.0591 6.0233 28.2908 6.7229 29.4232L3.44358 33.4172L7.10712 37.0247L11.1631 33.7955C12.3132 34.4844 13.564 34.995 14.8717 35.3093L15.4208 40.4155H20.6017L21.1509 35.3093C22.4586 34.995 23.7094 34.4844 24.8594 33.7955L28.9154 37.0247L32.579 33.4172L29.2996 29.4232C29.9992 28.2908 30.5177 27.0591 30.8369 25.7715L36.0225 25.2307ZM18.0113 0C15.4461 0 13.3591 2.05503 13.3591 4.58093C13.3591 7.10682 15.4461 9.16177 18.0113 9.16177C20.5764 9.16177 22.6634 7.10682 22.6634 4.58093C22.6634 2.05503 20.5764 0 18.0113 0ZM22.9643 10.4282H13.0582C10.7776 10.4283 8.92226 12.2552 8.92226 14.5009V20.3117H27.1003V14.5009C27.1003 12.2552 25.2449 10.4282 22.9643 10.4282ZM8.14211 2.11613C5.84415 2.11613 3.97466 3.95709 3.97466 6.21981C3.97466 8.46437 5.81449 10.2928 8.08704 10.3221C9.02816 9.23811 10.3267 8.46445 11.8021 8.18067C12.1358 7.57941 12.3104 6.90503 12.3096 6.21981C12.3096 3.95701 10.4401 2.11613 8.14211 2.11613ZM3.70507 11.458C1.66211 11.458 0 13.0946 0 15.1063V20.3118H6.51736V14.5009C6.51619 13.4387 6.7835 12.393 7.29519 11.458H3.70507ZM27.8804 2.11613C25.5825 2.11613 23.713 3.95709 23.713 6.21981C23.7121 6.90502 23.8867 7.5794 24.2204 8.18067C25.6958 8.46445 26.9944 9.23811 27.9355 10.3221C30.208 10.2929 32.0479 8.46437 32.0479 6.21981C32.0479 3.95701 30.1784 2.11613 27.8804 2.11613ZM32.3175 11.458H28.7273C29.239 12.393 29.5063 13.4387 29.5052 14.5009V20.3117H36.0225V15.1062C36.0225 13.0946 34.3604 11.458 32.3175 11.458Z" fill="#DF1E4B"/>
</svg>
