<svg width="42" height="22" viewBox="0 0 42 22" fill="none" xmlns="http://www.w3.org/2000/svg">
<path d="M11.7216 15.8308L12.8988 7.04094L12.2949 3.41797H10.1094C4.80228 3.41797 0.5 7.72025 0.5 13.0273V19.9941C0.5 20.6575 1.0378 21.1953 1.70117 21.1953H15.538L11.9742 16.7406C11.8728 16.6139 11.7981 16.4679 11.7547 16.3115C11.7113 16.1552 11.7 15.9916 11.7216 15.8308ZM24.3281 3.6743C23.6048 3.50388 22.8642 3.41786 22.1211 3.41797H19.9355L19.3317 7.04094L20.509 15.8308C20.5305 15.9917 20.5192 16.1552 20.4758 16.3116C20.4324 16.468 20.3578 16.6139 20.2564 16.7406L16.6925 21.1953H22.9252C22.1694 20.1908 21.7207 18.9428 21.7207 17.5918V8.62305C21.7207 6.57193 22.7546 4.75824 24.3281 3.6743ZM37.8965 5.01953H37.2158V3.01758C37.2158 1.47215 35.9585 0.214844 34.4131 0.214844H31.21C29.6645 0.214844 28.4072 1.47215 28.4072 3.01758V5.01953H27.7266C25.7364 5.01953 24.123 6.63286 24.123 8.62305V9.42383H41.5V8.62305C41.5 6.63286 39.8867 5.01953 37.8965 5.01953ZM34.8135 5.01953H30.8096V3.01758C30.8096 2.7968 30.9892 2.61719 31.21 2.61719H34.4131C34.6339 2.61719 34.8135 2.7968 34.8135 3.01758V5.01953ZM24.123 17.5918C24.123 19.582 25.7364 21.1953 27.7266 21.1953H37.8965C39.8867 21.1953 41.5 19.582 41.5 17.5918V11.8262H24.123V17.5918Z" fill="#DF1E4B"/>
</svg>
