<svg width="41" height="40" viewBox="0 0 41 40" fill="none" xmlns="http://www.w3.org/2000/svg">
<path fill-rule="evenodd" clip-rule="evenodd" d="M20.9163 35.974H29.2396L30.0547 39.1225H20.1013L20.9163 35.974ZM26.9785 34.6332V32.9393L38.6205 32.9394L41 30.7751L38.6205 28.6108H26.9785V20.4296H38.6205L41 18.2653L38.6205 16.1011H26.9785V7.91985H38.6205L41 5.75559L38.6205 3.59124H26.9785V1.10534C26.9785 0.496525 26.4819 0 25.8732 0H24.2827C23.674 0 23.1774 0.496609 23.1774 1.10534V9.84612H11.5355L9.15593 12.0104L11.5355 14.1746L23.1774 14.1746V34.6331L26.9785 34.6332ZM29.5547 18.9357C29.3769 18.9357 29.2064 18.865 29.0806 18.7393C28.9549 18.6136 28.8843 18.4431 28.8843 18.2653C28.8843 18.0875 28.9549 17.9169 29.0806 17.7912C29.2064 17.6655 29.3769 17.5948 29.5547 17.5948H36.4552C36.633 17.5948 36.8035 17.6655 36.9292 17.7912C37.055 17.9169 37.1256 18.0875 37.1256 18.2653C37.1256 18.4431 37.055 18.6136 36.9292 18.7393C36.8035 18.865 36.633 18.9357 36.4552 18.9357H29.5547ZM20.6012 11.34C20.779 11.34 20.9496 11.4106 21.0753 11.5363C21.201 11.6621 21.2716 11.8326 21.2716 12.0104C21.2716 12.1882 21.201 12.3587 21.0753 12.4844C20.9496 12.6102 20.779 12.6808 20.6012 12.6808H13.7007C13.5229 12.6808 13.3524 12.6102 13.2267 12.4844C13.101 12.3587 13.0303 12.1882 13.0303 12.0104C13.0303 11.8326 13.101 11.6621 13.2267 11.5363C13.3524 11.4106 13.5229 11.34 13.7007 11.34H20.6012ZM29.5547 6.42592C29.3769 6.42592 29.2064 6.35528 29.0806 6.22956C28.9549 6.10383 28.8843 5.93331 28.8843 5.7555C28.8843 5.5777 28.9549 5.40718 29.0806 5.28145C29.2064 5.15572 29.3769 5.08509 29.5547 5.08509H36.4552C36.633 5.08509 36.8035 5.15572 36.9292 5.28145C37.055 5.40718 37.1256 5.5777 37.1256 5.7555C37.1256 5.93331 37.055 6.10383 36.9292 6.22956C36.8035 6.35528 36.633 6.42592 36.4552 6.42592H29.5547ZM29.5547 31.4454C29.3769 31.4454 29.2064 31.3748 29.0806 31.2491C28.9549 31.1233 28.8843 30.9528 28.8843 30.775C28.8843 30.5972 28.9549 30.4267 29.0806 30.301C29.2064 30.1752 29.3769 30.1046 29.5547 30.1046H36.4552C36.633 30.1046 36.8035 30.1752 36.9292 30.301C37.055 30.4267 37.1256 30.5972 37.1256 30.775C37.1256 30.9528 37.055 31.1233 36.9292 31.2491C36.8035 31.3748 36.633 31.4454 36.4552 31.4454H29.5547ZM16.5476 23.4843C17.0104 23.4843 17.3856 23.8594 17.3856 24.3223C17.3856 24.7851 17.0104 25.1603 16.5476 25.1603C16.0847 25.1603 15.7096 24.7851 15.7096 24.3223C15.7096 23.8594 16.0847 23.4843 16.5476 23.4843ZM2.83409 23.4843C3.29693 23.4843 3.67211 23.8594 3.67211 24.3223C3.67211 24.7851 3.29693 25.1603 2.83409 25.1603C2.37125 25.1603 1.99607 24.7851 1.99607 24.3223C1.99607 23.8594 2.37125 23.4843 2.83409 23.4843ZM1.41893 19.2103C1.53751 19.5603 1.34996 19.9402 0.999922 20.0588C0.649882 20.1774 0.270009 19.9898 0.15143 19.6398C0.0523874 19.3459 0.0012578 19.038 0 18.7279C0 17.1628 1.26901 15.8938 2.83409 15.8938C4.39917 15.8938 5.66818 17.1628 5.66818 18.7279C5.66818 19.9645 4.86084 21.0622 3.68108 21.432C3.56736 21.4676 3.5045 21.5564 3.5045 21.675V22.5242C3.5045 22.702 3.43387 22.8726 3.30815 22.9983C3.18242 23.124 3.0119 23.1946 2.83409 23.1946C2.65629 23.1946 2.48576 23.124 2.36004 22.9983C2.23431 22.8726 2.16368 22.702 2.16368 22.5242V21.675C2.16368 20.9725 2.61311 20.3639 3.28302 20.154C3.907 19.9585 4.32735 19.3809 4.32735 18.7279C4.32735 17.9032 3.65887 17.2347 2.83409 17.2347C2.00931 17.2347 1.34083 17.9032 1.34083 18.7279C1.34083 18.8984 1.36404 19.0488 1.41893 19.2103ZM15.1324 19.2103C15.1881 19.378 15.1752 19.561 15.0964 19.7193C15.0177 19.8775 14.8795 19.9982 14.7121 20.0549C14.5447 20.1116 14.3616 20.0998 14.2029 20.022C14.0442 19.9443 13.9227 19.8068 13.8649 19.6398C13.7659 19.3459 13.7148 19.038 13.7136 18.7279C13.7136 17.1628 14.9826 15.8938 16.5477 15.8938C18.1127 15.8938 19.3818 17.1628 19.3818 18.7279C19.3818 19.9645 18.5744 21.0622 17.3946 21.432C17.2809 21.4676 17.2181 21.5564 17.2181 21.675V22.5242C17.2181 22.702 17.1474 22.8726 17.0217 22.9983C16.896 23.124 16.7255 23.1946 16.5477 23.1946C16.3699 23.1946 16.1993 23.124 16.0736 22.9983C15.9479 22.8726 15.8772 22.702 15.8772 22.5242V21.675C15.8772 20.9725 16.3267 20.3639 16.9966 20.154C17.6206 19.9585 18.0409 19.3809 18.0409 18.7279C18.0409 17.9032 17.3724 17.2347 16.5477 17.2347C15.7228 17.2347 15.0544 17.9032 15.0544 18.7279C15.0543 18.8984 15.0774 19.0488 15.1324 19.2103ZM9.69092 21.2142C12.1949 21.2142 14.2248 23.2441 14.2248 25.7481C14.2248 28.2521 12.1949 30.282 9.69092 30.282C7.18692 30.282 5.15699 28.2521 5.15699 25.7481C5.15699 23.2441 7.18692 21.2142 9.69092 21.2142ZM1.76235 39.1225C1.49888 39.1225 1.27211 39.0134 1.10761 38.8075C0.943188 38.6017 0.88679 38.3564 0.944948 38.0995C1.84942 34.1036 5.42155 31.12 9.69083 31.12C13.96 31.12 17.5322 34.1037 18.4366 38.0994C18.4948 38.3564 18.4383 38.6016 18.274 38.8074C18.1095 39.0133 17.8827 39.1224 17.6192 39.1224L1.76235 39.1225Z" fill="#DF1E4B"/>
</svg>
