<svg width="54" height="35" viewBox="0 0 54 35" fill="none" xmlns="http://www.w3.org/2000/svg">
<path fill-rule="evenodd" clip-rule="evenodd" d="M2.65394 31.8436C1.95779 32.4111 0.933473 32.3069 0.36591 31.6108C-0.201653 30.9148 -0.097478 29.8904 0.598673 29.3229L5.67457 25.0461L7.21177 20.3398C8.07026 20.8628 9.16758 21.1316 10.4665 21.1632L8.45039 26.9647L2.65394 31.8436ZM10.0046 0C11.3548 0 12.4494 1.09463 12.4494 2.44485C12.4494 3.79519 11.3548 4.88982 10.0046 4.88982C8.65436 4.88982 7.55962 3.79519 7.55962 2.44485C7.55973 1.09463 8.65436 0 10.0046 0ZM11.338 7.16052C10.8597 6.88039 10.2731 6.80592 9.68609 6.80592C7.51664 6.80592 6.65478 8.58095 6.65478 10.7504V15.822C6.65478 18.6183 8.08342 19.5916 10.7296 19.5916H11.3024L15.5364 24.3086L16.7023 30.8428C16.8457 31.7294 17.6808 32.3319 18.5673 32.1883C19.4539 32.0449 20.0564 31.2098 19.9129 30.3232L18.5859 22.864L13.6306 17.1307V11.9006L15.0382 12.7008L20.9001 12.6756C21.7031 12.66 22.3415 11.9964 22.3259 11.1934C22.3104 10.3905 21.6468 9.75207 20.8439 9.7676L15.8215 9.78672L11.338 7.16052ZM35.2584 15.9451V21.7423C35.2584 21.8663 35.1574 21.9673 35.0334 21.9673H29.2361C29.1122 21.9673 29.0111 22.0684 29.0111 22.1923V27.9896C29.0111 28.1135 28.9101 28.2146 28.7861 28.2146H22.9889C22.8649 28.2146 22.7639 28.3156 22.7639 28.4396V34.2368C22.7639 34.3608 22.8649 34.4618 22.9889 34.4618H53.775C53.899 34.4618 54 34.3608 54 34.2368V3.4506C54 3.32663 53.899 3.2256 53.775 3.2256H47.9778C47.8538 3.2256 47.7528 3.32663 47.7528 3.4506V9.24785C47.7528 9.37182 47.6517 9.47285 47.5278 9.47285H41.7305C41.6065 9.47285 41.5055 9.57387 41.5055 9.69785V15.4951C41.5055 15.6191 41.4045 15.7201 41.2805 15.7201H35.4833C35.4236 15.7202 35.3665 15.744 35.3243 15.7861C35.2822 15.8283 35.2585 15.8855 35.2584 15.9451Z" fill="#DF1E4B"/>
</svg>
