<svg width="41" height="41" viewBox="0 0 41 41" fill="none" xmlns="http://www.w3.org/2000/svg">
<circle cx="20.5" cy="20.5" r="19" stroke="#F8F7F7" stroke-width="3"/>
<path d="M29.7264 9H18.7298C17.4572 9 16.4258 10.0289 16.4258 11.2978V16.7C17.0071 16.9882 17.6352 17.2998 18.2214 17.5904L19.1184 15.8006C19.6615 14.7182 20.9854 14.2784 22.0703 14.8191C23.1575 15.3618 23.5981 16.6785 23.0538 17.763L21.4549 20.9531C21.4977 21.3765 21.4588 21.8041 21.3403 22.2129H22.3959L19.6117 29.8486C19.4464 30.3015 19.7658 30.83 20.301 30.83C20.6003 30.83 20.8818 30.6458 20.9898 30.3483L23.9563 22.2129H24.4702L27.4668 30.3508C27.5758 30.6468 27.8565 30.83 28.1556 30.83C28.6557 30.83 29.0223 30.3318 28.8434 29.8467L26.0325 22.2129H29.7265C30.9988 22.2129 32.0304 21.1841 32.0304 19.9151V11.2979C32.0304 10.0289 30.9988 9 29.7264 9ZM28.1552 19.0798H24.8651C24.4602 19.0798 24.1318 18.7522 24.1318 18.3484C24.1318 17.9443 24.4602 17.6171 24.8651 17.6171H28.1552C28.5604 17.6171 28.8885 17.9443 28.8885 18.3484C28.8885 18.7522 28.5605 19.0798 28.1552 19.0798ZM28.1552 16.3378H24.8651C24.4602 16.3378 24.1318 16.0107 24.1318 15.6065C24.1318 15.2027 24.4602 14.8751 24.8651 14.8751H28.1552C28.5604 14.8751 28.8885 15.2027 28.8885 15.6065C28.8885 16.0107 28.5605 16.3378 28.1552 16.3378ZM28.1552 13.5962H20.301C19.8958 13.5962 19.5677 13.2686 19.5677 12.8649C19.5677 12.4612 19.8958 12.1336 20.301 12.1336H28.1552C28.5604 12.1336 28.8885 12.4611 28.8885 12.8649C28.8885 13.2687 28.5604 13.5962 28.1552 13.5962Z" fill="#F8F7F7"/>
<path d="M19.9023 21.8994C20.0348 21.5123 20.0338 21.1077 19.9219 20.7386L21.7418 17.1089C21.9229 16.7477 21.7762 16.3083 21.414 16.1277C21.0519 15.947 20.6113 16.0935 20.4301 16.4548L18.878 19.5504C17.9502 19.0897 16.5407 18.3907 15.4053 17.8276C14.3489 17.3036 13.5949 16.8338 12.3086 16.8338H11.6607C12.6623 16.8338 13.5562 16.374 14.1413 15.6544C14.5878 15.1069 14.8547 14.4091 14.8547 13.6486C14.8547 11.889 13.4248 10.4629 11.6603 10.4629C9.89654 10.4629 8.4666 11.889 8.4666 13.6486C8.4666 14.4937 8.79659 15.2616 9.33493 15.8314C9.91697 16.4487 10.7436 16.8338 11.6601 16.834C10.4314 16.834 9.23026 17.3304 8.36614 18.1946C7.4852 19.0708 7 20.2383 7 21.482V23.832C7 24.8437 7.65865 25.7045 8.57088 26.0108V30.0987C8.57088 30.5027 8.89915 30.83 9.30418 30.83H14.0168C14.4218 30.83 14.7501 30.5027 14.7501 30.0987V21.8816C15.4454 22.2282 16.3588 22.6836 17.0978 23.0523C17.6159 23.3106 18.2212 23.3338 18.7611 23.1148C19.2994 22.8939 19.7144 22.4541 19.8994 21.9081L19.9023 21.8994Z" fill="#F8F7F7"/>
</svg>
