<svg width="41" height="41" viewBox="0 0 41 41" fill="none" xmlns="http://www.w3.org/2000/svg">
<circle cx="20.5" cy="20.5" r="19" stroke="#F8F7F7" stroke-width="3"/>
<path d="M17.1734 12.5L14.9935 14.6799C13.9459 15.7275 13.9359 17.4293 14.9824 18.4832L14.9824 18.4832C16.6998 20.2127 19.5029 20.2164 21.2249 18.4944L23.0292 16.6901L29.7371 23.3978L29.7481 23.4089C30.1607 23.8214 30.1607 24.4903 29.7481 24.9028C29.3356 25.3154 28.6667 25.3154 28.2541 24.9028L27.2195 23.8682C27.2191 23.8678 27.2187 23.8674 27.2183 23.8671L26.8648 24.2206L26.5112 24.5742C26.9238 24.9867 26.9238 25.6556 26.5112 26.0681C26.0987 26.4807 25.4298 26.4807 25.0173 26.0681L23.9815 25.0324L23.9815 25.0324L23.628 25.3859L23.2744 25.7395C23.2744 25.7395 23.2744 25.7395 23.2744 25.7395C23.6869 26.152 23.6869 26.8208 23.2744 27.2334C22.8618 27.646 22.193 27.646 21.7804 27.2334L20.4001 25.8531L20.3995 25.8525L19.6919 26.5591C20.1031 26.9717 20.1027 27.6396 19.6906 28.0517C19.278 28.4643 18.6092 28.4643 18.1967 28.0517L17.5153 27.3704L17.1652 27.0203L17.1652 27.0204L10.5803 20.4356L10.4339 20.2891L10.2268 20.2891L8.73244 20.2891H8.73242C8.60407 20.2891 8.5 20.185 8.5 20.0566V12.7324C8.5 12.6041 8.60407 12.5 8.73242 12.5H17.1734Z" fill="#F8F7F7" stroke="#F8F7F7"/>
<path d="M30.3896 20.565L24.7634 14.9388C23.8054 13.9808 22.2522 13.9808 21.2942 14.9388L19.4816 16.7514C18.7234 17.5096 17.4942 17.5096 16.736 16.7514C16.6453 16.6607 16.6453 16.5135 16.736 16.4227L19.7326 13.4262C19.7326 13.4262 19.7326 13.4262 19.7326 13.4262C20.3256 12.8332 21.1299 12.5 21.9686 12.5H32.2672C32.3955 12.5 32.4996 12.6041 32.4996 12.7324V20.0567C32.4996 20.185 32.3955 20.2891 32.2672 20.2891H30.842H30.4816L30.3896 20.565Z" fill="#F8F7F7" stroke="#F8F7F7"/>
</svg>
